<svg viewBox="0 0 1920 652" fill="none" xmlns="http://www.w3.org/2000/svg">
<rect width="1920" height="652" fill="#0AA1D0"/>
<rect width="291.025" height="389.899" transform="matrix(0.866025 -0.5 0.866025 0.5 685 439.64)" fill="#08799C"/>
<rect width="291.025" height="389.899" transform="matrix(0.866025 -0.5 0.866025 0.5 685 439.64)" fill="#08799C"/>
<rect width="291.025" height="389.899" transform="matrix(0.866025 -0.5 0.866025 0.5 685 439.64)" fill="#08799C"/>
<rect width="291.025" height="389.899" transform="matrix(0.866025 -0.5 0.866025 0.5 685 439.64)" fill="#08799C"/>
<path d="M1622 652C1622 583.583 1608.54 515.835 1582.38 452.626C1556.22 389.416 1517.88 331.983 1469.55 283.604C1421.22 235.226 1363.84 196.85 1300.69 170.668C1237.54 144.485 1169.85 131.01 1101.5 131.01C1033.15 131.01 965.463 144.485 902.313 170.668C839.163 196.85 781.784 235.226 733.451 283.604C685.118 331.983 646.778 389.416 620.621 452.626C594.463 515.835 581 583.583 581 652" stroke="#66D3F4"/>
<path d="M1507.21 652C1507.21 598.786 1496.71 546.094 1476.32 496.931C1455.93 447.768 1426.05 403.098 1388.38 365.47C1350.7 327.842 1305.98 297.994 1256.76 277.63C1207.53 257.266 1154.78 246.785 1101.5 246.785C1048.22 246.785 995.466 257.266 946.243 277.63C897.021 297.994 852.296 327.842 814.623 365.47C776.95 403.098 747.066 447.768 726.677 496.931C706.288 546.094 695.794 598.786 695.794 652" stroke="#66D3F4"/>
<path d="M1381.62 652C1381.62 577.838 1352.11 506.714 1299.57 454.273C1247.04 401.833 1175.79 372.372 1101.5 372.372C1027.21 372.372 955.959 401.833 903.427 454.273C850.894 506.714 821.382 577.838 821.382 652" stroke="#66D3F4"/>
<circle cx="842" cy="200" r="7" fill="#66D2F4"/>
<circle cx="1538" cy="369" r="15" fill="#66D2F4"/>
<path d="M880.416 182.512H855.5H853.25H851H849.267C843.037 182.512 838 177.48 838 171.256C838 165.032 843.037 160 849.267 160H880.416C886.645 160 891.682 165.032 891.682 171.256C891.682 177.48 886.513 182.512 880.416 182.512Z" fill="#0AA1D0" stroke="#66D2F4" stroke-miterlimit="10" stroke-linecap="round" stroke-linejoin="round"/>
<path d="M856.159 181.188C856.159 181.188 854.038 186.22 847.278 187.809C849.664 186.22 850.857 183.439 851.255 180.923" fill="#0AA1D0"/>
<path d="M856.159 181.188C856.159 181.188 854.038 186.22 847.278 187.809C849.664 186.22 850.857 183.439 851.255 180.923" stroke="#66D2F4" stroke-miterlimit="10" stroke-linecap="round" stroke-linejoin="round"/>
<path d="M859.726 168.433V174H858.692V171.614H855.813V174H854.779V168.433H855.813V170.731H858.692V168.433H859.726ZM865.153 171.9C865.153 171.969 865.148 172.067 865.137 172.195H861.805C861.863 172.507 862.014 172.757 862.258 172.942C862.507 173.123 862.815 173.213 863.181 173.213C863.647 173.213 864.032 173.059 864.334 172.751L864.867 173.364C864.676 173.592 864.435 173.764 864.143 173.881C863.851 173.997 863.523 174.056 863.157 174.056C862.69 174.056 862.279 173.963 861.924 173.777C861.569 173.592 861.293 173.335 861.097 173.006C860.906 172.672 860.811 172.295 860.811 171.877C860.811 171.463 860.903 171.092 861.089 170.763C861.28 170.429 861.542 170.169 861.876 169.984C862.21 169.798 862.587 169.705 863.006 169.705C863.419 169.705 863.788 169.798 864.111 169.984C864.44 170.164 864.694 170.421 864.875 170.755C865.06 171.084 865.153 171.466 865.153 171.9ZM863.006 170.501C862.688 170.501 862.417 170.596 862.194 170.787C861.977 170.973 861.845 171.222 861.797 171.535H864.207C864.164 171.227 864.034 170.978 863.817 170.787C863.599 170.596 863.329 170.501 863.006 170.501ZM866.108 168.099H867.102V174H866.108V168.099ZM868.407 168.099H869.401V174H868.407V168.099ZM872.614 174.056C872.185 174.056 871.798 173.963 871.453 173.777C871.109 173.592 870.838 173.335 870.642 173.006C870.451 172.672 870.356 172.295 870.356 171.877C870.356 171.458 870.451 171.084 870.642 170.755C870.838 170.426 871.109 170.169 871.453 169.984C871.798 169.798 872.185 169.705 872.614 169.705C873.049 169.705 873.439 169.798 873.784 169.984C874.128 170.169 874.396 170.426 874.587 170.755C874.783 171.084 874.881 171.458 874.881 171.877C874.881 172.295 874.783 172.672 874.587 173.006C874.396 173.335 874.128 173.592 873.784 173.777C873.439 173.963 873.049 174.056 872.614 174.056ZM872.614 173.205C872.98 173.205 873.282 173.083 873.521 172.839C873.76 172.595 873.879 172.274 873.879 171.877C873.879 171.479 873.76 171.158 873.521 170.914C873.282 170.67 872.98 170.548 872.614 170.548C872.249 170.548 871.946 170.67 871.708 170.914C871.475 171.158 871.358 171.479 871.358 171.877C871.358 172.274 871.475 172.595 871.708 172.839C871.946 173.083 872.249 173.205 872.614 173.205Z" fill="#66D2F4"/>
<path d="M1579.23 348.512H1565.5H1563.25H1561H1559.27C1553.04 348.512 1548 343.48 1548 337.256C1548 331.032 1553.04 326 1559.27 326H1579.23C1585.46 326 1590.5 331.032 1590.5 337.256C1590.5 343.48 1585.33 348.512 1579.23 348.512Z" fill="#0AA1D0" stroke="#66D2F4" stroke-miterlimit="10" stroke-linecap="round" stroke-linejoin="round"/>
<path d="M1566.16 347.188C1566.16 347.188 1564.04 352.22 1557.28 353.809C1559.66 352.22 1560.86 349.439 1561.25 346.923" fill="#0AA1D0"/>
<path d="M1566.16 347.188C1566.16 347.188 1564.04 352.22 1557.28 353.809C1559.66 352.22 1560.86 349.439 1561.25 346.923" stroke="#66D2F4" stroke-miterlimit="10" stroke-linecap="round" stroke-linejoin="round"/>
<path d="M1569.69 334.433V340H1568.66V337.614H1565.78V340H1564.75V334.433H1565.78V336.731H1568.66V334.433H1569.69ZM1571.09 335.753H1572.08V340H1571.09V335.753ZM1571.59 335.053C1571.41 335.053 1571.26 334.998 1571.14 334.886C1571.02 334.77 1570.96 334.626 1570.96 334.457C1570.96 334.287 1571.02 334.147 1571.14 334.035C1571.26 333.919 1571.41 333.86 1571.59 333.86C1571.77 333.86 1571.92 333.916 1572.05 334.027C1572.17 334.133 1572.23 334.269 1572.23 334.433C1572.23 334.608 1572.17 334.756 1572.05 334.878C1571.93 334.995 1571.78 335.053 1571.59 335.053ZM1573.26 334.433H1574.44L1574.24 338.155H1573.45L1573.26 334.433ZM1573.85 340.056C1573.67 340.056 1573.51 339.997 1573.39 339.881C1573.27 339.759 1573.21 339.61 1573.21 339.435C1573.21 339.26 1573.27 339.115 1573.39 338.998C1573.51 338.881 1573.67 338.823 1573.85 338.823C1574.03 338.823 1574.18 338.881 1574.3 338.998C1574.42 339.115 1574.48 339.26 1574.48 339.435C1574.48 339.61 1574.42 339.759 1574.3 339.881C1574.18 339.997 1574.03 340.056 1573.85 340.056Z" fill="#66D2F4"/>
<rect width="96.9016" height="364.979" transform="matrix(0.866025 -0.5 0.866025 0.5 1075 316.185)" fill="#08799C"/>
<rect width="96.9016" height="364.979" transform="matrix(0.866025 -0.5 0.866025 0.5 1075 316.185)" fill="#08799C"/>
<rect width="96.9016" height="364.979" transform="matrix(0.866025 -0.5 0.866025 0.5 1075 316.185)" fill="#08799C"/>
<rect width="96.9016" height="364.979" transform="matrix(0.866025 -0.5 0.866025 0.5 1075 316.185)" fill="#08799C"/>
<rect width="51.7643" height="95.9187" transform="matrix(0.866025 0.5 -0.866025 0.5 1290.91 122.443)" fill="white"/>
<rect width="95.8518" height="209.264" transform="matrix(0.866025 -0.5 2.20305e-08 1 1260.96 214.534)" fill="white"/>
<path d="M1335.74 148.426L1252.39 196.342L1337.76 364.049L1420.1 315.458L1335.74 148.426Z" fill="white"/>
<path d="M1391.19 276.211L1391.19 498.985L1346.32 473.078L1261.25 305.26L1261.25 423.966L1207.85 393.132L1207.85 170.359L1252.72 196.266L1337.78 364.084L1337.78 245.377L1391.19 276.211Z" fill="#D0D0D0"/>
<rect width="61.5258" height="95.9187" transform="matrix(0.866025 0.5 -0.866025 0.5 1421.17 197.354)" fill="white"/>
<rect width="95.8518" height="223.015" transform="matrix(0.866025 -0.5 2.20305e-08 1 1391.41 276.021)" fill="white"/>
<rect width="121.476" height="85.1366" transform="matrix(0.866025 0.5 -2.20305e-08 1 1016.27 431.099)" fill="#952B2B"/>
<rect width="123.124" height="85.1366" transform="matrix(0.866025 0.5 -2.20305e-08 1 1113.21 374.077)" fill="#952B2B"/>
<rect width="61.1627" height="86.8094" transform="matrix(0.866025 -0.5 2.20305e-08 1 963.3 461.367)" fill="#952B2B"/>
<rect width="61.1627" height="86.8094" transform="matrix(0.866025 -0.5 2.20305e-08 1 1060.41 395.156)" fill="#952B2B"/>
<path d="M1076.64 518.609L1022.72 549.739L847.253 448.431L1098.18 303.559L1273.65 404.867L1219.73 435.997L1113.33 374.568L1067.51 401.024L1173.91 462.453L1121.75 492.565L1015.35 431.136L970.244 457.18L1076.64 518.609Z" fill="#EA5757"/>
<rect width="60.4922" height="84.754" transform="matrix(0.866025 -0.5 2.20305e-08 1 1121.47 492.265)" fill="#952B2B"/>
<rect width="203.026" height="85.1366" transform="matrix(0.866025 0.5 -2.20305e-08 1 847.064 448.442)" fill="#952B2B"/>
<rect width="62.0122" height="85.3227" transform="matrix(0.866025 -0.5 2.20305e-08 1 1022.89 549.648)" fill="#952B2B"/>
<rect width="62.6169" height="84.6801" transform="matrix(0.866025 -0.5 2.20305e-08 1 1219.52 436.164)" fill="#952B2B"/>
<path fill-rule="evenodd" clip-rule="evenodd" d="M975 373.89L977.856 374.497L977.344 374.396L1006.33 384.927L1017.53 389.45L1027.27 388.192L1026.96 383.742L1018.52 377.226L1001.55 360.154L1000.83 359L975 373.89ZM1012.94 378.464L1003.07 370.532C1001.93 371.717 1000.28 372.802 998.318 373.802L1009.11 379.353L1012.94 378.464ZM987.413 376.524L979.59 374.82L1006.47 384.715L1008.94 379.45L998.15 373.899C994.867 375.398 991.148 376.353 987.413 376.524ZM1013.31 378.384L1018.36 377.323L1002.58 361.813L1005.41 366.263C1005.33 367.767 1004.54 369.152 1003.32 370.386L1013.31 378.384Z" fill="#D44343"/>
<path d="M1051.8 313.47L1053.51 348.723H1052.98L1051.53 320.732L1051.8 313.47Z" fill="#2B2B2B"/>
<path d="M1076.95 317.959L1062.99 354.401L1063.52 354.136L1076.16 322.184L1076.95 317.959Z" fill="#2B2B2B"/>
<path d="M1079.32 316.903H1069.57C1066.02 314.658 1060.88 313.206 1055.22 313.206C1049.56 313.206 1044.29 314.658 1040.87 316.903H1030.99L1035.86 325.485L1036.13 326.013C1037.71 331.162 1045.61 335.123 1055.22 335.123C1064.17 335.123 1071.68 331.69 1073.92 326.937H1074.05L1079.32 316.903Z" fill="#E6332A"/>
<path d="M1085.64 306.604H1076.82C1072.6 302.247 1064.44 299.342 1055.22 299.342C1046 299.342 1037.84 302.247 1033.63 306.604H1025.07L1031.26 317.167C1031.26 317.167 1031.39 317.167 1031.65 317.167C1034.55 323.108 1044.16 327.465 1055.48 327.465C1066.68 327.465 1076.16 323.24 1079.19 317.431L1085.64 306.604Z" fill="#F7F7F7"/>
<path d="M1093.41 293.004L1081.56 293.4C1076.03 288.779 1066.28 285.742 1055.09 285.742C1042.71 285.742 1031.91 289.571 1026.91 295.117L1017.69 295.381L1024.8 306.736H1024.94C1028.62 313.734 1040.74 318.883 1055.09 318.883C1069.97 318.883 1082.48 313.338 1085.64 306.076L1093.41 293.004Z" fill="#E6332A"/>
<path d="M1101.04 281.385C1101.04 281.385 1096.57 281.385 1089.59 281.517C1083.14 275.576 1070.1 271.483 1054.96 271.747C1039.95 271.879 1026.91 276.236 1020.59 282.309C1013.61 282.441 1009 282.441 1009.13 282.441L1017.82 295.777H1018.09C1022.83 303.435 1037.71 308.98 1055.35 308.716C1073.92 308.452 1089.19 302.115 1092.88 293.664L1101.04 281.385Z" fill="#F7F7F7"/>
<path d="M1110.66 267.258C1110.66 267.258 1107.1 267.258 1101.18 267.258C1094.86 257.619 1076.68 250.621 1055.09 250.621C1033.49 250.621 1015.06 257.619 1009 267.39C1003.34 267.39 999.917 267.39 999.917 267.522L1009.13 281.914H1009.27C1015.59 291.552 1033.76 298.55 1055.22 298.55C1076.68 298.55 1094.86 291.552 1101.18 281.914H1101.31L1110.66 267.258Z" fill="#E6332A"/>
<path d="M1117.24 247.056H1104.34C1094.46 239.134 1076.16 233.721 1055.09 233.721C1034.15 233.721 1015.85 239.002 1005.84 247.056H992.543C993.992 254.186 996.494 261.052 999.917 267.522C1000.18 267.918 1000.44 268.314 1000.71 268.71C1007.95 279.669 1029.54 287.591 1055.22 287.591C1081.95 287.591 1104.47 278.877 1110.52 267.125H1110.66C1113.95 261.184 1115.92 254.318 1117.24 247.056Z" fill="#F7F7F7"/>
<path d="M1116.05 220.649C1116.05 220.649 1101.18 220.649 1081.82 220.517C1073.66 218.801 1064.57 217.745 1054.96 217.745C1045.48 217.745 1036.52 218.669 1028.49 220.385C1012.95 220.385 1000.05 220.385 995.177 220.517C990.042 236.494 992.675 247.848 992.675 247.848C992.675 247.848 992.675 247.848 992.807 247.848C994.914 262.636 1021.91 274.387 1054.96 274.387C1088.93 274.387 1116.45 261.976 1117.11 246.528C1119.61 231.08 1116.05 220.649 1116.05 220.649Z" fill="#E6332A"/>
<path d="M1000.44 211.011C1000.44 211.011 1016.9 187.245 1053.9 187.245C1086.69 187.245 1101.31 201.769 1109.47 210.351C1133.7 235.834 1098.41 260.128 1055.22 259.6C1012.16 259.072 979.903 240.719 1000.44 211.011Z" fill="white"/>
<path d="M1092.62 196.355C1083.79 191.206 1025.07 193.582 1023.49 193.582C1021.78 193.582 998.995 204.937 997.679 218.669C997.679 231.608 1023.49 242.171 1055.35 242.171C1087.22 242.171 1113.03 231.608 1113.03 218.669C1112.89 211.011 1099.73 200.448 1092.62 196.355Z" fill="#E6332A"/>
<path d="M1055.75 225.271C1079.67 225.271 1099.07 216.758 1099.07 206.258C1099.07 195.757 1079.67 187.245 1055.75 187.245C1031.82 187.245 1012.43 195.757 1012.43 206.258C1012.43 216.758 1031.82 225.271 1055.75 225.271Z" fill="white"/>
<path d="M1054.04 205.597C1054.04 205.597 1042.45 197.939 1044.03 188.433C1028.49 190.017 1010.19 196.619 1000.44 211.011C990.7 225.403 988.593 248.905 1000.05 267.522C1010.58 285.082 1046.27 287.855 1046.53 287.855C1038.89 262.24 1034.68 226.459 1054.04 205.597Z" fill="#2174A7"/>
<path d="M1055.22 205.73C1067 205.73 1076.55 201.533 1076.55 196.355C1076.55 191.178 1067 186.981 1055.22 186.981C1043.44 186.981 1033.89 191.178 1033.89 196.355C1033.89 201.533 1043.44 205.73 1055.22 205.73Z" fill="#E6332A"/>
<path d="M1015.59 202.032C1014.93 203.353 1014.66 204.145 1014.14 205.597C1014.8 206.258 1015.06 206.522 1015.85 207.05C1014.8 207.446 1014.4 207.578 1013.35 207.974C1012.82 209.426 1012.56 210.219 1012.16 211.803C1012.03 210.483 1011.9 209.69 1011.9 208.37C1010.98 208.634 1010.45 208.634 1009.4 208.766C1010.32 207.842 1010.85 207.314 1011.77 206.258C1011.77 204.937 1011.64 204.277 1011.64 202.957C1012.29 203.749 1012.56 204.013 1013.22 204.673C1014.14 203.617 1014.66 203.089 1015.59 202.032Z" fill="white"/>
<path d="M1027.96 208.634C1027.7 210.351 1027.7 211.143 1027.7 212.859C1029.15 213.388 1029.94 213.52 1031.52 213.916C1030.07 214.576 1029.28 214.84 1027.7 215.368C1027.7 217.084 1027.7 217.877 1027.83 219.593C1026.78 218.273 1026.25 217.613 1025.2 216.292C1023.62 216.82 1022.83 217.084 1021.25 217.613C1022.17 216.16 1022.7 215.5 1023.75 214.18C1022.83 212.727 1022.43 212.067 1021.78 210.615C1023.22 211.275 1023.88 211.539 1025.33 212.067C1026.38 210.747 1026.91 210.087 1027.96 208.634Z" fill="white"/>
<path d="M999.522 220.253C999.785 218.537 999.917 217.745 1000.31 216.028C1001.37 216.16 1001.89 216.292 1002.95 216.292C1002.16 215.236 1001.76 214.708 1000.97 213.52C1001.37 211.935 1001.63 211.143 1002.02 209.559C1001.5 209.955 1001.1 210.351 1000.71 210.747C1000.58 210.879 1000.58 211.011 1000.44 211.143C999.522 212.595 998.6 214.048 997.81 215.632C998.074 215.764 998.337 215.764 998.732 215.896C998.995 217.613 999.127 218.405 999.522 220.253Z" fill="white"/>
<path d="M1012.82 222.102C1012.56 223.818 1012.56 224.742 1012.43 226.459C1013.35 227.251 1013.87 227.647 1014.93 228.439C1013.87 228.704 1013.35 228.836 1012.29 229.1C1012.29 230.948 1012.29 231.74 1012.29 233.589C1011.64 231.872 1011.24 231.08 1010.71 229.496C1009.66 229.76 1009.13 229.892 1008.21 230.024C1008.87 228.836 1009.27 228.175 1009.92 226.987C1009.4 225.403 1009.13 224.61 1008.87 223.026C1009.66 223.818 1010.19 224.214 1011.11 225.139C1011.64 223.95 1012.03 223.422 1012.82 222.102Z" fill="white"/>
<path d="M1034.15 229.232C1034.55 230.816 1034.68 231.608 1035.07 233.193C1036.92 233.457 1037.84 233.457 1039.81 233.589C1038.23 234.381 1037.44 234.777 1035.73 235.569C1036.13 237.154 1036.39 237.946 1036.92 239.398C1035.47 238.342 1034.68 237.814 1033.23 236.758C1031.65 237.55 1030.73 237.946 1029.15 238.606C1029.94 237.154 1030.2 236.494 1030.99 235.041C1029.54 233.853 1028.89 233.325 1027.57 232.136C1029.41 232.533 1030.33 232.665 1032.18 232.929C1033.1 231.344 1033.36 230.684 1034.15 229.232Z" fill="white"/>
<path d="M1001.63 232.136C1001.63 233.853 1001.63 234.777 1001.76 236.626C1002.81 237.682 1003.21 238.21 1004.26 239.134C1003.34 239.266 1002.81 239.266 1001.89 239.266C1002.02 241.115 1002.16 241.907 1002.42 243.755C1001.63 242.039 1001.23 241.115 1000.44 239.398C999.522 239.398 998.995 239.398 998.074 239.398C998.469 238.342 998.732 237.682 999.259 236.626C998.6 234.777 998.205 233.853 997.679 232.004C998.732 233.193 999.127 233.853 1000.18 234.909C1000.71 233.853 1000.97 233.325 1001.63 232.136Z" fill="white"/>
<path d="M1018.75 244.284C1019.27 246 1019.54 246.792 1020.06 248.377C1021.91 248.773 1022.96 248.905 1024.8 249.169C1023.22 249.829 1022.43 250.225 1020.85 250.885C1021.38 252.47 1021.78 253.262 1022.43 254.846C1020.85 253.658 1020.06 253.13 1018.48 251.81C1016.9 252.47 1016.24 252.734 1014.66 253.262C1015.19 251.942 1015.45 251.282 1016.11 249.829C1014.53 248.509 1013.61 248.113 1012.56 246.264C1013.87 247.32 1015.19 247.188 1017.03 247.717C1017.82 246.396 1018.09 245.736 1018.75 244.284Z" fill="white"/>
<path d="M1008.61 255.639C1009.13 257.355 1009.4 258.279 1010.06 259.996C1011.37 260.92 1012.03 261.448 1013.48 262.504C1012.43 262.504 1012.03 262.636 1011.11 262.636C1011.77 264.353 1012.16 265.145 1012.95 266.862C1011.64 265.277 1010.98 264.485 1009.66 262.769C1008.74 262.901 1008.34 262.901 1007.55 263.033C1007.55 261.844 1007.69 261.316 1007.82 260.26C1006.63 258.543 1006.11 257.751 1005.05 256.035C1006.24 256.959 1006.9 257.487 1008.08 258.411C1008.21 257.355 1008.34 256.827 1008.61 255.639Z" fill="white"/>
<path d="M1032.97 262.372C1033.63 263.825 1034.02 264.617 1034.68 265.937C1036.65 265.937 1037.58 266.069 1039.42 265.937C1037.97 266.861 1037.18 267.258 1035.73 268.05C1036.39 269.502 1036.79 270.162 1037.58 271.615C1036 270.69 1035.21 270.294 1033.49 269.37C1032.05 270.162 1031.39 270.558 1030.07 271.219C1030.47 269.898 1030.6 269.238 1030.99 267.786C1029.41 266.861 1028.49 266.333 1026.91 265.277C1028.75 265.541 1029.81 265.541 1031.65 265.673C1032.18 264.485 1032.44 263.825 1032.97 262.372Z" fill="white"/>
<path d="M1003.47 265.409C1004.39 267.258 1004.92 268.05 1005.84 269.766C1007.03 270.559 1007.55 270.955 1008.74 271.747C1008.21 272.011 1007.95 272.143 1007.55 272.407C1008.61 274.123 1009.27 274.916 1010.45 276.5C1009 275.048 1008.34 274.388 1007.03 272.803C1006.63 273.067 1006.5 273.331 1006.24 273.727C1005.58 272.407 1005.32 271.747 1004.92 270.426C1003.6 268.842 1002.95 267.918 1001.63 266.201C1002.68 267.126 1003.21 267.654 1004.39 268.446C1003.87 267.39 1003.74 266.73 1003.47 265.409Z" fill="white"/>
<path d="M1022.3 275.048C1023.36 276.368 1023.88 277.16 1024.94 278.481C1026.65 278.877 1027.44 279.009 1029.15 279.273C1028.1 279.801 1027.57 280.065 1026.52 280.593C1027.57 281.913 1028.1 282.574 1029.28 283.894C1027.7 282.838 1026.78 282.31 1025.07 281.253C1024.15 281.649 1023.75 281.781 1022.83 281.913C1022.57 280.989 1022.57 280.593 1022.43 279.537C1020.72 278.348 1019.67 277.952 1018.09 276.632C1019.54 277.424 1020.59 277.556 1022.3 277.952C1022.17 276.764 1022.17 276.236 1022.3 275.048Z" fill="white"/>
<path d="M993.466 248.113C994.519 250.225 995.046 251.149 996.231 253.13C995.572 251.149 995.309 250.225 994.651 248.245C995.441 248.245 995.836 248.377 996.626 248.377C995.572 247.188 994.914 246.528 993.861 245.208C993.334 243.227 993.202 242.303 992.807 240.323C992.544 241.115 992.412 241.643 992.281 242.435C992.412 244.284 992.544 246.132 992.807 247.981C993.071 247.981 993.202 248.113 993.466 248.113Z" fill="white"/>
<path d="M1046.53 363.511L1053.77 360.474L1053.11 348.195L1045.08 353.212L1046.53 363.511Z" fill="#683C11"/>
<path d="M1061.94 362.983L1053.25 359.286L1053.11 348.195L1063.52 354.136L1061.94 362.983Z" fill="#936037"/>
<path d="M1054.3 368L1046.53 363.511L1045.08 352.948L1055.48 359.022L1054.3 368Z" fill="#936037"/>
<path d="M1054.3 368L1062.2 363.247L1063.52 354.136L1055.48 359.022L1054.3 368Z" fill="#683C11"/>
<path d="M1036.39 326.145L1045.08 353.212L1045.61 353.344L1037.44 327.597L1036.39 326.145Z" fill="#2B2B2B"/>
<path d="M1064.57 324.429C1064.44 324.561 1064.17 325.617 1064.17 325.617L1055.62 358.89L1056.14 358.494L1064.04 329.446L1064.57 325.881C1064.44 325.881 1064.7 324.561 1064.57 324.429Z" fill="#2B2B2B"/>
<path d="M1049.43 334.331C1048.9 334.331 1048.51 334.331 1047.98 334.331C1043.11 333.935 1039.02 331.294 1036.39 326.673L1036 325.353C1038.63 329.71 1043.37 333.143 1048.11 333.539C1053.51 334.067 1059.17 331.294 1063.91 325.749L1064.17 325.353L1064.44 325.749C1067.47 331.03 1070.49 332.351 1072.21 331.822C1073.92 331.294 1074.84 328.918 1074.45 325.749L1075.1 325.089C1075.5 328.654 1074.45 331.822 1072.47 332.483C1070.49 333.143 1067.33 331.822 1064.17 326.541C1059.7 331.69 1054.56 334.331 1049.43 334.331Z" fill="#2B2B2B"/>
<g style="mix-blend-mode:multiply" opacity="0.47">
<path d="M1060.75 292.08C1026.25 292.08 997.679 266.597 992.543 233.457C992.412 234.909 992.28 236.362 992.148 237.946C992.017 242.435 992.412 245.604 992.543 247.188C992.675 247.717 992.807 248.245 992.938 248.773C993.992 254.978 996.099 261.184 999.522 266.994C999.654 267.258 999.785 267.39 999.785 267.654C1000.05 268.05 1000.31 268.446 1000.58 268.842C1000.71 269.106 1000.84 269.238 1000.97 269.502L1009 282.045H1009.13C1009.27 282.178 1009.4 282.442 1009.53 282.574C1009.27 282.574 1009 282.574 1009 282.574L1017.69 295.909H1017.96L1024.8 306.736L1030.99 317.299C1030.99 317.299 1030.99 317.299 1031.12 317.299L1035.86 325.617L1036.13 326.145C1037.71 331.294 1045.61 335.255 1055.22 335.255C1064.17 335.255 1071.68 331.823 1073.92 327.069H1074.05L1079.32 316.903H1079.19L1085.64 306.604H1085.24C1085.37 306.34 1085.51 306.076 1085.64 305.812L1091.83 295.513C1091.96 295.249 1092.22 294.985 1092.35 294.589L1093.41 292.872L1098.81 284.686C1099.73 283.762 1100.52 282.838 1101.18 281.781H1101.31L1105.26 275.576C1093.14 285.874 1077.61 292.08 1060.75 292.08Z" fill="#706F6F" fill-opacity="0.5"/>
</g>
<g style="mix-blend-mode:multiply" opacity="0.56">
<path d="M1084.58 308.189C1078 310.169 1071.15 311.225 1064.04 311.225C1045.48 311.225 1028.62 304.227 1015.85 292.74L1017.83 295.777H1018.09L1024.94 306.604L1031.12 317.167C1031.12 317.167 1031.12 317.167 1031.26 317.167L1036 325.485L1036.26 326.013C1037.84 331.163 1045.74 335.124 1055.35 335.124C1064.31 335.124 1071.81 331.691 1074.05 326.937H1074.18L1079.45 316.771H1079.32L1084.58 308.189Z" fill="#706F6F" fill-opacity="0.5"/>
</g>
</svg>
