<svg viewBox="0 0 1920 652" fill="none" xmlns="http://www.w3.org/2000/svg">

<rect width="291.025" height="389.899" transform="matrix(0.866025 -0.5 0.866025 0.5 685 439.64)" fill="#08799C"/>
<rect width="291.025" height="389.899" transform="matrix(0.866025 -0.5 0.866025 0.5 685 439.64)" fill="#08799C"/>
<rect width="291.025" height="389.899" transform="matrix(0.866025 -0.5 0.866025 0.5 685 439.64)" fill="#08799C"/>
<rect width="291.025" height="389.899" transform="matrix(0.866025 -0.5 0.866025 0.5 685 439.64)" fill="#08799C"/>
<rect width="96.9016" height="364.979" transform="matrix(0.866025 -0.5 0.866025 0.5 1075 316.185)" fill="#08799C"/>
<rect width="96.9016" height="364.979" transform="matrix(0.866025 -0.5 0.866025 0.5 1075 316.185)" fill="#08799C"/>
<rect width="96.9016" height="364.979" transform="matrix(0.866025 -0.5 0.866025 0.5 1075 316.185)" fill="#08799C"/>
<rect width="96.9016" height="364.979" transform="matrix(0.866025 -0.5 0.866025 0.5 1075 316.185)" fill="#08799C"/>
</svg>
