<svg viewBox="0 0 28 28" fill="none" xmlns="http://www.w3.org/2000/svg">
<rect width="28" height="28" rx="2" fill="#0AA1D0"/>
<path d="M23.4052 13.1392C23.4052 17.7127 19.6687 21.4204 15.0586 21.4204C13.5956 21.4204 12.2213 21.0462 11.025 20.3909L6.4043 21.8583L7.91052 17.4139C7.15103 16.1666 6.71364 14.7019 6.71364 13.1386C6.71419 8.56505 10.4495 4.85742 15.0597 4.85742C19.6693 4.85853 23.4052 8.56561 23.4052 13.1392ZM15.058 6.17793C11.1891 6.17793 8.04191 9.30126 8.04191 13.1408C8.04191 14.6642 8.53862 16.0746 9.3785 17.2221L8.50259 19.8071L11.1979 18.9506C12.3067 19.678 13.6333 20.1015 15.058 20.1015C18.927 20.1015 22.0753 16.9787 22.0753 13.1392C22.0764 9.30126 18.9275 6.17793 15.058 6.17793ZM19.2735 15.0468C19.2214 14.963 19.085 14.912 18.881 14.81C18.6775 14.708 17.6702 14.2174 17.4834 14.1509C17.2949 14.0827 17.1585 14.0483 17.0222 14.2518C16.8874 14.4552 16.495 14.912 16.3747 15.0484C16.2555 15.1842 16.1363 15.2014 15.9317 15.1011C15.7272 14.998 15.0674 14.7851 14.2858 14.0938C13.6776 13.5549 13.2669 12.8914 13.1482 12.6879C13.0279 12.485 13.136 12.3752 13.2375 12.2743C13.3289 12.1829 13.442 12.0371 13.5446 11.9179C13.6472 11.7998 13.681 11.7161 13.7492 11.5803C13.8162 11.4445 13.7824 11.3264 13.732 11.2238C13.681 11.1218 13.2724 10.1239 13.1011 9.71759C12.9309 9.31179 12.7607 9.37887 12.641 9.37887C12.5218 9.37887 12.3854 9.36224 12.249 9.36224C12.1127 9.36224 11.8909 9.41158 11.7041 9.61503C11.5173 9.81849 10.9884 10.3091 10.9884 11.3081C10.9884 12.3082 11.7207 13.2722 11.8233 13.4075C11.9264 13.5422 13.2391 15.6593 15.3186 16.472C17.3991 17.2842 17.3991 17.0131 17.7739 16.9787C18.1498 16.9444 18.9846 16.4881 19.1543 16.0147C19.325 15.539 19.325 15.1316 19.2735 15.0468Z" fill="white"/>
</svg>
