<svg viewBox="0 0 28 28" fill="none" xmlns="http://www.w3.org/2000/svg">
<rect width="28" height="28" rx="2" fill="#0AA1D0"/>
<path d="M22.8553 9.02552L22.8498 9.0034C22.4025 7.19523 20.3861 5.25496 18.5343 4.8513L18.5134 4.847C15.5182 4.27561 12.4812 4.27561 9.48665 4.847L9.46514 4.8513C7.61396 5.25496 5.59751 7.19523 5.14961 9.0034L5.1447 9.02552C4.59174 11.5507 4.59174 14.1115 5.1447 16.6367L5.14961 16.6588C5.5784 18.3898 7.4447 20.2409 9.22737 20.75V22.7684C9.22737 23.4989 10.1176 23.8577 10.6239 23.3306L12.6689 21.2048C13.1125 21.2297 13.5562 21.2435 14 21.2435C15.5077 21.2435 17.0161 21.1009 18.5134 20.8153L18.5343 20.811C20.3861 20.4073 22.4025 18.467 22.8498 16.6589L22.8553 16.6367C23.4083 14.1115 23.4083 11.5507 22.8553 9.02552ZM21.237 16.2705C20.9384 17.4501 19.4073 18.9167 18.1908 19.1877C16.5982 19.4905 14.9931 19.6199 13.3895 19.5755C13.3576 19.5747 13.3269 19.587 13.3047 19.6099C13.0771 19.8435 11.8115 21.1427 11.8115 21.1427L10.2233 22.7727C10.1072 22.8937 9.90321 22.8114 9.90321 22.6443V19.3006C9.90321 19.2453 9.86376 19.1984 9.80951 19.1878C9.80921 19.1877 9.8089 19.1877 9.80859 19.1876C8.59208 18.9166 7.06162 17.4501 6.76241 16.2704C6.26475 13.9879 6.26475 11.6741 6.76241 9.39164C7.06162 8.21199 8.59208 6.74543 9.80859 6.47448C12.59 5.94548 15.4101 5.94548 18.1908 6.47448C19.4079 6.74543 20.9384 8.21199 21.237 9.39164C21.7352 11.6742 21.7352 13.988 21.237 16.2705Z" fill="white"/>
<path d="M16.6465 17.8142C16.4594 17.7575 16.2812 17.7193 16.1157 17.6506C14.4005 16.939 12.822 16.021 11.5717 14.6137C10.8606 13.8135 10.3041 12.91 9.83364 11.9539C9.61056 11.5004 9.42255 11.0293 9.23092 10.5611C9.05618 10.1343 9.31356 9.69325 9.58457 9.37161C9.83887 9.06975 10.1661 8.83874 10.5205 8.66849C10.7971 8.5356 11.0699 8.61221 11.2719 8.84667C11.7087 9.35354 12.1098 9.88635 12.4346 10.4739C12.6344 10.8353 12.5796 11.277 12.2176 11.523C12.1296 11.5828 12.0494 11.6529 11.9674 11.7205C11.8956 11.7796 11.8279 11.8394 11.7786 11.9195C11.6886 12.0661 11.6843 12.239 11.7423 12.3984C12.1887 13.6252 12.9411 14.5792 14.176 15.093C14.3736 15.1752 14.572 15.2709 14.7996 15.2444C15.1809 15.1998 15.3043 14.7817 15.5714 14.5632C15.8326 14.3497 16.1662 14.3469 16.4475 14.5249C16.7288 14.7029 17.0016 14.8941 17.2726 15.0872C17.5387 15.2768 17.8037 15.4623 18.0491 15.6785C18.2851 15.8863 18.3664 16.159 18.2335 16.4411C17.9902 16.9576 17.6362 17.3874 17.1255 17.6617C16.9813 17.7391 16.8091 17.7642 16.6465 17.8142C16.4594 17.7574 16.8091 17.7642 16.6465 17.8142Z" fill="white"/>
<path d="M14.0046 8.07759C16.248 8.14045 18.0907 9.62932 18.4856 11.8473C18.5528 12.2252 18.5768 12.6116 18.6067 12.9952C18.6193 13.1565 18.528 13.3098 18.3538 13.3119C18.174 13.314 18.0931 13.1636 18.0814 13.0023C18.0583 12.6831 18.0423 12.3624 17.9983 12.0458C17.766 10.3746 16.4334 8.99194 14.7699 8.69525C14.5196 8.65058 14.2634 8.63885 14.0099 8.61224C13.8496 8.59541 13.6396 8.5857 13.6041 8.38645C13.5743 8.2194 13.7153 8.08638 13.8744 8.07784C13.9176 8.07544 13.9611 8.07741 14.0046 8.07759C16.248 8.14045 13.9611 8.07741 14.0046 8.07759Z" fill="white"/>
<path d="M17.414 12.497C17.4103 12.525 17.4084 12.5909 17.392 12.653C17.3324 12.8782 16.991 12.9064 16.9123 12.6791C16.889 12.6116 16.8855 12.5349 16.8854 12.4622C16.8846 11.9871 16.7813 11.5124 16.5417 11.099C16.2954 10.674 15.9191 10.3168 15.4777 10.1007C15.2108 9.97 14.9222 9.88878 14.6296 9.84037C14.5018 9.81923 14.3726 9.80639 14.2441 9.78851C14.0884 9.76688 14.0053 9.66766 14.0127 9.51424C14.0195 9.37047 14.1246 9.26707 14.2813 9.27592C14.7961 9.30516 15.2934 9.41643 15.7512 9.65881C16.682 10.1517 17.2137 10.9298 17.3689 11.9688C17.3759 12.0158 17.3872 12.0625 17.3907 12.1097C17.3995 12.2264 17.4051 12.3432 17.414 12.497C17.4103 12.525 17.4051 12.3432 17.414 12.497Z" fill="white"/>
<path d="M16.0186 12.4432C15.8309 12.4465 15.7305 12.3426 15.7111 12.1705C15.6977 12.0506 15.687 11.929 15.6584 11.8122C15.602 11.5823 15.4798 11.3692 15.2864 11.2284C15.1951 11.1618 15.0916 11.1133 14.9832 11.0821C14.8456 11.0423 14.7026 11.0533 14.5652 11.0196C14.416 10.983 14.3335 10.8622 14.357 10.7223C14.3783 10.5949 14.5022 10.4955 14.6414 10.5056C15.5112 10.5684 16.1328 11.0181 16.2216 12.042C16.2278 12.1143 16.2352 12.1906 16.2192 12.2598C16.1917 12.3781 16.1041 12.4374 16.0186 12.4432C15.8309 12.4465 16.1041 12.4374 16.0186 12.4432Z" fill="white"/>
</svg>
