<svg  viewBox="0 0 28 28" fill="none" xmlns="http://www.w3.org/2000/svg">
<rect width="28" height="28" rx="2" fill="#0AA1D0"/>
<path d="M23.1186 15.4387C22.8181 15.0249 22.6789 14.5196 22.6794 14.0089C22.6795 14.0059 22.6795 14.003 22.6795 14C22.6795 9.45174 18.978 5.76465 14.412 5.76465C13.4132 5.76465 12.4561 5.94173 11.5698 6.26536C11.0903 6.44042 10.5651 6.47407 10.0735 6.33614C9.63931 6.2143 9.17548 6.16291 8.69497 6.19585C6.67652 6.33421 5.05156 7.98199 4.94696 9.99466C4.89703 10.9553 5.18625 11.8465 5.70535 12.5612C6.00587 12.975 6.14514 13.4803 6.14452 13.991C6.14452 13.9939 6.14452 13.9969 6.14452 13.9999C6.14452 18.5481 9.84595 22.2352 14.412 22.2352C15.4109 22.2352 16.368 22.0582 17.2542 21.7345C17.7337 21.5595 18.2589 21.5258 18.7505 21.6638C19.1847 21.7856 19.6485 21.837 20.129 21.804C22.1475 21.6657 23.7724 20.0179 23.877 18.0053C23.927 17.0447 23.6377 16.1534 23.1186 15.4387ZM14.7147 12.5235C16.3817 12.9184 18.9007 13.5151 18.9007 16.2791C18.9007 17.6407 18.2276 18.6794 17.0052 19.2038C16.1329 19.578 15.1457 19.6285 14.295 19.6285C11.6807 19.6285 10.0296 17.6037 9.96056 17.5175C9.53245 16.9826 9.62056 16.2032 10.1576 15.7767C10.6944 15.3501 11.4769 15.4381 11.9051 15.9728C11.9089 15.9774 12.8963 17.107 14.295 17.1512C15.9792 17.2044 16.364 16.7053 16.4137 16.2792C16.4745 15.7588 16.0098 15.3768 14.1391 14.9337C12.5536 14.558 10.1572 13.9904 10.1572 11.4448C10.1572 10.6521 10.4808 8.06566 14.6459 8.06566C17.2758 8.06566 18.8281 10.1282 18.893 10.216C19.2997 10.7672 19.1809 11.5426 18.6276 11.9477C18.0766 12.3511 17.3032 12.2357 16.8949 11.6911C16.8656 11.6536 15.977 10.6689 14.6459 10.543C13.6387 10.4477 12.6442 10.8095 12.6442 11.3439C12.6442 11.9102 12.9298 12.1007 14.7147 12.5235Z" fill="white"/>
</svg>
