<svg viewBox="0 0 41 41" fill="none" xmlns="http://www.w3.org/2000/svg">

<path d="M36.5442 3.56396H25.8482C25.3562 3.56396 24.9568 3.96331 24.9568 4.45533C24.9568 4.94734 25.3562 5.34669 25.8482 5.34669H36.5442C37.0362 5.34669 37.4356 4.94734 37.4356 4.45533C37.4356 3.96331 37.0362 3.56396 36.5442 3.56396Z" fill="white"/>
<path d="M37.1752 3.82607L33.6099 0.260715C33.2623 -0.0869049 32.6971 -0.0869049 32.3495 0.260715C32.0019 0.608335 32.0019 1.17347 32.3495 1.52109L35.2838 4.45538L32.3478 7.39143C32.0001 7.73905 32.0001 8.30419 32.3478 8.65181C32.5225 8.8247 32.7506 8.9121 32.9788 8.9121C33.207 8.9121 33.4352 8.82478 33.6099 8.65181L37.1752 5.08645C37.5229 4.73874 37.5229 4.17369 37.1752 3.82607Z" fill="white"/>
<path d="M13.3696 3.56396H2.67359C2.18157 3.56396 1.78223 3.96331 1.78223 4.45533C1.78223 4.94734 2.18157 5.34669 2.67359 5.34669H13.3696C13.8616 5.34669 14.2609 4.94734 14.2609 4.45533C14.2609 3.96331 13.8616 3.56396 13.3696 3.56396Z" fill="white"/>
<path d="M3.93387 4.45538L6.86816 1.52109C7.21578 1.17347 7.21578 0.608335 6.86816 0.260715C6.52054 -0.086905 5.95541 -0.086905 5.60779 0.260715L2.04251 3.82616C1.69489 4.17378 1.69489 4.73891 2.04251 5.08653L5.60787 8.65189C5.7826 8.82478 6.01073 8.91219 6.23894 8.91219C6.46715 8.91219 6.69527 8.82486 6.86825 8.65014C7.21586 8.30252 7.21586 7.73738 6.86825 7.38976L3.93387 4.45538Z" fill="white"/>
<path d="M35.6529 17.8253C34.9202 17.8253 34.2374 18.0482 33.6705 18.4279C33.1821 17.041 31.8576 16.0427 30.3049 16.0427C29.5722 16.0427 28.8894 16.2655 28.3225 16.6452C27.8341 15.2584 26.5096 14.26 24.9569 14.26C24.308 14.26 23.6984 14.4348 23.1742 14.7396V8.91204C23.1742 6.94573 21.5752 5.34668 19.6089 5.34668C17.6426 5.34668 16.0435 6.94573 16.0435 8.91204V24.0647L12.9453 21.7419C11.1092 20.3639 8.49575 20.5475 6.8682 22.1733C5.82534 23.2162 5.82534 24.9115 6.8682 25.9543L19.5626 38.6505C21.0778 40.1657 23.094 41 25.2368 41H29.4136C34.8187 41 39.2182 36.6022 39.2182 31.1954V21.3907C39.2182 19.4244 37.6192 17.8253 35.6529 17.8253ZM37.4356 31.1953C37.4356 35.6181 33.8364 39.2173 29.4136 39.2173H25.2368C23.5682 39.2173 22.0013 38.5684 20.823 37.39L8.12858 24.694C7.78096 24.3464 7.78096 23.7812 8.12858 23.4336C8.68118 22.8828 9.4192 22.5993 10.1608 22.5993C10.7634 22.5993 11.3695 22.7865 11.8775 23.168L16.4002 26.5603C16.6712 26.7636 17.0348 26.7939 17.3343 26.6442C17.6356 26.4927 17.8263 26.1842 17.8263 25.8473V8.91204C17.8263 7.92976 18.6249 7.1294 19.609 7.1294C20.593 7.1294 21.3916 7.92985 21.3916 8.91204V22.282C21.3916 22.774 21.791 23.1734 22.283 23.1734C22.775 23.1734 23.1743 22.774 23.1743 22.282V17.8254C23.1743 16.8431 23.9729 16.0428 24.957 16.0428C25.941 16.0428 26.7396 16.8432 26.7396 17.8254V22.282C26.7396 22.774 27.139 23.1734 27.631 23.1734C28.123 23.1734 28.5223 22.774 28.5223 22.282V19.608C28.5223 18.6258 29.3209 17.8254 30.305 17.8254C31.289 17.8254 32.0876 18.6258 32.0876 19.608V22.282C32.0876 22.774 32.4869 23.1734 32.979 23.1734C33.471 23.1734 33.8703 22.774 33.8703 22.282V21.3907C33.8703 20.4084 34.6689 19.608 35.653 19.608C36.637 19.608 37.4356 20.4085 37.4356 21.3907V31.1953Z" fill="white"/>

</svg>
