<svg viewBox="0 0 100 144" fill="none" xmlns="http://www.w3.org/2000/svg">
<path d="M47.4581 100.388L48.8167 128.367H48.3987L47.2491 106.152L47.4581 100.388Z" fill="#2B2B2B"/>
<path d="M67.4183 103.951L56.3409 132.873L56.7589 132.663L66.7913 107.304L67.4183 103.951Z" fill="#2B2B2B"/>
<path d="M69.2994 103.113H61.5661C58.7445 101.331 54.6689 100.179 50.1752 100.179C45.6815 100.179 41.5014 101.331 38.7843 103.113H30.9465L34.8131 109.924L35.0221 110.343C36.2762 114.43 42.5464 117.574 50.1752 117.574C57.2815 117.574 63.2382 114.849 65.0148 111.077H65.1193L69.2994 103.113Z" fill="#E6332A"/>
<path d="M74.3156 94.9391H67.3139C63.9698 91.4811 57.4905 89.1757 50.1752 89.1757C42.86 89.1757 36.3807 91.4811 33.0366 94.9391H26.2438L31.1555 103.322C31.1555 103.322 31.26 103.322 31.469 103.322C33.7681 108.038 41.3969 111.496 50.3842 111.496C59.2671 111.496 66.7914 108.143 69.1949 103.532L74.3156 94.9391Z" fill="#F7F7F7"/>
<path d="M80.4813 84.1458L71.076 84.4602C66.6868 80.7926 58.9535 78.3824 50.0707 78.3824C40.2473 78.3824 31.678 81.4213 27.7068 85.8225L20.3916 86.032L26.0348 95.0439H26.1393C29.0654 100.598 38.6798 104.685 50.0707 104.685C61.8796 104.685 71.8075 100.283 74.3156 94.52L80.4813 84.1458Z" fill="#E6332A"/>
<path d="M86.5426 74.9244C86.5426 74.9244 82.9895 74.9244 77.4508 75.0292C72.3301 70.3136 61.9842 67.0652 49.9662 67.2747C38.0528 67.3795 27.7069 70.8376 22.6907 75.6579C17.152 75.7627 13.4943 75.7627 13.5988 75.7627L20.4961 86.3464H20.7051C24.4673 92.4242 36.2762 96.8253 50.2797 96.6158C65.0148 96.4062 77.1372 91.3763 80.0634 84.6698L86.5426 74.9244Z" fill="#F7F7F7"/>
<path d="M94.1714 63.7119C94.1714 63.7119 91.3498 63.7119 86.6471 63.7119C81.6309 56.0623 67.2093 50.5084 50.0707 50.5084C32.932 50.5084 18.3015 56.0623 13.4943 63.8167C9.00063 63.8167 6.28353 63.8167 6.28353 63.9215L13.5988 75.3435H13.7033C18.7195 82.9931 33.141 88.547 50.1752 88.547C67.2093 88.547 81.6309 82.9931 86.6471 75.3435H86.7516L94.1714 63.7119Z" fill="#E6332A"/>
<path d="M99.3965 47.6791H89.1551C81.3173 41.3918 66.7913 37.0954 50.0707 37.0954C33.4545 37.0954 18.9285 41.287 10.9862 47.6791H0.431286C1.58083 53.3377 3.5664 58.7868 6.28351 63.9215C6.49252 64.2358 6.70152 64.5502 6.91053 64.8646C12.6582 73.5621 29.7969 79.8494 50.1752 79.8494C71.3895 79.8494 89.2596 72.9333 94.0668 63.6071H94.1713C96.7839 58.8916 98.3515 53.4425 99.3965 47.6791Z" fill="#F7F7F7"/>
<path d="M98.456 26.7213C98.456 26.7213 86.6471 26.7213 71.285 26.6165C64.8058 25.2542 57.595 24.4159 49.9662 24.4159C42.4419 24.4159 35.3356 25.1494 28.9609 26.5117C16.6294 26.5117 6.38805 26.5117 2.52141 26.6165C-1.55425 39.296 0.535832 48.3079 0.535832 48.3079C0.535832 48.3079 0.535832 48.3079 0.640336 48.3079C2.3124 60.0443 23.7357 69.3705 49.9662 69.3705C76.9282 69.3705 98.7696 59.5203 99.2921 47.26C101.278 34.9996 98.456 26.7213 98.456 26.7213Z" fill="#E6332A"/>
<path d="M6.70153 19.0716C6.70153 19.0716 19.7645 0.209564 49.1301 0.209564C75.1516 0.209564 86.7516 11.7364 93.2308 18.5477C112.46 38.772 84.4525 58.0533 50.1752 57.6341C16.0024 57.215 -9.60109 42.6492 6.70153 19.0716Z" fill="white"/>
<path d="M79.8543 7.44002C72.8525 3.35324 26.2437 5.23945 24.9897 5.23945C23.6311 5.23945 5.55197 14.2513 4.50693 25.1494C4.50693 35.4188 24.9897 43.8019 50.2797 43.8019C75.5696 43.8019 96.0524 35.4188 96.0524 25.1494C95.9479 19.0716 85.4975 10.6885 79.8543 7.44002Z" fill="#E6332A"/>
<path d="M50.5932 30.3889C69.5818 30.3889 84.975 23.633 84.975 15.2992C84.975 6.96544 69.5818 0.209564 50.5932 0.209564C31.6047 0.209564 16.2114 6.96544 16.2114 15.2992C16.2114 23.633 31.6047 30.3889 50.5932 30.3889Z" fill="white"/>
<path d="M49.2346 14.7753C49.2346 14.7753 40.0383 8.69754 41.2923 1.15271C28.9608 2.41018 14.4348 7.64965 6.7015 19.0717C-1.03179 30.4937 -2.70385 49.1462 6.38799 63.9215C14.7483 77.8585 43.0689 80.0591 43.2779 80.0591C37.2166 59.7299 33.8725 31.332 49.2346 14.7753Z" fill="#2174A7"/>
<path d="M50.1751 14.8801C59.5251 14.8801 67.1048 11.5491 67.1048 7.44004C67.1048 3.33102 59.5251 0 50.1751 0C40.8252 0 33.2455 3.33102 33.2455 7.44004C33.2455 11.5491 40.8252 14.8801 50.1751 14.8801Z" fill="#E6332A"/>
<path d="M18.7196 11.946C18.197 12.9938 17.988 13.6226 17.57 14.7753C18.0925 15.2992 18.3015 15.5088 18.9286 15.9279C18.0925 16.2423 17.779 16.3471 16.943 16.6615C16.525 17.8142 16.316 18.4429 16.0024 19.7004C15.8979 18.6525 15.7934 18.0237 15.7934 16.9758C15.0619 17.1854 14.6439 17.1854 13.8079 17.2902C14.5394 16.5567 14.9574 16.1375 15.6889 15.2992C15.6889 14.2513 15.5844 13.7274 15.5844 12.6795C16.107 13.3082 16.316 13.5178 16.8385 14.0417C17.57 13.2034 17.988 12.7843 18.7196 11.946Z" fill="white"/>
<path d="M28.5429 17.1854C28.3339 18.5477 28.3339 19.1764 28.3339 20.5387C29.4835 20.9578 30.1105 21.0626 31.3645 21.377C30.215 21.9009 29.588 22.1105 28.3339 22.5297C28.3339 23.8919 28.3339 24.5207 28.4384 25.8829C27.6024 24.835 27.1844 24.3111 26.3483 23.2632C25.0943 23.6824 24.4673 23.8919 23.2132 24.3111C23.9447 23.1584 24.3628 22.6345 25.1988 21.5866C24.4673 20.4339 24.1538 19.9099 23.6312 18.7573C24.7808 19.2812 25.3033 19.4908 26.4528 19.9099C27.2889 18.8621 27.7069 18.3381 28.5429 17.1854Z" fill="white"/>
<path d="M5.96999 26.4069C6.179 25.0447 6.28351 24.4159 6.59702 23.0537C7.43305 23.1585 7.85107 23.2633 8.6871 23.2633C8.06007 22.4249 7.74656 22.0058 7.11954 21.0627C7.43305 19.8052 7.64206 19.1765 7.95557 17.919C7.53755 18.2334 7.22404 18.5477 6.91053 18.8621C6.80603 18.9669 6.80603 19.0717 6.70152 19.1765C5.96999 20.3292 5.23847 21.4818 4.61144 22.7393C4.82045 22.8441 5.02946 22.8441 5.34297 22.9489C5.55198 24.3111 5.65648 24.9399 5.96999 26.4069Z" fill="white"/>
<path d="M16.5249 27.874C16.3159 29.2362 16.3159 29.9698 16.2114 31.332C16.9429 31.9608 17.3609 32.2751 18.1969 32.9039C17.3609 33.1134 16.9429 33.2182 16.1069 33.4278C16.1069 34.8949 16.1069 35.5236 16.1069 36.9907C15.5843 35.6284 15.2708 34.9997 14.8528 33.7422C14.0168 33.9518 13.5988 34.0566 12.8672 34.1613C13.3898 33.2182 13.7033 32.6943 14.2258 31.7512C13.8078 30.4937 13.5988 29.865 13.3898 28.6075C14.0168 29.2362 14.4348 29.5506 15.1663 30.2841C15.5843 29.341 15.8978 28.9219 16.5249 27.874Z" fill="white"/>
<path d="M33.4546 33.5326C33.7681 34.79 33.8726 35.4188 34.1861 36.6763C35.6491 36.8858 36.3807 36.8858 37.9482 36.9906C36.6942 37.6194 36.0672 37.9337 34.7086 38.5625C35.0221 39.8199 35.2311 40.4487 35.6491 41.6014C34.4996 40.763 33.8726 40.3439 32.723 39.5056C31.469 40.1343 30.7375 40.4487 29.4834 40.9726C30.1104 39.8199 30.3194 39.296 30.9465 38.1433C29.7969 37.2002 29.2744 36.781 28.2294 35.8379C29.6924 36.1523 30.4239 36.2571 31.887 36.4667C32.6185 35.2092 32.8275 34.6853 33.4546 33.5326Z" fill="white"/>
<path d="M7.64205 35.838C7.64205 37.2002 7.64205 37.9338 7.74655 39.4008C8.58258 40.2391 8.89609 40.6583 9.73212 41.3918C9.0006 41.4966 8.58258 41.4966 7.85105 41.4966C7.95556 42.9636 8.06006 43.5924 8.26907 45.0594C7.64205 43.6972 7.32853 42.9636 6.70151 41.6014C5.96998 41.6014 5.55197 41.6014 4.82044 41.6014C5.13395 40.7631 5.34296 40.2391 5.76098 39.4008C5.23846 37.9338 4.92494 37.2002 4.50693 35.7332C5.34296 36.6763 5.65647 37.2002 6.4925 38.0385C6.91052 37.2002 7.11953 36.7811 7.64205 35.838Z" fill="white"/>
<path d="M21.2276 45.4785C21.6456 46.8408 21.8547 47.4695 22.2727 48.727C23.7357 49.0414 24.5718 49.1462 26.0348 49.3557C24.7808 49.8797 24.1537 50.1941 22.8997 50.718C23.3177 51.9755 23.6312 52.6042 24.1537 53.8617C22.8997 52.9186 22.2727 52.4994 21.0186 51.4515C19.7646 51.9755 19.2421 52.1851 17.988 52.6042C18.406 51.5563 18.615 51.0324 19.1376 49.8797C17.8835 48.8318 17.152 48.5174 16.3159 47.0504C17.361 47.8887 18.406 47.7839 19.8691 48.2031C20.4961 47.1552 20.7051 46.6312 21.2276 45.4785Z" fill="white"/>
<path d="M13.1808 54.4904C13.5988 55.8527 13.8078 56.5862 14.3303 57.9485C15.3754 58.682 15.8979 59.1012 17.0474 59.9395C16.2114 59.9395 15.8979 60.0443 15.1663 60.0443C15.6889 61.4065 16.0024 62.0353 16.6294 63.3975C15.5844 62.1401 15.0618 61.5113 14.0168 60.1491C13.2853 60.2539 12.9718 60.2539 12.3447 60.3586C12.3447 59.4155 12.4492 58.9964 12.5538 58.1581C11.6132 56.7958 11.1952 56.1671 10.3592 54.8048C11.2997 55.5383 11.8222 55.9575 12.7628 56.691C12.8673 55.8527 12.9718 55.4336 13.1808 54.4904Z" fill="white"/>
<path d="M32.514 59.8347C33.0366 60.9874 33.3501 61.6161 33.8726 62.664C35.4401 62.664 36.1717 62.7688 37.6347 62.664C36.4852 63.3976 35.8582 63.7119 34.7086 64.3407C35.2311 65.4933 35.5446 66.0173 36.1717 67.17C34.9176 66.4364 34.2906 66.1221 32.9321 65.3886C31.7825 66.0173 31.26 66.3317 30.2149 66.8556C30.5285 65.8077 30.633 65.2838 30.9465 64.1311C29.6924 63.3976 28.9609 62.9784 27.7069 62.1401C29.1699 62.3497 30.0059 62.3497 31.469 62.4544C31.887 61.5113 32.096 60.9874 32.514 59.8347Z" fill="white"/>
<path d="M9.1051 62.2448C9.83663 63.7119 10.2546 64.3406 10.9862 65.7029C11.9267 66.3316 12.3447 66.646 13.2853 67.2747C12.8672 67.4843 12.6582 67.5891 12.3447 67.7987C13.1808 69.1609 13.7033 69.7897 14.6438 71.0471C13.4943 69.8945 12.9717 69.3705 11.9267 68.113C11.6132 68.3226 11.5087 68.5322 11.2997 68.8466C10.7772 67.7987 10.5682 67.2747 10.2546 66.2268C9.2096 64.9694 8.68708 64.2358 7.64204 62.8736C8.47808 63.6071 8.89609 64.0262 9.83663 64.655C9.41861 63.8167 9.31411 63.2927 9.1051 62.2448Z" fill="white"/>
<path d="M24.0492 69.8945C24.8852 70.9423 25.3032 71.5711 26.1392 72.619C27.4978 72.9334 28.1248 73.0381 29.4834 73.2477C28.6473 73.6669 28.2293 73.8765 27.3933 74.2956C28.2293 75.3435 28.6473 75.8675 29.5879 76.9153C28.3338 76.077 27.6023 75.6579 26.2437 74.8196C25.5122 75.1339 25.1987 75.2387 24.4672 75.3435C24.2582 74.61 24.2582 74.2956 24.1537 73.4573C22.7951 72.5142 21.9591 72.1998 20.705 71.1519C21.8546 71.7807 22.6906 71.8855 24.0492 72.1998C23.9446 71.2567 23.9446 70.8376 24.0492 69.8945Z" fill="white"/>
<path d="M1.16289 48.5174C1.99893 50.1941 2.41694 50.9276 3.35748 52.4994C2.83496 50.9276 2.62595 50.1941 2.10343 48.6222C2.73045 48.6222 3.04397 48.727 3.67099 48.727C2.83496 47.7839 2.31244 47.26 1.47641 46.2121C1.05839 44.6402 0.953886 43.9067 0.640374 42.3349C0.431367 42.9636 0.326863 43.3828 0.222359 44.0115C0.326863 45.4785 0.431367 46.9456 0.640374 48.4126C0.849382 48.4126 0.953886 48.5174 1.16289 48.5174Z" fill="white"/>
<path d="M43.2779 140.103L49.0256 137.693L48.5031 127.948L42.1284 131.93L43.2779 140.103Z" fill="#683C11"/>
<path d="M55.5049 139.684L48.6076 136.75L48.5031 127.948L56.7589 132.663L55.5049 139.684Z" fill="#936037"/>
<path d="M49.4436 143.666L43.2779 140.103L42.1284 131.72L50.3842 136.541L49.4436 143.666Z" fill="#936037"/>
<path d="M49.4436 143.666L55.7139 139.894L56.7589 132.663L50.3842 136.54L49.4436 143.666Z" fill="#683C11"/>
<path d="M35.2312 110.448L42.1284 131.93L42.5465 132.035L36.0672 111.601L35.2312 110.448Z" fill="#2B2B2B"/>
<path d="M57.5949 109.086C57.4904 109.19 57.2814 110.029 57.2814 110.029L50.4887 136.436L50.9067 136.121L57.1769 113.068L57.5949 110.238C57.4904 110.238 57.6994 109.19 57.5949 109.086Z" fill="#2B2B2B"/>
<path d="M45.577 116.945C45.159 116.945 44.8455 116.945 44.4275 116.945C40.5608 116.631 37.3212 114.535 35.2311 110.867L34.9176 109.819C37.0077 113.277 40.7698 116.002 44.532 116.316C48.8166 116.735 53.3103 114.535 57.0724 110.134L57.2814 109.819L57.4905 110.134C59.894 114.325 62.2976 115.373 63.6562 114.954C65.0147 114.535 65.7463 112.649 65.4327 110.134L65.9553 109.61C66.2688 112.439 65.4327 114.954 63.8652 115.478C62.2976 116.002 59.7895 114.954 57.2814 110.762C53.7283 114.849 49.6527 116.945 45.577 116.945Z" fill="#2B2B2B"/>
<g style="mix-blend-mode:multiply" opacity="0.47">
<path d="M54.5644 83.4123C27.1844 83.4123 4.50703 63.1879 0.431373 36.8858C0.326869 38.0385 0.222365 39.1912 0.117861 40.4487C0.0133575 44.0115 0.326869 46.5264 0.431373 47.7839C0.535877 48.2031 0.640381 48.6222 0.744885 49.0414C1.58092 53.9665 3.25298 58.8916 5.97008 63.5023C6.07459 63.7119 6.17909 63.8167 6.17909 64.0262C6.3881 64.3406 6.59711 64.655 6.80611 64.9694C6.91062 65.1789 7.01512 65.2837 7.11963 65.4933L13.4944 75.4483H13.5989C13.7034 75.5531 13.8079 75.7627 13.9124 75.8674C13.7034 75.8674 13.4944 75.8674 13.4944 75.8674L20.3916 86.4512H20.6006L26.0348 95.0439L30.9465 103.427C30.9465 103.427 30.9465 103.427 31.051 103.427L34.8132 110.029L35.0222 110.448C36.2762 114.535 42.5465 117.678 50.1753 117.678C57.2815 117.678 63.2382 114.954 65.0148 111.181H65.1193L69.2995 103.113H69.195L74.3157 94.9391H74.0022C74.1067 94.7295 74.2112 94.5199 74.3157 94.3104L79.2274 86.1368C79.3319 85.9272 79.5409 85.7176 79.6454 85.4033L80.4814 84.041L84.7661 77.5441C85.4976 76.8105 86.1246 76.077 86.6471 75.2387H86.7516L89.8868 70.3136C80.2724 78.4872 67.9409 83.4123 54.5644 83.4123Z" fill="#706F6F" fill-opacity="0.5"/>
</g>
<g style="mix-blend-mode:multiply" opacity="0.56">
<path d="M73.4796 96.1966C68.2544 97.7685 62.8202 98.6068 57.177 98.6068C42.4419 98.6068 29.0654 93.0529 18.9285 83.9363L20.4961 86.3464H20.7051L26.1393 94.9391L31.051 103.322C31.051 103.322 31.051 103.322 31.1555 103.322L34.9176 109.924L35.1267 110.343C36.3807 114.43 42.6509 117.574 50.2797 117.574C57.386 117.574 63.3427 114.849 65.1193 111.077H65.2238L69.4039 103.008H69.2994L73.4796 96.1966Z" fill="#706F6F" fill-opacity="0.5"/>
</g>
</svg>
