<svg viewBox="0 0 100 143" fill="none" xmlns="http://www.w3.org/2000/svg">
<path d="M46.898 99.2566L48.0547 127.36H47.7393L46.6877 105.046L46.898 99.2566Z" fill="#2B2B2B"/>
<path d="M41.6405 117.045C41.325 116.94 41.0095 116.834 40.6941 116.624C41.0095 116.834 41.325 116.94 41.6405 117.045Z" fill="#213775"/>
<path d="M39.5375 116.203C38.9066 115.571 38.2757 114.94 37.6448 114.203L35.1211 110.203L38.5911 115.676C39.222 115.992 39.853 116.413 40.589 116.729C40.1684 116.518 39.853 116.308 39.5375 116.203Z" fill="#213775"/>
<path d="M44.1641 117.782C43.8487 117.676 43.5332 117.676 43.2178 117.571C43.5332 117.676 43.8487 117.782 44.1641 117.782Z" fill="#213775"/>
<path d="M42.7972 117.466C42.4817 117.361 42.1663 117.255 41.8508 117.15C42.1663 117.255 42.4817 117.361 42.7972 117.466Z" fill="#213775"/>
<path d="M45.5311 118.097C45.2156 117.992 44.9002 117.992 44.5847 117.887C44.9002 117.992 45.2156 118.097 45.5311 118.097Z" fill="#213775"/>
<path d="M37.5396 1.15784C38.3808 1.05258 39.1168 0.842073 39.9581 0.736816C39.1168 0.842073 38.3808 1.05258 37.5396 1.15784Z" fill="#213775"/>
<path d="M46.898 118.308C46.5826 118.308 46.2671 118.203 45.9517 118.203C46.3723 118.308 46.5826 118.308 46.898 118.308Z" fill="#213775"/>
<path d="M17.0348 46.1021C17.0348 22.9457 22.713 9.05192 30.3892 3.05232C32.7025 2.31553 35.0159 1.684 37.5395 1.15771C16.0884 5.36796 0.210407 20.4196 0.000101896 40.5235C-0.105051 47.8914 1.998 57.3645 5.67834 63.5746L29.6531 101.572C22.9233 87.7835 17.0348 67.4691 17.0348 46.1021Z" fill="#2174A7"/>
<path d="M40.0632 0.736911C40.7993 0.631655 41.5354 0.526399 42.2714 0.421143C41.5354 0.526399 40.7993 0.631655 40.0632 0.736911Z" fill="#213775"/>
<path d="M53.4176 0.105256C52.3661 0 51.4197 0 50.3682 0C51.2094 0 51.9454 0 52.6815 0.105256H53.4176Z" fill="#213775"/>
<path d="M42.5869 0.420961C43.323 0.315705 43.9539 0.315705 44.69 0.210449C44.059 0.315705 43.323 0.315705 42.5869 0.420961Z" fill="#213775"/>
<path d="M45.2156 0.210481C45.8465 0.210481 46.5826 0.105225 47.2135 0.105225C46.5826 0.105225 45.8465 0.105225 45.2156 0.210481Z" fill="#213775"/>
<path d="M64.5637 1.68408C65.6153 1.89459 66.6668 2.21036 67.6132 2.52613C58.0443 6.63112 50.3682 21.0512 50.3682 47.8915C50.3682 73.574 54.5743 102.625 62.3555 113.677L60.9886 115.782L93.1652 65.364C97.4765 59.0487 100 49.1546 100 41.2604C100.21 21.5775 85.1736 6.52586 64.5637 1.68408Z" fill="#E63834"/>
<path d="M59.8317 116.519C59.7266 116.624 59.5163 116.624 59.4111 116.729C59.5163 116.624 59.6214 116.519 59.8317 116.519Z" fill="#213775"/>
<path d="M57.0979 117.571C56.8876 117.676 56.6773 117.676 56.467 117.782C56.7825 117.676 56.9928 117.676 57.0979 117.571Z" fill="#213775"/>
<path d="M58.4647 117.045C58.2544 117.15 58.0441 117.15 57.939 117.255C58.1493 117.255 58.3596 117.15 58.4647 117.045Z" fill="#213775"/>
<path d="M56.8875 0.420993C55.7308 0.315737 54.5742 0.210481 53.4175 0.105225C54.5742 0.210481 55.7308 0.210481 56.8875 0.420993Z" fill="#213775"/>
<path d="M60.6731 0.947266C61.7246 1.15778 62.7762 1.36829 63.8277 1.5788C62.7762 1.26303 61.8298 1.05252 60.6731 0.947266Z" fill="#213775"/>
<path d="M60.6731 0.947423C59.5165 0.736911 58.3598 0.631655 57.2031 0.421143C58.465 0.526399 59.5165 0.736911 60.6731 0.947423Z" fill="#213775"/>
<path d="M48.3703 118.518C48.0548 118.518 47.7394 118.518 47.5291 118.413C47.7394 118.413 48.0548 118.518 48.3703 118.518Z" fill="#213775"/>
<path d="M54.2588 118.203C54.0485 118.203 53.733 118.308 53.5227 118.308C53.8382 118.308 54.0485 118.308 54.2588 118.203Z" fill="#213775"/>
<path d="M52.7866 118.413C52.5763 118.413 52.2608 118.413 52.0505 118.518C52.2608 118.518 52.5763 118.413 52.7866 118.413Z" fill="#213775"/>
<path d="M55.731 117.992C55.5207 117.992 55.3104 118.097 55.1001 118.097C55.3104 118.097 55.5207 117.992 55.731 117.992Z" fill="#213775"/>
<path d="M67.6131 2.42089C63.1967 1.15782 58.3597 0.315768 53.4175 0H52.7866C51.9454 0 51.2093 0 50.3681 0C43.3229 0 36.5931 1.05256 30.4943 3.05243C22.8181 9.05202 17.1399 22.9458 17.1399 46.1022C17.1399 67.4692 22.9233 87.7836 29.7582 101.572L37.6446 114.098C38.2755 114.834 38.9065 115.466 39.5374 116.097C45.3208 119.045 54.9948 119.676 61.0936 115.782L62.4606 113.677C54.6793 102.625 50.4732 73.574 50.4732 47.8915C50.3681 20.946 58.0442 6.63113 67.6131 2.42089Z" fill="white"/>
<path opacity="0.06" d="M53.733 80.3103C28.0758 80.3103 6.51955 63.3641 0.000101895 40.2078C0.000101895 40.313 0.000101895 40.4183 0.000101895 40.5235C-0.105051 47.8915 1.998 57.3645 5.67834 63.5746L38.4859 115.676C44.2693 119.15 54.7845 119.992 60.9885 115.887L93.1652 65.4692C93.7961 64.6272 94.3219 63.5746 94.8476 62.6273C84.6478 73.4687 70.0316 80.3103 53.733 80.3103Z" fill="#706F6F"/>
<path d="M66.9824 103.046L55.626 131.991L56.0466 131.781L66.2464 106.309L66.9824 103.046Z" fill="#2B2B2B"/>
<path d="M50.4733 6.94688C53.8997 6.94688 56.6773 5.95726 56.6773 4.7365C56.6773 3.51574 53.8997 2.52612 50.4733 2.52612C47.0469 2.52612 44.2693 3.51574 44.2693 4.7365C44.2693 5.95726 47.0469 6.94688 50.4733 6.94688Z" fill="white"/>
<path d="M42.4815 139.149L48.2648 136.728L47.8442 126.939L41.4299 130.833L42.4815 139.149Z" fill="#683C11"/>
<path d="M54.7845 138.833L47.8445 135.78V126.939L56.0464 131.781L54.7845 138.833Z" fill="#936037"/>
<path d="M48.6856 142.727L42.4816 139.149L41.325 130.728L49.632 135.57L48.6856 142.727Z" fill="#936037"/>
<path d="M48.6855 142.727L54.9947 138.938L56.0462 131.781L49.6319 135.57L48.6855 142.727Z" fill="#683C11"/>
<path d="M34.5955 109.361L41.4304 130.833L41.7458 130.939L35.4367 110.519L34.5955 109.361Z" fill="#2B2B2B"/>
<path d="M57.7288 104.94L49.6321 135.57L50.0527 135.359L56.467 112.203L57.7288 104.94Z" fill="#2B2B2B"/>
<path opacity="0.24" d="M50.6835 30.6294C69.7899 30.6294 85.2787 23.8435 85.2787 15.4726C85.2787 7.10164 69.7899 0.315674 50.6835 0.315674C31.5772 0.315674 16.0884 7.10164 16.0884 15.4726C16.0884 23.8435 31.5772 30.6294 50.6835 30.6294Z" fill="#F6F6F6"/>
<path opacity="0.24" d="M49.8423 14.9464C59.2503 14.9464 66.877 11.6005 66.877 7.47318C66.877 3.34586 59.2503 0 49.8423 0C40.4343 0 32.8076 3.34586 32.8076 7.47318C32.8076 11.6005 40.4343 14.9464 49.8423 14.9464Z" fill="white"/>
<path opacity="0.2" d="M18.6121 84.0996L38.4859 115.676C44.2693 119.15 54.7845 119.992 60.9885 115.887L76.5511 91.4675C68.8749 102.204 36.3828 103.888 18.6121 84.0996Z" fill="#706F6F"/>
<path d="M45.0053 115.887C44.5847 115.887 44.2693 115.887 43.8487 115.887C39.958 115.466 36.6983 113.466 34.5952 109.782L34.2798 108.729C36.3828 112.308 40.1683 115.045 43.9538 115.361C48.2651 115.782 52.7866 113.571 56.5721 109.256L56.7824 108.94L56.9927 109.256C59.3061 113.571 61.7246 114.519 63.0916 114.098C64.4585 113.677 65.1946 111.782 64.8791 109.256L65.4049 108.729C65.7204 111.571 64.8791 114.098 63.1967 114.624C61.6194 115.15 59.0958 114.098 56.5721 109.782C53.1021 113.782 49.0011 115.887 45.0053 115.887Z" fill="#2B2B2B"/>
</svg>
