<svg viewBox="0 0 100 143" fill="none" xmlns="http://www.w3.org/2000/svg">
<path d="M46.898 99.1587L48.0547 127.234H47.7393L46.6877 104.942L46.898 99.1587Z" fill="#2B2B2B"/>
<path d="M50.3684 8.56213e-06C22.7133 -0.210296 0.210651 16.5089 0.000346036 40.4837C-0.104806 47.8444 1.99824 57.3081 5.67858 63.5121L38.4861 115.563C44.1644 118.927 54.5745 119.874 60.9888 115.668L93.1654 65.2997C97.4767 58.9905 100 49.1062 100 41.2198C100.211 17.245 78.0235 0.210314 50.3684 8.56213e-06Z" fill="#F6F6F6"/>
<path d="M49.2116 92.2186C59.3165 92.2186 67.5081 85.1568 67.5081 76.4457C67.5081 67.7346 59.3165 60.6729 49.2116 60.6729C39.1067 60.6729 30.915 67.7346 30.915 76.4457C30.915 85.1568 39.1067 92.2186 49.2116 92.2186Z" fill="#E6332A"/>
<g style="mix-blend-mode:multiply" opacity="0.42">
<path d="M53.733 80.2313C28.0758 80.2313 6.51956 63.3018 0.000101896 40.1682C0.000101896 40.2734 0.000101896 40.3785 0.000101896 40.4837C-0.105051 47.8443 1.998 57.3081 5.67834 63.5121L38.4859 115.563C44.2693 119.033 54.7845 119.874 60.9885 115.773L93.1652 65.4048C93.7961 64.5636 94.3219 63.5121 94.8476 62.5657C84.6478 73.3964 70.0316 80.2313 53.733 80.2313Z" fill="#DADADA"/>
</g>
<path d="M66.9822 102.944L55.6257 131.861L56.0463 131.651L66.2461 106.204L66.9822 102.944Z" fill="#2B2B2B"/>
<path d="M50.4733 6.94009C53.8997 6.94009 56.6773 5.95144 56.6773 4.73188C56.6773 3.51233 53.8997 2.52368 50.4733 2.52368C47.0469 2.52368 44.2693 3.51233 44.2693 4.73188C44.2693 5.95144 47.0469 6.94009 50.4733 6.94009Z" fill="white"/>
<path d="M42.4817 139.011L48.2651 136.593L47.8445 126.814L41.4302 130.704L42.4817 139.011Z" fill="#683C11"/>
<path d="M54.7845 138.696L47.8445 135.647V126.814L56.0464 131.651L54.7845 138.696Z" fill="#936037"/>
<path d="M48.6856 142.587L42.4816 139.011L41.325 130.599L49.632 135.436L48.6856 142.587Z" fill="#936037"/>
<path d="M48.6855 142.587L54.9947 138.801L56.0462 131.651L49.6319 135.436L48.6855 142.587Z" fill="#683C11"/>
<path d="M34.5952 109.253L41.4301 130.705L41.7456 130.81L35.4364 110.41L34.5952 109.253Z" fill="#2B2B2B"/>
<path d="M57.7288 104.837L49.6321 135.436L50.0527 135.226L56.467 112.092L57.7288 104.837Z" fill="#2B2B2B"/>
<path d="M50.6835 30.5993C69.7899 30.5993 85.2787 23.8201 85.2787 15.4574C85.2787 7.09471 69.7899 0.31543 50.6835 0.31543C31.5772 0.31543 16.0884 7.09471 16.0884 15.4574C16.0884 23.8201 31.5772 30.5993 50.6835 30.5993Z" fill="#F9F9F9"/>
<path d="M49.8423 14.9317C59.2503 14.9317 66.877 11.5891 66.877 7.46583C66.877 3.34256 59.2503 0 49.8423 0C40.4343 0 32.8076 3.34256 32.8076 7.46583C32.8076 11.5891 40.4343 14.9317 49.8423 14.9317Z" fill="white"/>
<path d="M45.0053 115.773C44.5847 115.773 44.2693 115.773 43.8487 115.773C39.958 115.352 36.6983 113.354 34.5952 109.674L34.2798 108.622C36.3828 112.197 40.1683 114.931 43.9538 115.247C48.2651 115.668 52.7866 113.459 56.5721 109.148L56.7824 108.833L56.9927 109.148C59.3061 113.459 61.7246 114.406 63.0916 113.985C64.4585 113.564 65.1946 111.672 64.8792 109.148L65.4049 108.622C65.7204 111.461 64.8792 113.985 63.1967 114.511C61.6194 115.037 59.0958 113.985 56.5721 109.674C53.1021 113.67 49.0011 115.773 45.0053 115.773Z" fill="#2B2B2B"/>
<path opacity="0.42" d="M18.6121 84.0168L38.4859 115.563C44.2693 119.033 54.7845 119.874 60.9885 115.773L76.5511 91.3775C68.8749 102.103 36.3828 103.786 18.6121 84.0168Z" fill="#A3A3A3"/>
</svg>
