<svg viewBox="0 0 100 143" fill="none" xmlns="http://www.w3.org/2000/svg">
<path d="M50.3672 4.4452e-06C22.7701 -0.209859 0.314694 16.4743 0.10483 40.3987C-0.000101461 47.744 2.09853 57.1878 5.77115 63.3788L38.5099 115.32C44.0712 118.678 54.5644 119.622 60.9653 115.425L93.0744 65.1626C97.3766 58.8667 99.895 49.0032 99.895 41.1333C100.105 17.2088 77.9642 0.209868 50.3672 4.4452e-06Z" fill="#213775"/>
<path d="M46.9044 98.9507L48.0587 126.967H47.639L46.6946 104.722L46.9044 98.9507Z" fill="#2B2B2B"/>
<path d="M66.9464 102.728L55.6138 131.585L56.0335 131.375L66.2119 105.981L66.9464 102.728Z" fill="#2B2B2B"/>
<path d="M50.4722 6.92545C53.8914 6.92545 56.6632 5.93887 56.6632 4.72188C56.6632 3.50488 53.8914 2.51831 50.4722 2.51831C47.053 2.51831 44.2812 3.50488 44.2812 4.72188C44.2812 5.93887 47.053 6.92545 50.4722 6.92545Z" fill="white"/>
<path d="M42.4973 138.72L48.2685 136.307L47.8488 126.548L41.343 130.43L42.4973 138.72Z" fill="#683C11"/>
<path d="M54.7744 138.405L47.8489 135.362V126.548L56.0336 131.375L54.7744 138.405Z" fill="#936037"/>
<path d="M48.5833 142.288L42.4973 138.72L41.343 130.325L49.6326 135.152L48.5833 142.288Z" fill="#936037"/>
<path d="M48.5833 142.288L54.9841 138.51L56.0334 131.375L49.6326 135.152L48.5833 142.288Z" fill="#683C11"/>
<path d="M34.5225 109.024L41.343 130.43L41.7628 130.535L35.3619 110.178L34.5225 109.024Z" fill="#2B2B2B"/>
<path d="M98.9507 32.5289C99.0556 32.8437 99.0556 33.1585 99.1605 33.4733C95.0682 13.6412 74.8164 0.209904 50.3673 4.06894e-05C26.0231 -0.209823 5.56138 12.9067 1.04932 32.424C2.41343 61.8049 97.1668 64.3232 98.9507 32.5289Z" fill="#E8E8E8"/>
<path d="M9.44385 69.0452L38.6149 115.215C44.0713 118.678 54.5645 119.622 60.9654 115.425L88.9821 71.5635C75.6558 88.3526 28.6464 92.6548 9.44385 69.0452Z" fill="#E6332A"/>
<path d="M1.04928 32.2141C1.88874 61.8049 97.1668 64.4282 98.9506 32.5289C101.574 42.6024 99.3704 57.0829 91.0808 68.3107C81.3221 87.828 28.8562 94.1239 8.81424 68.3107C0.944352 58.6569 -1.67894 42.7073 1.04928 32.2141Z" fill="#2174A7"/>
<path d="M57.7126 104.617L49.6328 135.152L50.0525 134.942L56.4534 111.857L57.7126 104.617Z" fill="#2B2B2B"/>
<g style="mix-blend-mode:multiply" opacity="0.42">
<path d="M53.725 80.063C28.1216 80.063 6.6106 63.064 0.10483 39.979C0.10483 40.0839 0.10483 40.1889 0.10483 40.2938C-0.000101473 47.639 2.09853 57.0829 5.77115 63.2739L38.5099 115.215C44.2811 118.678 54.7743 119.517 60.9653 115.425L93.0744 65.1626C93.704 64.3232 94.2287 63.2739 94.7533 62.3295C84.5749 73.2424 69.9894 80.063 53.725 80.063Z" fill="#706F6F"/>
</g>
<path d="M50.682 30.5353C69.7483 30.5353 85.2045 23.7702 85.2045 15.4251C85.2045 7.08 69.7483 0.314941 50.682 0.314941C31.6157 0.314941 16.1594 7.08 16.1594 15.4251C16.1594 23.7702 31.6157 30.5353 50.682 30.5353Z" fill="#F6F6F6"/>
<path d="M49.8425 14.9003C59.2307 14.9003 66.8414 11.5648 66.8414 7.45016C66.8414 3.33555 59.2307 0 49.8425 0C40.4542 0 32.8435 3.33555 32.8435 7.45016C32.8435 11.5648 40.4542 14.9003 49.8425 14.9003Z" fill="white"/>
<g style="mix-blend-mode:multiply" opacity="0.42">
<path d="M18.6777 83.8406L38.5098 115.32C44.2811 118.783 54.7743 119.622 60.9652 115.53L76.4951 91.1858C68.8351 101.889 36.4112 103.568 18.6777 83.8406Z" fill="#706F6F"/>
</g>
<path d="M44.9108 115.53C44.4911 115.53 44.1763 115.53 43.7566 115.53C39.8741 115.11 36.6212 113.116 34.5226 109.444L34.2078 108.395C36.3064 111.962 40.0839 114.69 43.8615 115.005C48.1637 115.425 52.6758 113.221 56.4533 108.919L56.6632 108.604L56.873 108.919C59.1815 113.221 61.595 114.166 62.9591 113.746C64.3232 113.326 65.0577 111.438 64.7429 108.919L65.2676 108.395C65.5824 111.228 64.7429 113.746 63.064 114.271C61.49 114.795 58.9717 113.746 56.4533 109.444C53.0955 113.431 49.0031 115.53 44.9108 115.53Z" fill="#2B2B2B"/>

</svg>
