<svg viewBox="0 0 100 143" fill="none" xmlns="http://www.w3.org/2000/svg">
<path d="M46.898 99.4341L48.0547 127.588H47.7393L46.6877 105.234L46.898 99.4341Z" fill="#2B2B2B"/>
<path d="M41.6405 117.254C41.325 117.149 41.0095 117.043 40.6941 116.832C41.0095 117.043 41.325 117.149 41.6405 117.254Z" fill="#213775"/>
<path d="M39.5375 116.41C38.9066 115.778 38.2757 115.145 37.6448 114.407L35.1211 110.4L38.5911 115.883C39.222 116.2 39.853 116.621 40.589 116.938C40.1684 116.727 39.853 116.516 39.5375 116.41Z" fill="#213775"/>
<path d="M44.1641 117.992C43.8487 117.887 43.5332 117.887 43.2178 117.781C43.5332 117.887 43.8487 117.992 44.1641 117.992Z" fill="#213775"/>
<path d="M42.7972 117.676C42.4817 117.57 42.1663 117.465 41.8508 117.359C42.1663 117.465 42.4817 117.57 42.7972 117.676Z" fill="#213775"/>
<path d="M45.5311 118.309C45.2156 118.203 44.9002 118.203 44.5847 118.098C44.9002 118.203 45.2156 118.309 45.5311 118.309Z" fill="#213775"/>
<path d="M37.5396 1.15981C38.3808 1.05437 39.1168 0.843481 39.9581 0.738037C39.1168 0.843481 38.3808 1.05437 37.5396 1.15981Z" fill="#213775"/>
<path d="M46.898 118.519C46.5826 118.519 46.2671 118.414 45.9517 118.414C46.3723 118.519 46.5826 118.519 46.898 118.519Z" fill="#213775"/>
<path d="M17.0348 46.1846C17.0348 22.9869 22.713 9.06823 30.3892 3.05791C32.7025 2.3198 35.0159 1.68713 37.5395 1.15991C16.0884 5.37768 0.210407 20.4562 0.000101896 40.5961C-0.105051 47.9772 1.998 57.4672 5.67834 63.6884L29.6531 101.754C22.9233 87.9406 17.0348 67.5898 17.0348 46.1846Z" fill="#2FAC66"/>
<path d="M40.0632 0.738208C40.7993 0.632764 41.5354 0.527319 42.2714 0.421875C41.5354 0.527319 40.7993 0.632764 40.0632 0.738208Z" fill="#213775"/>
<path d="M53.4176 0.105444C52.3661 0 51.4197 0 50.3682 0C51.2094 0 51.9454 0 52.6815 0.105444H53.4176Z" fill="#213775"/>
<path d="M42.5869 0.421826C43.323 0.316382 43.9539 0.316382 44.69 0.210938C44.059 0.316382 43.323 0.316382 42.5869 0.421826Z" fill="#213775"/>
<path d="M45.2156 0.210913C45.8465 0.210913 46.5826 0.105469 47.2135 0.105469C46.5826 0.105469 45.8465 0.105469 45.2156 0.210913Z" fill="#213775"/>
<path d="M64.5637 1.68701C65.6153 1.8979 66.6668 2.21423 67.6132 2.53057C58.0443 6.64289 50.3682 21.0888 50.3682 47.977C50.3682 73.7054 54.5743 102.808 62.3555 113.88L60.9886 115.989L93.1652 65.4808C97.4765 59.1541 100 49.2424 100 41.3341C100.21 21.616 85.1736 6.53745 64.5637 1.68701Z" fill="#E63834"/>
<path d="M59.8317 116.727C59.7266 116.832 59.5163 116.832 59.4111 116.938C59.5163 116.832 59.6214 116.727 59.8317 116.727Z" fill="#213775"/>
<path d="M57.0979 117.781C56.8876 117.887 56.6773 117.887 56.467 117.992C56.7825 117.887 56.9928 117.887 57.0979 117.781Z" fill="#213775"/>
<path d="M58.465 117.254C58.2547 117.359 58.0444 117.359 57.9392 117.465C58.1495 117.465 58.3598 117.359 58.465 117.254Z" fill="#213775"/>
<path d="M56.8875 0.421802C55.7308 0.316357 54.5742 0.210913 53.4175 0.105469C54.5742 0.210913 55.7308 0.210913 56.8875 0.421802Z" fill="#213775"/>
<path d="M60.6731 0.948975C61.7246 1.15986 62.7761 1.37075 63.8277 1.58164C62.7761 1.26531 61.8298 1.05442 60.6731 0.948975Z" fill="#213775"/>
<path d="M60.6732 0.949096C59.5165 0.738208 58.3598 0.632764 57.2031 0.421875C58.465 0.527319 59.5165 0.738208 60.6732 0.949096Z" fill="#213775"/>
<path d="M48.3703 118.73C48.0548 118.73 47.7394 118.73 47.5291 118.625C47.7394 118.625 48.0548 118.73 48.3703 118.73Z" fill="#213775"/>
<path d="M54.2588 118.414C54.0485 118.414 53.733 118.519 53.5227 118.519C53.8382 118.519 54.0485 118.519 54.2588 118.414Z" fill="#213775"/>
<path d="M52.7866 118.625C52.5763 118.625 52.2608 118.625 52.0505 118.73C52.2608 118.73 52.5763 118.625 52.7866 118.625Z" fill="#213775"/>
<path d="M55.731 118.203C55.5207 118.203 55.3104 118.309 55.1001 118.309C55.3104 118.309 55.5207 118.203 55.731 118.203Z" fill="#213775"/>
<path d="M67.6131 2.42522C63.1967 1.15989 58.3597 0.316333 53.4175 0H52.7866C51.9454 0 51.2093 0 50.3681 0C43.3229 0 36.5931 1.05444 30.4943 3.05788C22.8181 9.06821 17.1399 22.9869 17.1399 46.1846C17.1399 67.5898 22.9233 87.9405 29.7582 101.754L37.6446 114.302C38.2755 115.04 38.9065 115.672 39.5374 116.305C45.3208 119.257 54.9948 119.89 61.0936 115.989L62.4606 113.88C54.6793 102.808 50.4732 73.7056 50.4732 47.9772C50.3681 20.9834 58.0442 6.64299 67.6131 2.42522Z" fill="white"/>
<path opacity="0.06" d="M53.733 80.4541C28.0758 80.4541 6.51956 63.4775 0.000101896 40.2798C0.000101896 40.3852 0.000101896 40.4907 0.000101896 40.5961C-0.105051 47.9772 1.998 57.4672 5.67834 63.6884L38.4859 115.883C44.2693 119.363 54.7845 120.207 60.9885 116.094L93.1652 65.5864C93.7961 64.7429 94.3219 63.6884 94.8476 62.7394C84.6478 73.6002 70.0316 80.4541 53.733 80.4541Z" fill="#706F6F"/>
<path d="M66.9822 103.23L55.6257 132.227L56.0463 132.016L66.2461 106.499L66.9822 103.23Z" fill="#2B2B2B"/>
<path d="M50.4733 6.95942C53.8996 6.95942 56.6773 5.96803 56.6773 4.74509C56.6773 3.52215 53.8996 2.53076 50.4733 2.53076C47.0469 2.53076 44.2693 3.52215 44.2693 4.74509C44.2693 5.96803 47.0469 6.95942 50.4733 6.95942Z" fill="white"/>
<path d="M42.4817 139.397L48.2651 136.972L47.8445 127.166L41.4302 131.067L42.4817 139.397Z" fill="#683C11"/>
<path d="M54.7845 139.081L47.8445 136.023V127.166L56.0464 132.016L54.7845 139.081Z" fill="#936037"/>
<path d="M48.6856 142.982L42.4816 139.397L41.325 130.962L49.632 135.812L48.6856 142.982Z" fill="#936037"/>
<path d="M48.6855 142.982L54.9947 139.186L56.0462 132.016L49.6319 135.812L48.6855 142.982Z" fill="#683C11"/>
<path d="M34.5952 109.557L41.4301 131.067L41.7456 131.173L35.4364 110.717L34.5952 109.557Z" fill="#2B2B2B"/>
<path d="M57.7288 105.128L49.6321 135.812L50.0527 135.601L56.467 112.404L57.7288 105.128Z" fill="#2B2B2B"/>
<path opacity="0.24" d="M50.6835 30.6844C69.7899 30.6844 85.2787 23.8863 85.2787 15.5004C85.2787 7.1145 69.7899 0.316406 50.6835 0.316406C31.5772 0.316406 16.0884 7.1145 16.0884 15.5004C16.0884 23.8863 31.5772 30.6844 50.6835 30.6844Z" fill="#F6F6F6"/>
<path opacity="0.24" d="M49.8423 14.9731C59.2503 14.9731 66.877 11.6212 66.877 7.48654C66.877 3.35184 59.2503 0 49.8423 0C40.4343 0 32.8076 3.35184 32.8076 7.48654C32.8076 11.6212 40.4343 14.9731 49.8423 14.9731Z" fill="white"/>
<path opacity="0.2" d="M18.6121 84.25L38.4859 115.883C44.2693 119.363 54.7845 120.206 60.9885 116.094L76.5511 91.6311C68.8749 102.386 36.3828 104.074 18.6121 84.25Z" fill="#706F6F"/>
<path d="M45.0053 116.094C44.5847 116.094 44.2693 116.094 43.8487 116.094C39.958 115.672 36.6983 113.669 34.5952 109.978L34.2798 108.924C36.3828 112.509 40.1683 115.25 43.9538 115.567C48.2651 115.989 52.7866 113.774 56.5721 109.451L56.7824 109.135L56.9927 109.451C59.3061 113.774 61.7246 114.723 63.0916 114.301C64.4585 113.88 65.1946 111.982 64.8792 109.451L65.4049 108.924C65.7204 111.771 64.8792 114.301 63.1967 114.829C61.6194 115.356 59.0958 114.301 56.5721 109.978C53.1021 113.985 49.0011 116.094 45.0053 116.094Z" fill="#2B2B2B"/>
</svg>
