<svg viewBox="0 0 100 143" fill="none" xmlns="http://www.w3.org/2000/svg">

<path d="M46.9 99.1555L48.0566 127.23H47.7412L46.6897 104.939L46.9 99.1555Z" fill="#2B2B2B"/>
<path d="M50.3692 0.00196158C22.7155 -0.208332 0.214058 16.51 0.00376381 40.4835C-0.101383 47.8438 2.00156 57.3071 5.6817 63.5107L38.4875 115.558C44.1655 118.923 54.575 119.869 60.989 115.664L93.164 65.2982C97.475 58.9894 99.9985 49.1056 99.9985 41.2196C100.209 17.2461 78.0228 0.212256 50.3692 0.00196158Z" fill="#E6332A"/>
<path d="M66.9831 102.941L55.6272 131.856L56.0478 131.646L66.247 106.2L66.9831 102.941Z" fill="#2B2B2B"/>
<path d="M50.4742 6.94156C53.9004 6.94156 56.6778 5.95297 56.6778 4.73348C56.6778 3.51398 53.9004 2.52539 50.4742 2.52539C47.048 2.52539 44.2705 3.51398 44.2705 4.73348C44.2705 5.95297 47.048 6.94156 50.4742 6.94156Z" fill="white"/>
<path d="M42.4829 139.006L48.2659 136.588L47.8454 126.809L41.4314 130.7L42.4829 139.006Z" fill="#683C11"/>
<path d="M54.7856 138.691L47.8459 135.641V126.809L56.0474 131.646L54.7856 138.691Z" fill="#936037"/>
<path d="M48.6869 142.581L42.4833 139.006L41.3267 130.594L49.6333 135.431L48.6869 142.581Z" fill="#936037"/>
<path d="M48.687 142.581L54.9958 138.796L56.0473 131.646L49.6333 135.431L48.687 142.581Z" fill="#683C11"/>
<path d="M34.5979 109.25L41.4325 130.699L41.7479 130.805L35.4391 110.406L34.5979 109.25Z" fill="#2B2B2B"/>
<path d="M57.7289 104.833L49.6326 135.431L50.0532 135.221L56.4671 112.089L57.7289 104.833Z" fill="#2B2B2B"/>
<path d="M50.6847 30.5997C69.79 30.5997 85.278 23.8208 85.278 15.4585C85.278 7.09631 69.79 0.317383 50.6847 0.317383C31.5793 0.317383 16.0913 7.09631 16.0913 15.4585C16.0913 23.8208 31.5793 30.5997 50.6847 30.5997Z" fill="#EA433F"/>
<path d="M49.8429 14.9328C59.2504 14.9328 66.8767 11.5904 66.8767 7.46739C66.8767 3.34434 59.2504 0.00195312 49.8429 0.00195312C40.4354 0.00195312 32.8091 3.34434 32.8091 7.46739C32.8091 11.5904 40.4354 14.9328 49.8429 14.9328Z" fill="#EA5353"/>
<path d="M45.0067 115.769C44.5861 115.769 44.2707 115.769 43.8501 115.769C39.9597 115.348 36.7001 113.35 34.5972 109.67L34.2817 108.619C36.3847 112.194 40.17 114.927 43.9553 115.243C48.2663 115.663 52.7876 113.455 56.5729 109.144L56.7832 108.829L56.9935 109.144C59.3067 113.455 61.7251 114.402 63.092 113.981C64.4589 113.561 65.1949 111.668 64.8795 109.144L65.4052 108.619C65.7207 111.458 64.8795 113.981 63.1971 114.507C61.6199 115.033 59.0964 113.981 56.5729 109.67C53.103 113.666 49.0023 115.769 45.0067 115.769Z" fill="#2B2B2B"/>
<path d="M71.3988 59.4099L73.0811 62.0386L76.4458 62.1437L74.1326 64.5621L74.7635 67.5062L71.7142 66.3496L68.665 68.032L69.1907 64.9827L66.562 62.9849L70.0319 62.2489L71.3988 59.4099Z" fill="white"/>
<g style="mix-blend-mode:multiply" opacity="0.42">
<path d="M18.6143 84.0144L38.487 115.559C44.2701 119.028 54.7848 119.87 60.9885 115.769L76.5502 91.3747C68.8745 102.1 36.3841 103.782 18.6143 84.0144Z" fill="#706F6F" fill-opacity="0.5"/>
</g>
<path d="M64.1441 45.9512L65.8265 48.5798L69.1912 48.685L66.8779 50.9982L67.5088 54.0475L64.4596 52.8909L61.4103 54.5732L61.936 51.4188L59.3074 49.5262L62.7772 48.7901L64.1441 45.9512Z" fill="white"/>
<path d="M68.6642 73.605L70.2414 76.2337L73.7112 76.3388L71.2928 78.7572L72.0289 81.7013L68.8744 80.5447L65.9303 82.227L66.3509 79.1778L63.8274 77.18L67.1921 76.4439L68.6642 73.605Z" fill="white"/>
<path d="M55.4165 83.2783L57.0989 85.8018L60.5687 86.1173L58.1503 88.3254L58.7812 91.1643L55.6268 90.0077L52.4724 91.4798L53.1033 88.5357L50.4746 86.5379L53.9445 86.0121L55.4165 83.2783Z" fill="white"/>
<path d="M34.0714 55.835L30.4964 63.1952L21.6641 64.457L28.4986 70.1349L27.4471 78.2313L35.228 74.446L43.4295 78.2313L41.4317 70.1349L47.5302 64.3519L38.4876 63.1952L34.0714 55.835Z" fill="white"/>
<g style="mix-blend-mode:multiply" opacity="0.42">
<path d="M53.7339 80.229C28.078 80.229 6.52287 63.3003 0.00376381 40.168C0.00376381 40.2731 0.00376381 40.3783 0.00376381 40.4834C-0.101383 47.8437 2.00156 57.3069 5.6817 63.5106L38.4875 115.558C44.2706 119.028 54.7853 119.869 60.989 115.769L93.164 65.4032C93.7948 64.5621 94.3206 63.5106 94.8463 62.5643C84.6471 73.3944 70.0316 80.229 53.7339 80.229Z" fill="#B1411C"/>
</g>
</svg>
