<svg  viewBox="0 0 198 115" fill="none" xmlns="http://www.w3.org/2000/svg">
<path fill="#3EAAA1" d="M138.927 35.4325C135.012 28.6414 125.029 20.2251 115.23 14.568C85.635 -2.73996 44.1809 -3.24492 18.8446 11.0813C-6.58746 25.4628 -6.2962 49.2806 23.2992 66.5885C32.3486 71.9237 46.0207 77.607 57.0784 80.1233L140.715 97.9098L140.132 97.7941L173.17 109.796L185.928 114.951L197.034 113.517L196.673 108.446L187.064 101.02L167.721 81.5637L138.927 35.4325ZM169.447 93.3901L180.702 102.43L176.333 103.444L164.036 97.1177C166.272 95.9775 168.151 94.7417 169.447 93.3901ZM183.222 107.311L176.594 103.595L183.222 107.311ZM142.692 98.2773L151.608 100.22C155.864 100.025 160.103 98.9359 163.844 97.2282L176.142 103.554L173.327 109.555L142.692 98.2773ZM186.873 101.13L181.12 102.34L169.734 93.2243C171.126 91.8175 172.029 90.2396 172.124 88.5258L168.89 83.4538L186.873 101.13Z"/>
</svg>
