<svg viewBox="0 0 100 144" fill="none" xmlns="http://www.w3.org/2000/svg">
<path d="M46.8983 99.488L48.055 127.657H47.7395L46.688 105.291L46.8983 99.488Z" fill="#2B2B2B"/>
<path d="M66.9822 103.286L55.6257 132.299L56.0463 132.088L66.2461 106.557L66.9822 103.286Z" fill="#2B2B2B"/>
<path d="M50.3681 1.50726e-05C22.713 -0.210988 0.210407 16.5637 0.000101896 40.6181C-0.105051 48.0032 1.998 57.4983 5.67834 63.7229L38.4859 115.946C44.1641 119.322 54.5742 120.272 60.9885 116.052L93.1652 65.5164C97.4764 59.1863 100 49.2692 100 41.3566C100.21 17.4078 78.0232 0.211018 50.3681 1.50726e-05Z" fill="#2174A7"/>
<path d="M50.4733 6.96304C53.8997 6.96304 56.6773 5.97112 56.6773 4.74751C56.6773 3.52391 53.8997 2.53198 50.4733 2.53198C47.0469 2.53198 44.2693 3.52391 44.2693 4.74751C44.2693 5.97112 47.0469 6.96304 50.4733 6.96304Z" fill="white"/>
<path d="M53.4175 2.95408C53.4175 2.95408 55.5205 1.26606 57.7287 0.738551C65.2997 -1.47698 70.8728 1.68806 71.0831 3.58709C64.8791 2.42657 59.7266 2.42657 55.6257 3.69259C53.8381 4.3256 53.4175 2.95408 53.4175 2.95408Z" fill="white"/>
<path d="M38.4859 115.946C40.1684 116.685 44.3745 118.267 46.1621 118.478L45.3208 117.001C45.3208 117.001 25.2367 67.6264 25.1316 43.9941C24.9212 26.2698 41.4302 8.8621 50.4733 6.96307C51.7351 6.64657 46.0569 6.01356 47.1084 5.59155C30.7046 6.33006 14.0905 21.7333 13.8802 43.4666C13.6699 75.328 38.4859 115.946 38.4859 115.946Z" fill="white"/>
<path d="M42.4817 139.473L48.2651 137.152L47.8445 127.235L41.4302 131.244L42.4817 139.473Z" fill="#683C11"/>
<path d="M54.7845 139.157L47.8445 136.097V127.235L56.0464 132.088L54.7845 139.157Z" fill="#936037"/>
<path d="M48.6856 143.166L42.4816 139.473L41.325 131.033L49.632 135.886L48.6856 143.166Z" fill="#936037"/>
<path d="M48.6855 143.166L54.9947 139.367L56.0462 132.088L49.6319 135.886L48.6855 143.166Z" fill="#683C11"/>
<path d="M34.5955 109.616L41.4304 131.244L41.7458 131.349L35.4367 110.776L34.5955 109.616Z" fill="#2B2B2B"/>
<path d="M57.7288 105.185L49.6321 135.886L50.0527 135.675L56.467 112.465L57.7288 105.185Z" fill="#2B2B2B"/>
<path d="M2.52393 56.4433C3.78576 60.6634 4.20637 61.4019 6.83518 65.3055C27.6554 85.8783 74.1328 87.5663 94.9529 62.5624C96.3199 60.5579 97.2663 58.2369 97.8972 55.7048C72.9761 75.2226 25.0266 73.6401 2.52393 56.4433Z" fill="white"/>
<path d="M22.0822 89.9929L15.5627 79.5482C20.5049 47.4758 45.3209 19.9399 76.5512 5.9082C80.0212 7.27972 82.8603 9.07325 85.0685 11.1833C56.7825 28.4855 33.1232 61.0855 22.0822 89.9929Z" fill="white"/>
<path d="M5.88853 20.8894C16.4038 66.466 44.2692 87.5663 69.4006 102.759L66.246 107.717C32.5973 93.2634 8.30703 70.7916 1.05151 31.8616C2.10304 27.8525 3.68033 24.2655 5.88853 20.8894Z" fill="white"/>
<path d="M20.5049 87.4608L16.6143 81.7637C21.4513 49.6913 47.4239 20.8894 78.6542 6.85767C80.4418 7.27967 81.914 8.22919 83.1758 9.6007C54.7846 26.7974 31.5459 58.5534 20.5049 87.4608Z" fill="#F74D4D"/>
<path d="M4.52156 23.2104C15.0368 68.7871 43.7434 88.4103 68.7697 103.708C68.5594 104.869 67.9285 105.713 67.0873 106.346C33.4385 91.7864 8.93797 68.1541 1.7876 29.224C2.31336 26.5865 3.25973 24.6875 4.52156 23.2104Z" fill="#F74D4D"/>
<path d="M40.1684 116.685C41.8508 117.423 42.2715 117.74 44.059 117.951C44.059 117.951 22.1873 68.0484 21.977 44.4161C21.8719 26.7973 39.4323 8.33459 48.4754 6.33006C49.7373 6.01356 48.16 5.80256 47.0033 5.59155C35.5417 6.22456 16.5091 22.1553 16.404 43.8886C16.0885 75.75 40.1684 116.685 40.1684 116.685Z" fill="#F74D4D"/>
<path d="M2.73413 58.4478C3.57535 60.0303 3.15474 59.6083 5.46809 63.1954C26.2883 83.6627 75.079 85.6672 95.7941 60.6633C96.5301 59.6083 96.9507 58.5533 97.161 57.4983C72.2399 76.9106 25.2368 75.5391 2.73413 58.4478Z" fill="#F74D4D"/>
<g style="mix-blend-mode:multiply" opacity="0.42">
<path d="M53.733 80.6031C28.0758 80.6031 6.51956 63.5118 0.000101896 40.3015C0.000101896 40.407 0.000101896 40.5125 0.000101896 40.618C-0.105051 48.0031 1.998 57.4983 5.67834 63.7228L38.4859 115.946C44.2693 119.428 54.7845 120.272 60.9885 116.157L93.1652 65.6219C93.7961 64.7778 94.3219 63.7228 94.8476 62.7733C84.6478 73.64 70.0316 80.6031 53.733 80.6031Z" fill="#706F6F"/>
</g>
<path opacity="0.26" d="M50.6835 30.7011C69.7899 30.7011 85.2787 23.8993 85.2787 15.5089C85.2787 7.11843 69.7899 0.31665 50.6835 0.31665C31.5772 0.31665 16.0884 7.11843 16.0884 15.5089C16.0884 23.8993 31.5772 30.7011 50.6835 30.7011Z" fill="#F6F6F6"/>
<path d="M53.4175 3.05953C53.4175 3.05953 55.3102 1.58251 57.5184 1.05501C63.5121 0.105494 67.5079 0.844004 70.4522 2.74303C64.4585 1.05501 60.2524 1.37151 55.5205 3.05953C53.7329 3.69254 53.4175 3.05953 53.4175 3.05953Z" fill="#F74D4D"/>
<path opacity="0.26" d="M49.8423 15.0867C59.2503 15.0867 66.877 11.733 66.877 7.59607C66.877 3.45913 59.2503 0.105469 49.8423 0.105469C40.4343 0.105469 32.8076 3.45913 32.8076 7.59607C32.8076 11.733 40.4343 15.0867 49.8423 15.0867Z" fill="#F6F6F6"/>
<g style="mix-blend-mode:multiply" opacity="0.42">
<path d="M56.1516 94.5293C42.4817 94.5293 29.6531 90.8367 18.7173 84.2957L38.5911 115.946C44.3745 119.428 54.8897 120.272 61.0937 116.157L76.6563 91.6808C70.1368 93.4743 63.1968 94.5293 56.1516 94.5293Z" fill="#706F6F"/>
</g>
<path d="M45.0053 116.157C44.5847 116.157 44.2693 116.157 43.8487 116.157C39.958 115.735 36.6983 113.731 34.5952 110.038L34.2798 108.983C36.3828 112.57 40.1683 115.313 43.9538 115.63C48.2651 116.052 52.7866 113.836 56.5721 109.511L56.7824 109.194L56.9927 109.511C59.3061 113.836 61.7246 114.786 63.0916 114.364C64.4585 113.942 65.1946 112.043 64.8792 109.511L65.4049 108.983C65.7204 111.832 64.8792 114.364 63.1967 114.891C61.6194 115.419 59.0958 114.364 56.5721 110.038C53.1021 114.047 49.0011 116.157 45.0053 116.157Z" fill="#2B2B2B"/>
</svg>
