<svg width="86" height="55" viewBox="0 0 86 55" fill="none" xmlns="http://www.w3.org/2000/svg">
<path d="M39.9369 22.7475V17.27M39.9369 17.27V9.56732C39.9369 8.14929 38.7874 6.99976 37.3694 6.99976V6.99976C35.9513 6.99976 34.8018 8.14929 34.8018 9.56732V26.1709C33.09 24.8016 33.0901 24.8016 31.036 23.0899C28.3212 20.8275 25.5586 23.0899 25.2162 23.7745C24.6685 24.87 25.2162 25.8286 26.2431 26.8556L35.6967 36.5646C37.7558 38.6794 40.5638 39.8998 43.5148 39.9626V39.9626C49.818 40.0967 55 35.0238 55 28.7192V25.8286V9.7385C55 8.415 53.9271 7.3421 52.6036 7.3421V7.3421C51.2801 7.3421 50.2072 8.415 50.2072 9.73849L50.2072 22.7475M39.9369 17.27C40.6216 15.5583 44.045 15.216 45.0721 17.27M45.0721 17.27C46.0991 15.216 49.1802 15.216 50.2072 17.27M45.0721 17.27V22.7475" stroke="#EA5757" stroke-width="2" stroke-linecap="round" stroke-linejoin="round"/>
<path d="M64.3366 45.4497C66.8693 45.4258 69.5313 47.587 70.2587 48.5293C69.4058 49.4462 66.3221 51.1869 63.9764 50.785C61.789 50.4101 60.351 48.8348 59.6291 47.8116C60.3398 47.0476 61.8039 45.4736 64.3366 45.4497Z" stroke="#EA5757" stroke-width="2"/>
<path d="M58.5994 39.3293C58.7726 37.0918 61.0449 34.9466 62.0022 34.3937C62.8128 35.233 64.2385 38.1189 63.6726 40.1512C63.1449 42.0463 61.5275 43.1666 60.4934 43.707C59.8178 43.0076 58.4262 41.5668 58.5994 39.3293Z" stroke="#EA5757" stroke-width="2"/>
<path d="M65.4353 31.0662C64.7059 29.1405 65.5895 26.5064 66.0966 25.6885C67.0283 26.0833 69.2085 27.9501 69.5639 29.852C69.8954 31.6254 69.1102 33.1622 68.5405 33.9986C67.7641 33.6696 66.1647 32.9918 65.4353 31.0662Z" stroke="#EA5757" stroke-width="2"/>
<path d="M69.3209 37.8061C71.2101 36.9868 73.8829 37.7453 74.7238 38.2132C74.3734 39.1625 72.6114 41.4283 70.7284 41.873C68.9725 42.2876 67.4004 41.5757 66.5382 41.0462C66.8302 40.2551 67.4318 38.6255 69.3209 37.8061Z" stroke="#EA5757" stroke-width="2"/>
<path d="M68.3904 19.067C67.1853 17.3973 67.3536 14.624 67.6305 13.7024C68.6328 13.8413 71.2235 15.0769 72.0613 16.8209C72.8425 18.4472 72.484 20.1353 72.1515 21.091C71.3162 20.9752 69.5956 20.7367 68.3904 19.067Z" stroke="#EA5757" stroke-width="2"/>
<path d="M68.9794 7.94692C68.2296 6.02911 69.0853 3.38577 69.5837 2.56251C70.5195 2.94742 72.7194 4.79106 73.0949 6.68907C73.4451 8.45892 72.6762 10.004 72.1155 10.8463C71.3356 10.5255 69.7291 9.86474 68.9794 7.94692Z" stroke="#EA5757" stroke-width="2"/>
<path d="M73.7811 25.2768C74.8926 23.5435 77.5345 22.6831 78.4935 22.6028C78.7317 23.5863 78.5321 26.4496 77.2167 27.8685C75.9902 29.1916 74.2882 29.477 73.2771 29.518C73.0785 28.6985 72.6695 27.0102 73.7811 25.2768Z" stroke="#EA5757" stroke-width="2"/>
<path d="M71.3405 9.03809C72.8179 12.9721 73.5059 17.1586 73.3653 21.3586C73.2248 25.5585 72.2583 29.6897 70.5212 33.5161C68.7841 37.3426 66.3103 40.7894 63.2411 43.6598C60.1719 46.5302 56.5673 48.768 52.6333 50.2454" stroke="#EA5757" stroke-width="2"/>
<circle cx="77.8535" cy="16.4901" r="1.5" transform="rotate(-11.4228 77.8535 16.4901)" fill="#EA5757"/>
<circle cx="66.0962" cy="21.4162" r="1" transform="rotate(-11.4228 66.0962 21.4162)" fill="#EA5757"/>
<circle cx="75.5322" cy="32.7724" r="1" transform="rotate(-11.4228 75.5322 32.7724)" fill="#EA5757"/>
<path d="M21.4236 45.4497C18.8909 45.4258 16.2289 47.587 15.5016 48.5293C16.3545 49.4462 19.4381 51.1869 21.7839 50.785C23.9712 50.4101 25.4093 48.8348 26.1312 47.8116C25.4204 47.0476 23.9563 45.4736 21.4236 45.4497Z" stroke="#EA5757" stroke-width="2"/>
<path d="M27.1609 39.3293C26.9877 37.0918 24.7154 34.9466 23.7581 34.3937C22.9474 35.233 21.5217 38.1189 22.0876 40.1512C22.6153 42.0463 24.2327 43.1666 25.2669 43.707C25.9424 43.0076 27.334 41.5668 27.1609 39.3293Z" stroke="#EA5757" stroke-width="2"/>
<path d="M20.325 31.0662C21.0544 29.1405 20.1707 26.5064 19.6636 25.6885C18.732 26.0833 16.5518 27.9501 16.1963 29.852C15.8649 31.6254 16.6501 33.1622 17.2197 33.9986C17.9961 33.6696 19.5955 32.9918 20.325 31.0662Z" stroke="#EA5757" stroke-width="2"/>
<path d="M16.4393 37.8061C14.5502 36.9868 11.8773 37.7453 11.0364 38.2132C11.3869 39.1625 13.1489 41.4283 15.0319 41.873C16.7877 42.2876 18.3598 41.5757 19.2221 41.0462C18.93 40.2551 18.3284 38.6255 16.4393 37.8061Z" stroke="#EA5757" stroke-width="2"/>
<path d="M17.3698 19.067C18.5749 17.3973 18.4067 14.624 18.1298 13.7024C17.1275 13.8413 14.5368 15.0769 13.699 16.8209C12.9177 18.4472 13.2763 20.1353 13.6088 21.091C14.4441 20.9752 16.1647 20.7367 17.3698 19.067Z" stroke="#EA5757" stroke-width="2"/>
<path d="M16.7809 7.94692C17.5307 6.02911 16.675 3.38577 16.1766 2.56251C15.2407 2.94742 13.0409 4.79106 12.6653 6.68907C12.3151 8.45892 13.084 10.004 13.6448 10.8463C14.4246 10.5255 16.0311 9.86474 16.7809 7.94692Z" stroke="#EA5757" stroke-width="2"/>
<path d="M11.9792 25.2768C10.8676 23.5435 8.22578 22.6831 7.26677 22.6028C7.02851 23.5863 7.22819 26.4496 8.54355 27.8685C9.77009 29.1916 11.4721 29.477 12.4832 29.518C12.6817 28.6985 13.0907 27.0102 11.9792 25.2768Z" stroke="#EA5757" stroke-width="2"/>
<path d="M14.4198 9.03809C12.9424 12.9721 12.2544 17.1586 12.3949 21.3586C12.5355 25.5585 13.5019 29.6897 15.2391 33.5161C16.9762 37.3426 19.45 40.7894 22.5192 43.6598C25.5884 46.5302 29.1929 48.768 33.127 50.2454" stroke="#EA5757" stroke-width="2"/>
<circle r="1.5" transform="matrix(-0.980192 -0.198048 -0.198048 0.980192 7.90671 16.4901)" fill="#EA5757"/>
<circle r="1" transform="matrix(-0.980192 -0.198048 -0.198048 0.980192 19.664 21.4162)" fill="#EA5757"/>
<circle r="1" transform="matrix(-0.980192 -0.198048 -0.198048 0.980192 10.228 32.7724)" fill="#EA5757"/>
</svg>
