<svg width="22" height="22" viewBox="0 0 22 22" fill="none" xmlns="http://www.w3.org/2000/svg">
<path d="M19.8017 0H1.38716C0.624221 0 0 0.622642 0 1.38365V18.3333C0 19.0943 0.624221 19.717 1.38716 19.717H6.86644H6.93579C7.00515 19.717 7.07451 19.7516 7.21323 19.7516C9.25928 19.9245 10.369 20.9623 10.6118 22C10.8198 20.9277 11.9296 19.9245 14.0103 19.7516C14.1143 19.7516 14.2184 19.717 14.2877 19.717H19.8364C20.5993 19.717 21.2235 19.0943 21.2235 18.3333V1.38365C21.1888 0.622642 20.5646 0 19.8017 0Z" fill="white"/>
<path d="M0 1C0 0.447716 0.447715 0 1 0H12.6824V10.8706H0V1Z" fill="#21577A"/>
<path d="M2.97672 1.29419L3.30532 2.00661L4.08442 2.09898L3.50841 2.63165L3.66131 3.40116L2.97672 3.01795L2.29212 3.40116L2.44502 2.63165L1.86902 2.09898L2.64811 2.00661L2.97672 1.29419Z" fill="white"/>
<path d="M6.34098 1.29419L6.66958 2.00661L7.44868 2.09898L6.87267 2.63165L7.02557 3.40116L6.34098 3.01795L5.65638 3.40116L5.80928 2.63165L5.23327 2.09898L6.01237 2.00661L6.34098 1.29419Z" fill="white"/>
<path d="M9.70621 1.29419L10.0348 2.00661L10.8139 2.09898L10.2379 2.63165L10.3908 3.40116L9.70621 3.01795L9.02161 3.40116L9.17451 2.63165L8.59851 2.09898L9.3776 2.00661L9.70621 1.29419Z" fill="white"/>
<path d="M2.97672 4.14136L3.30532 4.85378L4.08442 4.94615L3.50841 5.47882L3.66131 6.24833L2.97672 5.86512L2.29212 6.24833L2.44502 5.47882L1.86902 4.94615L2.64811 4.85378L2.97672 4.14136Z" fill="white"/>
<path d="M6.34098 4.14136L6.66958 4.85378L7.44868 4.94615L6.87267 5.47882L7.02557 6.24833L6.34098 5.86512L5.65638 6.24833L5.80928 5.47882L5.23327 4.94615L6.01237 4.85378L6.34098 4.14136Z" fill="white"/>
<path d="M9.70621 4.14136L10.0348 4.85378L10.8139 4.94615L10.2379 5.47882L10.3908 6.24833L9.70621 5.86512L9.02161 6.24833L9.17451 5.47882L8.59851 4.94615L9.3776 4.85378L9.70621 4.14136Z" fill="white"/>
<path d="M2.97672 7.24707L3.30532 7.88033L4.08442 7.96244L3.50841 8.43593L3.66131 9.11993L2.97672 8.77931L2.29212 9.11993L2.44502 8.43593L1.86902 7.96244L2.64811 7.88033L2.97672 7.24707Z" fill="white"/>
<path d="M6.34098 7.24707L6.66958 7.88033L7.44868 7.96244L6.87267 8.43593L7.02557 9.11993L6.34098 8.77931L5.65638 9.11993L5.80928 8.43593L5.23327 7.96244L6.01237 7.88033L6.34098 7.24707Z" fill="white"/>
<path d="M9.70621 7.24707L10.0348 7.88033L10.8139 7.96244L10.2379 8.43593L10.3908 9.11993L9.70621 8.77931L9.02161 9.11993L9.17451 8.43593L8.59851 7.96244L9.3776 7.88033L9.70621 7.24707Z" fill="white"/>
<rect x="12.6826" y="1.81177" width="8.54118" height="1.81176" fill="#FF6F73"/>
<rect x="12.6826" y="5.4353" width="8.54118" height="1.81176" fill="#FF6F73"/>
<rect x="12.6826" y="9.05884" width="8.54118" height="1.81176" fill="#FF6F73"/>
<rect y="12.6824" width="21.2235" height="1.81176" fill="#FF6F73"/>
<rect y="16.3059" width="21.2235" height="1.81176" fill="#FF6F73"/>
</svg>
