<svg width="21" height="22" viewBox="0 0 21 22" fill="none" xmlns="http://www.w3.org/2000/svg">
<path d="M19.5931 0H1.37255C0.617647 0 0 0.616084 0 1.36907V18.1402C0 18.8932 0.617647 19.5093 1.37255 19.5093H6.79412H6.86275C6.93137 19.5093 7 19.5435 7.13726 19.5435C9.16177 19.7147 10.2598 20.7415 10.5 21.7683C10.7059 20.7073 11.8039 19.7147 13.8627 19.5435C13.9657 19.5435 14.0686 19.5093 14.1373 19.5093H19.6275C20.3824 19.5093 21 18.8932 21 18.1402V1.36907C20.9657 0.616084 20.348 0 19.5931 0Z" fill="#1D4E77"/>
<path fill-rule="evenodd" clip-rule="evenodd" d="M0 11.8064V7.74794H8.48608V0H12.5446V7.74794H21V11.8064H12.5446V19.7986C11.328 20.1954 10.6565 20.962 10.5 21.7682H10.5C10.32 20.9988 9.65828 20.2294 8.48608 19.82V11.8064H0Z" fill="white"/>
<path fill-rule="evenodd" clip-rule="evenodd" d="M3.68795 0H1.37255C0.619818 0 0.00355371 0.612545 1.53138e-05 1.36258L8.06993 9.43249L0 17.5024V18.1402C0 18.8932 0.617647 19.5093 1.37255 19.5093H3.04361L10.5952 11.9577L18.1467 19.5093H19.6275C20.3824 19.5093 21 18.8932 21 18.1402V17.3121L13.1204 9.43249L21 1.55293V1.36907C20.9657 0.616084 20.348 0 19.5931 0H17.5024L10.5952 6.90724L3.68795 0Z" fill="white"/>
<path fill-rule="evenodd" clip-rule="evenodd" d="M1.92711 0H1.37256C0.985696 0 0.634882 0.161796 0.384766 0.420898L9.72499 9.76113L0.39114 19.095C0.640824 19.3503 0.988971 19.5093 1.37256 19.5093H1.94004L10.7066 10.7427L19.4732 19.5093H19.6275C20.1165 19.5093 20.5479 19.2508 20.7911 18.864L11.6882 9.76113L20.7809 0.66843C20.5306 0.268856 20.0918 0 19.5931 0H19.4861L10.7066 8.77951L1.92711 0Z" fill="#FF6F73"/>
<path fill-rule="evenodd" clip-rule="evenodd" d="M0 11.0686V8.48596H9.22398V0H11.8067V8.48596H21V11.0686H11.8067V20.1184C11.0522 20.542 10.6213 21.1433 10.5 21.7683C10.362 21.1785 9.94103 20.5887 9.22398 20.1611V11.0686H0Z" fill="#FF6F73"/>
</svg>
