<svg viewBox="0 0 100 64" fill="none" xmlns="http://www.w3.org/2000/svg">
<path d="M43.8481 18.8643L62.9872 29.9142L62.9872 35.4688L43.8481 24.4189L43.8481 18.8643Z" fill="#6DA8CD"/>
<path d="M60.4286 36.3915L100 13.5449L100 19.0757L60.4287 41.9222L60.4286 36.3915Z" fill="#6DA8CD"/>
<path fill-rule="evenodd" clip-rule="evenodd" d="M84.2932 35.2515L44.7147 58.1021L44.7147 58.0938L23.2489 45.7006V51.2552L44.7147 63.6485L44.7147 63.6329L84.2932 40.7823V35.2515ZM23.2487 51.2411L12.4145 57.4861V57.5156L12.389 57.5009L12.3848 57.5033V57.4985L0 50.3481V44.7935L12.4096 51.9582L23.2487 45.7103V51.2411Z" fill="#6DA8CD"/>
<path fill-rule="evenodd" clip-rule="evenodd" d="M76.5394 0L43.8482 18.8743L53.02 24.1696L37.6908 33.0199L29.1239 28.0738L0.0814209 44.8415L12.4174 51.9636L23.2222 45.7255L44.703 58.1274L84.3125 35.2589L73.3515 28.9305L100 13.545L76.5394 0Z" fill="#E6F6FF"/>
</svg>
