<svg viewBox="0 0 100 56" fill="none" xmlns="http://www.w3.org/2000/svg">
<path fill-rule="evenodd" clip-rule="evenodd" d="M17.4757 37.1875L0.0405275 27.1213L0.0405273 32.0161L17.4757 42.0823V37.1875Z" fill="#6DA8CD"/>
<path fill-rule="evenodd" clip-rule="evenodd" d="M41.6341 35.8209L16.1082 50.5583L16.1082 50.5442L5.16846 44.2281V49.1229L16.1082 55.4389L16.1082 55.4321L41.6341 40.6947V35.8209Z" fill="#6DA8CD"/>
<path fill-rule="evenodd" clip-rule="evenodd" d="M48.2437 29.851L65.1089 39.5881V39.6674L99.9792 19.535V14.6613L65.109 34.7935V34.6934L48.2437 24.9562V29.851ZM48.2435 24.9562L22.7175 39.6936V44.5674L48.2435 29.83V24.9562Z" fill="#6DA8CD"/>
<path fill-rule="evenodd" clip-rule="evenodd" d="M48.145 25.0292L35.5686 32.2902L41.6312 35.7904L16.0389 50.5661L5.16846 44.2901L17.4423 37.2038L0 27.1334L34.9039 6.98169L48.7061 14.9504L74.6009 0L100 14.6642L65.0962 34.816L48.145 25.0292Z" fill="#E6F6FF"/>
</svg>
