<svg viewBox="0 0 100 53" fill="none" xmlns="http://www.w3.org/2000/svg">
<path fill-rule="evenodd" clip-rule="evenodd" d="M43.5422 34.0302L19.9055 47.6768V47.6725L9.77551 41.8239L9.77551 46.3564L19.9055 52.2049V52.1898L43.5422 38.5432V34.0302Z" fill="#6DA8CD"/>
<path d="M0.0374757 27.0088L17.7808 37.2529L17.7808 41.7853L0.0374756 31.5412L0.0374757 27.0088Z" fill="#6DA8CD"/>
<path fill-rule="evenodd" clip-rule="evenodd" d="M45.5702 29.0231L67.6564 41.7745V41.8308L67.7051 41.8027L67.7123 41.8068V41.7985L99.9457 23.1885V18.6755L67.7123 37.2855V37.2743L45.5702 24.4906V24.5012L20.9802 38.6982L20.9802 43.2112L45.5702 29.0142V29.0231Z" fill="#6DA8CD"/>
<path fill-rule="evenodd" clip-rule="evenodd" d="M45.5679 24.502L36.3675 29.8139L43.6049 33.9924L19.9068 47.6745L9.84093 41.8629L17.7748 37.2823L0 27.02L32.3205 8.35974L42.8056 14.4133L67.7702 0L100 18.6079L67.6795 37.2681L45.5679 24.502Z" fill="#E6F6FF"/>
</svg>