<svg viewBox="0 0 100 100" fill="none" xmlns="http://www.w3.org/2000/svg">
<path d="M35.4573 23.2686L61.8338 38.4971L61.8338 46.1522L35.4573 30.9237L35.4573 23.2686Z" fill="#6DA8CD"/>
<path d="M0.0632936 54.7822L27.3309 70.5252L27.3309 78.1803L0.0632935 62.4373L0.0632936 54.7822Z" fill="#6DA8CD"/>
<path fill-rule="evenodd" clip-rule="evenodd" d="M25.1924 99.0585V99.0693L8.08331 89.1913L8.08331 81.5362L25.1924 91.4142V91.4362L65.1136 68.3877V76.01L25.1924 99.0585Z" fill="#6DA8CD"/>
<path d="M67.313 32.5935L100 13.7217L100 21.3439L67.313 40.2158L67.313 32.5935Z" fill="#6DA8CD"/>
<path d="M35.5292 74.4446L88.6431 43.7793L88.6431 51.4016L35.5292 82.0669L35.5292 74.4446Z" fill="#6DA8CD"/>
<path fill-rule="evenodd" clip-rule="evenodd" d="M75.3752 0L35.1798 23.2068L44.9514 28.8485L0 54.8012L27.279 70.5507L8.0833 81.6333L25.0841 91.4487L65.1091 68.3403L55.6274 62.8661L89.3859 43.3756L69.0172 31.6157L99.5762 13.9725L75.3752 0Z" fill="#E6F6FF"/>
</svg>
