<svg viewBox="0 0 576 639" fill="none" xmlns="http://www.w3.org/2000/svg">
<path fill-rule="evenodd" clip-rule="evenodd" d="M73.4902 414.641L-36.872 478.359L16.3297 509.075L-208.252 638.737L-303.645 583.662L-195.937 521.477L-349 433.106L-42.7052 256.267L78.4139 326.195L305.65 195L528.538 323.684L222.243 500.524L73.4902 414.641Z" fill="#F8BA5D"/>
<rect width="170.896" height="42.9532" transform="matrix(0.866025 0.5 -2.20305e-08 1 121.355 219)" fill="#6DA8CD"/>
<rect width="258.653" height="42.7688" transform="matrix(0.866025 -0.5 2.20305e-08 1 -160.645 443.669)" fill="#6DA8CD"/>
<rect width="353.338" height="42.7688" transform="matrix(0.866025 -0.5 2.20305e-08 1 269.355 305.327)" fill="#6DA8CD"/>
<rect width="258.653" height="42.7688" transform="matrix(0.866025 -0.5 2.20305e-08 1 -102.645 348.327)" fill="#6DA8CD"/>
<rect width="259.325" height="110.15" transform="matrix(0.866025 -0.5 0.866025 0.5 -256.645 388.662)" fill="#E6F6FF"/>
<rect width="353.679" height="225.46" transform="matrix(0.866025 -0.5 0.866025 0.5 -302 238.106)" fill="#E6F6FF"/>
<rect width="353.679" height="257.369" transform="matrix(0.866025 -0.5 0.866025 0.5 46.3555 176.839)" fill="#E6F6FF"/>
</svg>
