<svg width="1920" height="1131" viewBox="0 0 1920 1131" fill="none" xmlns="http://www.w3.org/2000/svg">
<g style="opacity: 1">
<path class="baloon__ropes" d="M589.121 801.231L592.478 882.839H591.563L588.511 818.042L589.121 801.231Z" fill="#2B2B2B"/>
<path d="M599.192 513.006C518.93 512.394 453.621 560.992 453.011 630.68C452.706 652.075 458.809 679.584 469.491 697.617L564.706 848.912C581.186 858.693 611.399 861.444 630.015 849.218L723.399 702.813C735.912 684.474 743.236 655.743 743.236 632.82C743.846 563.132 679.454 513.617 599.192 513.006Z" fill="#0AA1D0"/>
<path d="M542.428 691.504C541.818 691.504 540.902 691.504 539.987 691.199C538.766 690.893 537.545 690.587 536.63 689.67C535.714 689.059 534.799 687.837 534.188 686.92C533.578 685.697 533.273 684.474 533.273 682.946C533.273 681.418 533.578 680.501 534.188 679.584C534.799 678.667 535.714 678.056 536.63 677.445C537.85 677.139 538.766 676.833 540.292 677.139C542.123 677.445 543.649 677.75 545.175 678.667C546.701 679.278 548.227 680.195 550.058 681.418C550.058 678.361 549.752 675.611 549.752 672.554C546.395 670.415 543.344 669.192 540.292 668.886C537.545 668.275 534.799 668.581 532.357 669.498C529.916 670.415 527.78 671.943 526.559 673.777C525.033 675.916 524.423 678.361 524.423 681.112C524.423 683.863 525.033 686.614 526.559 689.365C528.085 692.116 529.916 694.255 532.357 696.089C534.799 697.923 537.24 699.145 540.292 699.451C542.123 699.757 543.954 699.757 545.785 699.451C547.616 699.145 549.447 698.84 551.278 697.923C551.278 693.949 551.278 689.67 551.278 685.697C548.532 685.391 545.785 684.78 543.039 684.474C542.428 686.92 542.428 689.059 542.428 691.504Z" fill="white"/>
<path d="M542.428 732.461C541.818 732.461 540.902 732.461 539.987 732.155C538.766 731.85 537.545 731.544 536.63 730.627C535.714 730.016 534.799 728.793 534.188 727.876C533.578 726.654 533.273 725.431 533.273 723.903C533.273 722.374 533.578 721.458 534.188 720.541C534.799 719.624 535.714 719.012 536.63 718.401C537.85 718.095 538.766 717.79 540.292 718.095C542.123 718.401 543.649 718.707 545.175 719.624C546.701 720.235 548.227 721.152 550.058 722.374C550.058 719.318 549.752 716.567 549.752 713.511C546.395 711.371 543.344 710.149 540.292 709.843C537.545 709.232 534.799 709.537 532.357 710.454C529.916 711.371 527.78 712.899 526.559 714.733C525.033 716.873 524.423 719.318 524.423 722.069C524.423 724.82 525.033 727.57 526.559 730.321C528.085 733.072 529.916 735.212 532.357 737.046C534.799 738.879 537.24 740.102 540.292 740.408C542.123 740.713 543.954 740.713 545.785 740.408C547.616 740.102 549.447 739.796 551.278 738.879C551.278 734.906 551.278 730.627 551.278 726.654C548.532 726.348 545.785 725.737 543.039 725.431C542.428 727.876 542.428 730.016 542.428 732.461Z" fill="white"/>
<path d="M562.571 713.511C559.519 713.206 556.468 712.9 553.111 712.289C553.111 722.069 553.111 731.85 553.111 741.325C559.214 742.242 565.318 742.853 571.726 743.159C571.726 740.408 571.726 737.657 571.726 734.906C568.675 734.601 565.623 734.295 562.571 733.99C562.571 727.571 562.571 720.541 562.571 713.511Z" fill="white"/>
<path d="M595.833 716.872C593.392 715.344 590.645 714.733 587.899 714.733C584.847 714.733 582.1 715.039 579.964 716.261C577.523 717.484 575.692 719.318 574.166 721.457C572.64 723.597 572.03 726.348 572.03 729.098C572.03 731.849 572.64 734.6 574.166 737.045C575.692 739.49 577.523 741.324 579.964 742.852C582.406 744.381 585.152 745.298 587.899 745.298C590.951 745.298 593.392 744.686 595.833 743.464C598.275 742.241 600.106 740.407 601.632 737.962C603.158 735.517 603.768 733.072 603.768 730.015C603.768 727.264 603.158 724.514 601.632 722.374C600.106 720.235 598.275 718.095 595.833 716.872ZM593.392 733.683C592.782 734.6 592.171 735.517 590.951 736.128C590.035 736.74 588.814 737.045 587.594 737.045C586.373 737.045 585.152 736.74 584.237 736.128C583.321 735.517 582.406 734.6 581.795 733.683C581.185 732.766 580.88 731.544 580.88 730.015C580.88 728.793 581.185 727.57 581.795 726.653C582.406 725.736 583.016 724.819 584.237 724.208C585.152 723.597 586.373 723.291 587.594 723.597C588.814 723.597 590.035 723.902 590.951 724.514C591.866 725.125 592.782 726.042 593.392 726.959C594.002 727.876 594.308 729.098 594.308 730.321C594.308 731.544 594.002 732.46 593.392 733.683Z" fill="white"/>
<path d="M628.183 730.321C627.268 729.099 626.047 728.487 624.216 728.182C625.131 727.57 626.047 726.959 626.657 726.042C627.268 725.125 627.573 724.208 627.573 722.986C627.573 721.457 627.268 719.929 626.352 719.012C625.436 717.79 624.216 716.873 622.69 716.261C621.164 715.65 619.028 715.345 616.891 715.65C613.229 715.65 609.567 715.956 605.6 715.956C605.6 725.737 605.6 735.517 605.6 744.992C609.872 744.992 614.145 744.687 618.417 744.687C620.554 744.687 622.385 744.075 624.216 743.158C625.742 742.241 627.268 741.019 628.183 739.796C629.099 738.268 629.404 736.74 629.404 734.906C629.404 733.072 629.099 731.544 628.183 730.321ZM614.755 722.986C615.06 722.986 615.671 722.986 615.976 722.986C616.891 722.986 617.502 722.986 617.807 723.291C618.112 723.597 618.417 724.208 618.417 724.514C618.417 725.125 618.112 725.431 617.807 726.042C617.502 726.348 616.891 726.653 616.281 726.653C615.671 726.653 615.06 726.653 614.45 726.653C614.755 725.431 614.755 724.208 614.755 722.986ZM619.333 736.129C619.028 736.434 618.417 736.74 617.502 736.74C616.586 736.74 615.671 736.74 614.755 736.74C614.755 735.212 614.755 733.989 614.755 732.461C615.671 732.461 616.891 732.461 617.807 732.461C618.417 732.461 619.028 732.461 619.333 733.072C619.638 733.378 619.943 733.989 619.943 734.6C619.943 735.212 619.943 735.823 619.333 736.129Z" fill="white"/>
<path d="M638.864 713.817C635.507 723.903 632.15 733.99 628.793 743.77C632.15 743.465 635.202 743.159 638.559 742.853C638.864 741.325 639.475 739.797 639.78 738.269C642.527 737.963 645.273 737.657 648.02 737.352C648.325 738.88 648.935 740.408 649.24 741.631C652.597 741.325 655.954 740.714 659.311 740.103C655.954 730.933 652.597 721.764 649.546 712.289C645.883 713.206 642.527 713.511 638.864 713.817ZM641.916 730.627C642.527 728.182 643.137 725.737 643.747 723.292H644.052C644.663 725.431 645.273 727.877 645.883 730.016C644.663 730.322 643.442 730.322 641.916 730.627Z" fill="white"/>
<path d="M670.298 730.322C670.298 723.292 670.298 716.567 670.298 709.538C667.246 710.149 664.194 710.76 661.143 711.066C661.143 720.847 661.143 730.627 661.143 740.102C667.246 739.185 673.35 737.963 679.453 736.74C679.453 733.989 679.453 731.239 679.453 728.488C676.402 729.099 673.35 729.71 670.298 730.322Z" fill="white"/>
<path d="M590.037 750.8C588.511 750.8 586.985 750.8 585.154 750.494C584.239 750.494 583.628 751.105 583.628 751.717C583.628 753.245 583.628 754.773 583.628 756.607C583.628 757.524 584.239 758.135 585.154 758.135C586.68 758.135 588.206 758.135 590.037 758.441C590.953 758.441 591.563 757.83 591.563 756.913C591.563 755.384 591.563 753.856 591.563 752.022C591.563 751.411 590.953 750.8 590.037 750.8Z" fill="white"/>
<path d="M560.128 700.368C562.569 701.896 565.316 702.813 568.062 703.119C571.114 703.424 573.555 702.813 575.997 701.591C578.438 700.368 580.269 698.534 581.795 696.395C583.321 694.255 583.931 691.504 583.931 688.753C583.931 686.003 583.321 683.252 581.795 680.807C580.269 678.361 578.438 676.527 575.997 674.999C573.555 673.471 570.809 672.554 568.062 672.248C565.01 671.943 562.569 672.248 560.128 673.471C557.686 674.694 555.855 676.222 554.329 678.361C552.803 680.501 552.193 682.946 552.193 686.003C552.193 688.753 552.803 691.504 554.329 693.949C555.855 696.7 557.686 698.84 560.128 700.368ZM562.569 683.863C563.179 682.946 563.79 682.029 565.01 681.723C565.926 681.112 567.147 681.112 568.367 681.112C569.588 681.112 570.809 681.724 571.724 682.335C572.64 682.946 573.555 683.863 574.166 685.086C574.776 686.308 575.081 687.225 575.081 688.448C575.081 689.67 574.776 690.893 574.166 691.81C573.861 692.116 573.861 692.421 573.555 692.727C574.166 694.255 575.386 694.866 576.912 694.866C577.218 694.866 577.218 695.172 577.218 695.478C574.776 697.006 571.724 696.395 570.504 694.561C569.893 694.561 569.283 694.561 568.673 694.561C567.452 694.561 566.231 693.949 565.316 693.338C564.4 692.727 563.484 691.81 562.874 690.587C562.264 689.365 561.959 688.448 561.959 686.92C561.653 686.003 561.959 684.78 562.569 683.863Z" fill="white"/>
<path class="baloon__ropes" d="M647.409 812.235L614.45 896.288L615.671 895.677L645.273 821.71L647.409 812.235Z" fill="#2B2B2B"/>
<path d="M599.497 533.179C609.441 533.179 617.503 530.305 617.503 526.76C617.503 523.215 609.441 520.341 599.497 520.341C589.553 520.341 581.491 523.215 581.491 526.76C581.491 530.305 589.553 533.179 599.497 533.179Z" fill="white"/>
<path d="M576.304 917.072L593.089 910.042L591.868 881.617L573.252 892.926L576.304 917.072Z" fill="#683C11"/>
<path d="M612.011 916.155L591.869 907.292L591.869 881.617L615.673 895.677L612.011 916.155Z" fill="#936037"/>
<path d="M594.31 927.464L576.304 917.072L572.947 892.621L597.056 906.68L594.31 927.464Z" fill="#936037"/>
<path d="M594.31 927.465L612.621 916.461L615.672 895.677L597.056 906.681L594.31 927.465Z" fill="#683C11"/>
<path class="baloon__ropes" d="M553.415 830.574L573.252 892.926L574.167 893.231L555.857 833.936L553.415 830.574Z" fill="#2B2B2B"/>
<path class="baloon__ropes" d="M620.554 817.736L597.055 906.68L598.276 906.068L616.892 838.826L620.554 817.736Z" fill="#2B2B2B"/>
<path d="M600.108 601.949C655.56 601.949 700.512 582.244 700.512 557.936C700.512 533.628 655.56 513.923 600.108 513.923C544.657 513.923 499.705 533.628 499.705 557.936C499.705 582.244 544.657 601.949 600.108 601.949Z" fill="#1FB1DE"/>
<path d="M597.665 556.408C624.969 556.408 647.104 546.692 647.104 534.707C647.104 522.722 624.969 513.006 597.665 513.006C570.361 513.006 548.226 522.722 548.226 534.707C548.226 546.692 570.361 556.408 597.665 556.408Z" fill="#4BC8EF"/>
<path class="baloon__ropes" d="M583.628 849.524C582.407 849.524 581.492 849.524 580.271 849.524C568.979 848.301 559.519 842.494 553.415 831.796L552.5 828.74C558.603 839.132 569.59 847.079 580.576 847.996C593.089 849.218 606.211 842.8 617.198 830.268L617.808 829.351L618.418 830.268C625.132 842.8 632.151 845.55 636.119 844.328C640.086 843.105 642.222 837.604 641.307 830.268L642.833 828.74C643.748 836.992 641.307 844.328 636.424 845.856C631.846 847.384 624.522 844.328 617.198 831.796C607.127 843.411 595.225 849.524 583.628 849.524Z" fill="#2B2B2B"/>
<path opacity="0.23" d="M507.027 757.218L564.705 848.912C581.49 858.999 612.008 861.444 630.014 849.524L675.18 778.614C652.902 809.79 558.602 814.68 507.027 757.218Z" fill="#0A6C8B"/>
<g style="mix-blend-mode:multiply" opacity="0.42">
<path d="M608.958 746.215C534.495 746.215 471.933 697.006 453.012 629.763C453.012 630.069 453.012 630.374 453.012 630.68C452.707 652.075 458.81 679.584 469.492 697.617L564.707 848.912C581.492 858.999 612.01 861.444 630.016 849.524L723.4 703.119C725.231 700.673 726.757 697.617 728.283 694.866C698.681 726.348 656.261 746.215 608.958 746.215Z" fill="#0AA1D0" fill-opacity="0.5"/>
</g>
</g>
</svg>
