<svg width="1920" height="1131" viewBox="0 0 1920 1131" fill="none" xmlns="http://www.w3.org/2000/svg">
<path d="M12.1138 684.702L143.982 760.836L143.982 799.108L12.1138 722.974L12.1138 684.702Z" fill="#6DA8CD"/>
<rect width="170.779" height="38.2714" transform="matrix(0.866025 0.5 -2.20305e-08 1 -129.815 869.604)" fill="#6DA8CD"/>
<path d="M126.353 805.463L399 648.051L399 686.158L126.353 843.57L126.353 805.463Z" fill="#6DA8CD"/>
<rect width="314.882" height="38.1071" transform="matrix(0.866025 -0.5 2.20305e-08 1 18.084 955.051)" fill="#6DA8CD"/>
<rect width="315.128" height="200.885" transform="matrix(0.866025 -0.5 0.866025 0.5 -155.968 854.782)" fill="#E7F6FF"/>
<rect width="260.087" height="186.65" transform="matrix(0.866025 -0.5 0.866025 0.5 12.1138 684.77)" fill="#E6F6FF"/>
<rect width="206.309" height="109.203" transform="matrix(0.866025 -0.5 0.866025 0.5 180 1075.87)" fill="#E0E4E8"/>
<rect width="208.565" height="3.44248" transform="matrix(0.866025 -0.5 2.20305e-08 1 304.765 1086.91)" fill="#8FB3BE"/>
<rect width="113.927" height="3.27766" transform="matrix(0.866025 0.5 -2.20305e-08 1 206.102 1030.06)" fill="#8FB3BE"/>
<rect width="208.812" height="113.803" transform="matrix(0.866025 -0.5 0.866025 0.5 206.102 1030.14)" fill="#DFECF0"/>
<path d="M207.006 1030.14L360.608 1010.88L386.938 926.252" stroke="#8FB3BE"/>
<path d="M304.765 1087.56L321.318 1015.82M485.322 983.315L366.968 989.463" stroke="#8FB3BE"/>
<rect width="135.66" height="71.8074" transform="matrix(0.866025 -0.5 0.866025 0.5 724 995.064)" fill="#E0E4E8"/>
<rect width="137.143" height="2.26362" transform="matrix(0.866025 -0.5 2.20305e-08 1 804.827 969.717)" fill="#8FB3BE"/>
<rect width="74.9134" height="2.15525" transform="matrix(0.866025 0.5 -2.20305e-08 1 739.951 932.335)" fill="#8FB3BE"/>
<rect width="137.306" height="74.8316" transform="matrix(0.866025 -0.5 0.866025 0.5 739.951 932.383)" fill="#DFECF0"/>
<path d="M740.545 932.383L841.547 919.723L858.861 864.073" stroke="#8FB3BE"/>
<path d="M804.827 970.142L815.712 922.969M923.553 901.596L845.729 905.638" stroke="#8FB3BE"/>
<rect width="146.018" height="77.29" transform="matrix(0.866025 -0.5 0.866025 0.5 688 734.975)" fill="#E0E4E8"/>
<rect width="160.919" height="2.65606" transform="matrix(0.866025 -0.5 2.20305e-08 1 790.168 707.092)" fill="#8FB3BE"/>
<rect width="87.9009" height="2.52889" transform="matrix(0.866025 0.5 -2.20305e-08 1 714.044 663.229)" fill="#8FB3BE"/>
<rect width="161.11" height="87.8049" transform="matrix(0.866025 -0.5 0.866025 0.5 714.044 663.285)" fill="#DFECF0"/>
<path d="M714.742 663.285L833.254 648.43L853.569 583.132" stroke="#8FB3BE"/>
<path d="M790.168 707.59L802.939 652.238M929.477 627.16L838.161 631.903" stroke="#8FB3BE"/>
</svg>
