<svg width="1920" height="1131" viewBox="0 0 1920 1131" fill="none" xmlns="http://www.w3.org/2000/svg">
<path d="M515.722 865.194C506.838 845.377 482.844 827.327 459.267 817.911C457.855 817.287 456.279 816.758 455.075 816.254C443.536 811.881 431.342 808.847 418.865 807.175L418.492 807.151C417.165 806.957 415.674 806.859 414.139 806.545C413.932 806.426 413.766 806.521 413.559 806.401C412.067 806.303 410.74 806.109 409.249 806.011L408.876 805.986C401.209 805.375 393.628 805.195 385.966 805.541C385.801 805.636 385.636 805.731 385.263 805.707C371.299 804.894 353.379 808.283 335.976 815.213C335.645 815.403 335.272 815.379 334.942 815.57C334.239 815.736 333.743 816.022 332.874 816.284C332.006 816.545 331.18 817.022 330.311 817.284C329.816 817.57 329.112 817.736 328.617 818.022C327.583 818.379 326.922 818.761 326.096 819.238C325.6 819.524 324.897 819.69 324.401 819.976C323.575 820.453 322.542 820.81 321.716 821.287C321.22 821.573 320.89 821.764 320.394 822.05C319.03 822.598 317.708 823.361 316.387 824.124C315.065 824.887 313.908 825.554 312.587 826.317C312.091 826.604 311.761 826.794 311.265 827.08C310.439 827.557 309.613 828.034 308.995 828.631C308.499 828.917 308.004 829.203 307.716 829.61C306.89 830.086 306.437 830.588 305.611 831.065C305.115 831.351 304.827 831.757 304.332 832.043C303.878 832.545 303.052 833.022 302.599 833.523C302.104 833.809 301.816 834.215 301.32 834.501C300.867 835.003 300.206 835.384 299.588 835.981C299.3 836.387 298.805 836.673 298.517 837.079C298.064 837.581 297.61 838.082 297.157 838.584C296.869 838.99 296.374 839.276 296.086 839.682C295.633 840.184 295.015 840.78 294.562 841.282C294.274 841.688 293.778 841.974 293.49 842.38C292.749 843.288 292.173 844.1 291.432 845.007C291.31 845.318 291.022 845.724 290.734 846.13C290.281 846.632 290.036 847.253 289.748 847.659C289.46 848.065 289.007 848.567 288.927 849.093C288.639 849.499 288.351 849.905 288.271 850.431C287.983 850.837 287.738 851.458 287.45 851.865C287.162 852.271 286.874 852.677 286.794 853.203C286.714 853.729 286.26 854.23 286.18 854.756C285.892 855.162 285.978 855.593 285.69 855.999C285.444 856.62 285.364 857.146 285.076 857.553C284.954 857.863 284.873 858.389 284.751 858.7C284.505 859.321 284.425 859.847 284.18 860.469C284.057 860.779 283.935 861.09 283.977 861.305C283.732 861.927 283.694 862.668 283.449 863.29C283.284 863.385 283.491 863.505 283.326 863.6C282.925 866.23 282.69 868.765 282.827 871.324L282.87 871.54C282.832 872.281 283.002 873.142 282.965 873.884C283.007 874.099 283.05 874.314 282.885 874.41C282.847 875.151 283.182 875.917 283.145 876.658C283.187 876.873 283.23 877.089 283.272 877.304C283.608 878.07 283.57 878.811 283.905 879.577C283.948 879.793 284.156 879.912 283.99 880.008C284.326 880.774 284.496 881.635 284.831 882.401C285.039 882.521 284.874 882.616 285.081 882.736C287.056 888.073 290.314 893.388 294.814 898.466C294.814 898.466 294.814 898.466 295.022 898.586C295.73 899.376 296.438 900.167 297.354 901.077C297.354 901.077 297.562 901.197 297.397 901.292C298.105 902.083 298.979 902.778 299.895 903.688L300.102 903.808C300.811 904.598 301.892 905.413 302.765 906.109C302.558 905.989 302.35 905.869 302.35 905.869C318.993 920.247 354.534 936.188 386.244 940.189C386.99 940.238 387.943 940.407 388.689 940.456L506.325 962.971L508.109 963.62C508.482 963.644 508.69 963.764 509.063 963.789L560.229 981.503L578.666 990.048L595.476 988.499L597.91 978.458L585.393 969.133L562.478 943.504C562.643 943.409 562.809 943.313 562.766 943.098C564.371 940.972 560.749 937.546 554.81 934.498L518.858 870.82C518.102 868.858 517.016 867.086 515.722 865.194ZM560.944 943.19C560.613 943.381 560.448 943.477 560.118 943.667L557.86 939.693L560.944 943.19ZM563.697 971.105L546.167 961.557C548.027 960.723 549.844 959.673 551.496 958.72C553.148 957.766 554.593 956.692 555.829 955.498L572.723 970.212L563.697 971.105ZM515.488 964.637L526.02 966.712C531.817 966.243 537.982 964.843 543.604 962.557C544.1 962.27 544.803 962.104 545.133 961.914L562.828 971.367L560.683 981.001L512.835 964.25C513.581 964.299 514.534 964.468 515.488 964.637ZM584.647 969.084L573.799 970.07L556.778 954.711C559.581 952.133 561.431 949.386 561.747 946.325L560.618 944.338C561.156 944.267 561.487 944.076 561.817 943.885L584.647 969.084ZM561.562 942.594L555.438 935.815C560.546 938.383 562.879 940.874 561.562 942.594Z" fill="#E0E4E8"/>

</svg>
