<svg width="479" height="749" viewBox="0 0 479 749" fill="none" xmlns="http://www.w3.org/2000/svg">
<rect width="553.102" height="471.029" transform="matrix(0.866025 0.5 -2.20305e-08 1 0 0.431549)" fill="#952B2B"/>
<mask id="mask0" mask-type="alpha" maskUnits="userSpaceOnUse" x="0" y="0" width="479" height="749">
<rect width="553.102" height="471.029" transform="matrix(0.866025 0.5 -2.20305e-08 1 0 0.431549)" fill="#952B2B"/>
</mask>
<g mask="url(#mask0)">
<ellipse rx="10.0844" ry="12.0177" transform="matrix(0.866025 0.5 -2.20305e-08 1 479.981 509.441)" fill="#AB3C3C"/>
<ellipse rx="10.0844" ry="12.0177" transform="matrix(0.866025 0.5 -2.20305e-08 1 479.981 588.103)" fill="#AB3C3C"/>
<ellipse rx="10.0844" ry="12.0177" transform="matrix(0.866025 0.5 -2.20305e-08 1 479.981 666.764)" fill="#AB3C3C"/>
<ellipse rx="10.0844" ry="12.0177" transform="matrix(0.866025 0.5 -2.20305e-08 1 479.981 745.425)" fill="#AB3C3C"/>
<ellipse rx="10.0844" ry="12.0177" transform="matrix(0.866025 0.5 -2.20305e-08 1 464.896 461.401)" fill="#AB3C3C"/>
<ellipse rx="10.0844" ry="12.0177" transform="matrix(0.866025 0.5 -2.20305e-08 1 464.896 540.063)" fill="#AB3C3C"/>
<ellipse rx="10.0844" ry="12.0177" transform="matrix(0.866025 0.5 -2.20305e-08 1 464.896 618.724)" fill="#AB3C3C"/>
<ellipse rx="10.0844" ry="12.0177" transform="matrix(0.866025 0.5 -2.20305e-08 1 464.896 697.385)" fill="#AB3C3C"/>
<ellipse rx="10.0844" ry="12.0177" transform="matrix(0.866025 0.5 -2.20305e-08 1 448.621 491.335)" fill="#AB3C3C"/>
<ellipse rx="10.0844" ry="12.0177" transform="matrix(0.866025 0.5 -2.20305e-08 1 448.621 569.997)" fill="#AB3C3C"/>
<ellipse rx="10.0844" ry="12.0177" transform="matrix(0.866025 0.5 -2.20305e-08 1 448.621 648.658)" fill="#AB3C3C"/>
<ellipse rx="10.0844" ry="12.0177" transform="matrix(0.866025 0.5 -2.20305e-08 1 448.621 727.319)" fill="#AB3C3C"/>
<ellipse rx="10.0844" ry="12.0177" transform="matrix(0.866025 0.5 -2.20305e-08 1 433.536 443.295)" fill="#AB3C3C"/>
<ellipse rx="10.0844" ry="12.0177" transform="matrix(0.866025 0.5 -2.20305e-08 1 433.536 521.957)" fill="#AB3C3C"/>
<ellipse rx="10.0844" ry="12.0177" transform="matrix(0.866025 0.5 -2.20305e-08 1 433.536 600.618)" fill="#AB3C3C"/>
<ellipse rx="10.0844" ry="12.0177" transform="matrix(0.866025 0.5 -2.20305e-08 1 433.536 679.279)" fill="#AB3C3C"/>
<ellipse rx="10.0844" ry="12.0177" transform="matrix(0.866025 0.5 -2.20305e-08 1 417.26 473.229)" fill="#AB3C3C"/>
<ellipse rx="10.0844" ry="12.0177" transform="matrix(0.866025 0.5 -2.20305e-08 1 417.26 551.89)" fill="#AB3C3C"/>
<ellipse rx="10.0844" ry="12.0177" transform="matrix(0.866025 0.5 -2.20305e-08 1 417.26 630.552)" fill="#AB3C3C"/>
<ellipse rx="10.0844" ry="12.0177" transform="matrix(0.866025 0.5 -2.20305e-08 1 417.26 709.212)" fill="#AB3C3C"/>
<ellipse rx="10.0844" ry="12.0177" transform="matrix(0.866025 0.5 -2.20305e-08 1 402.175 425.189)" fill="#AB3C3C"/>
<ellipse rx="10.0844" ry="12.0177" transform="matrix(0.866025 0.5 -2.20305e-08 1 402.175 503.85)" fill="#AB3C3C"/>
<ellipse rx="10.0844" ry="12.0177" transform="matrix(0.866025 0.5 -2.20305e-08 1 402.175 582.512)" fill="#AB3C3C"/>
<ellipse rx="10.0844" ry="12.0177" transform="matrix(0.866025 0.5 -2.20305e-08 1 402.175 661.173)" fill="#AB3C3C"/>
<ellipse rx="10.0844" ry="12.0177" transform="matrix(0.866025 0.5 -2.20305e-08 1 385.899 455.123)" fill="#AB3C3C"/>
<ellipse rx="10.0844" ry="12.0177" transform="matrix(0.866025 0.5 -2.20305e-08 1 385.899 533.784)" fill="#AB3C3C"/>
<ellipse rx="10.0844" ry="12.0177" transform="matrix(0.866025 0.5 -2.20305e-08 1 385.899 612.446)" fill="#AB3C3C"/>
<ellipse rx="10.0844" ry="12.0177" transform="matrix(0.866025 0.5 -2.20305e-08 1 385.899 691.107)" fill="#AB3C3C"/>
<ellipse rx="10.0844" ry="12.0177" transform="matrix(0.866025 0.5 -2.20305e-08 1 370.814 407.083)" fill="#AB3C3C"/>
<ellipse rx="10.0844" ry="12.0177" transform="matrix(0.866025 0.5 -2.20305e-08 1 370.814 485.744)" fill="#AB3C3C"/>
<ellipse rx="10.0844" ry="12.0177" transform="matrix(0.866025 0.5 -2.20305e-08 1 370.814 564.405)" fill="#AB3C3C"/>
<ellipse rx="10.0844" ry="12.0177" transform="matrix(0.866025 0.5 -2.20305e-08 1 370.814 643.067)" fill="#AB3C3C"/>
<ellipse rx="10.0844" ry="12.0177" transform="matrix(0.866025 0.5 -2.20305e-08 1 354.539 437.017)" fill="#AB3C3C"/>
<ellipse rx="10.0844" ry="12.0177" transform="matrix(0.866025 0.5 -2.20305e-08 1 354.539 515.678)" fill="#AB3C3C"/>
<ellipse rx="10.0844" ry="12.0177" transform="matrix(0.866025 0.5 -2.20305e-08 1 354.539 594.34)" fill="#AB3C3C"/>
<ellipse rx="10.0844" ry="12.0177" transform="matrix(0.866025 0.5 -2.20305e-08 1 354.539 673)" fill="#AB3C3C"/>
<ellipse rx="10.0844" ry="12.0177" transform="matrix(0.866025 0.5 -2.20305e-08 1 339.454 388.977)" fill="#AB3C3C"/>
<ellipse rx="10.0844" ry="12.0177" transform="matrix(0.866025 0.5 -2.20305e-08 1 339.454 467.639)" fill="#AB3C3C"/>
<ellipse rx="10.0844" ry="12.0177" transform="matrix(0.866025 0.5 -2.20305e-08 1 339.454 546.3)" fill="#AB3C3C"/>
<ellipse rx="10.0844" ry="12.0177" transform="matrix(0.866025 0.5 -2.20305e-08 1 339.454 624.961)" fill="#AB3C3C"/>
<ellipse rx="10.0844" ry="12.0177" transform="matrix(0.866025 0.5 -2.20305e-08 1 323.178 418.911)" fill="#AB3C3C"/>
<ellipse rx="10.0844" ry="12.0177" transform="matrix(0.866025 0.5 -2.20305e-08 1 323.178 497.572)" fill="#AB3C3C"/>
<ellipse rx="10.0844" ry="12.0177" transform="matrix(0.866025 0.5 -2.20305e-08 1 323.178 576.233)" fill="#AB3C3C"/>
<ellipse rx="10.0844" ry="12.0177" transform="matrix(0.866025 0.5 -2.20305e-08 1 323.178 654.894)" fill="#AB3C3C"/>
<ellipse rx="10.0844" ry="12.0177" transform="matrix(0.866025 0.5 -2.20305e-08 1 308.093 370.871)" fill="#AB3C3C"/>
<ellipse rx="10.0844" ry="12.0177" transform="matrix(0.866025 0.5 -2.20305e-08 1 308.093 449.533)" fill="#AB3C3C"/>
<ellipse rx="10.0844" ry="12.0177" transform="matrix(0.866025 0.5 -2.20305e-08 1 308.093 528.193)" fill="#AB3C3C"/>
<ellipse rx="10.0844" ry="12.0177" transform="matrix(0.866025 0.5 -2.20305e-08 1 308.093 606.855)" fill="#AB3C3C"/>
<ellipse rx="10.0844" ry="12.0177" transform="matrix(0.866025 0.5 -2.20305e-08 1 291.817 400.805)" fill="#AB3C3C"/>
<ellipse rx="10.0844" ry="12.0177" transform="matrix(0.866025 0.5 -2.20305e-08 1 291.817 479.466)" fill="#AB3C3C"/>
<ellipse rx="10.0844" ry="12.0177" transform="matrix(0.866025 0.5 -2.20305e-08 1 291.817 558.127)" fill="#AB3C3C"/>
<ellipse rx="10.0844" ry="12.0177" transform="matrix(0.866025 0.5 -2.20305e-08 1 291.817 636.788)" fill="#AB3C3C"/>
<ellipse rx="10.0844" ry="12.0177" transform="matrix(0.866025 0.5 -2.20305e-08 1 276.733 352.765)" fill="#AB3C3C"/>
<ellipse rx="10.0844" ry="12.0177" transform="matrix(0.866025 0.5 -2.20305e-08 1 276.733 431.427)" fill="#AB3C3C"/>
<ellipse rx="10.0844" ry="12.0177" transform="matrix(0.866025 0.5 -2.20305e-08 1 276.733 510.087)" fill="#AB3C3C"/>
<ellipse rx="10.0844" ry="12.0177" transform="matrix(0.866025 0.5 -2.20305e-08 1 276.733 588.749)" fill="#AB3C3C"/>
<ellipse rx="10.0844" ry="12.0177" transform="matrix(0.866025 0.5 -2.20305e-08 1 260.457 382.698)" fill="#AB3C3C"/>
<ellipse rx="10.0844" ry="12.0177" transform="matrix(0.866025 0.5 -2.20305e-08 1 260.457 461.36)" fill="#AB3C3C"/>
<ellipse rx="10.0844" ry="12.0177" transform="matrix(0.866025 0.5 -2.20305e-08 1 260.457 540.021)" fill="#AB3C3C"/>
<ellipse rx="10.0844" ry="12.0177" transform="matrix(0.866025 0.5 -2.20305e-08 1 260.457 618.682)" fill="#AB3C3C"/>
<ellipse rx="10.0844" ry="12.0177" transform="matrix(0.866025 0.5 -2.20305e-08 1 245.372 334.659)" fill="#AB3C3C"/>
<ellipse rx="10.0844" ry="12.0177" transform="matrix(0.866025 0.5 -2.20305e-08 1 245.372 413.32)" fill="#AB3C3C"/>
<ellipse rx="10.0844" ry="12.0177" transform="matrix(0.866025 0.5 -2.20305e-08 1 245.372 491.981)" fill="#AB3C3C"/>
<ellipse rx="10.0844" ry="12.0177" transform="matrix(0.866025 0.5 -2.20305e-08 1 245.372 570.642)" fill="#AB3C3C"/>
<ellipse rx="10.0844" ry="12.0177" transform="matrix(0.866025 0.5 -2.20305e-08 1 229.096 364.592)" fill="#AB3C3C"/>
<ellipse rx="10.0844" ry="12.0177" transform="matrix(0.866025 0.5 -2.20305e-08 1 229.096 443.254)" fill="#AB3C3C"/>
<ellipse rx="10.0844" ry="12.0177" transform="matrix(0.866025 0.5 -2.20305e-08 1 229.096 521.915)" fill="#AB3C3C"/>
<ellipse rx="10.0844" ry="12.0177" transform="matrix(0.866025 0.5 -2.20305e-08 1 229.096 600.576)" fill="#AB3C3C"/>
<ellipse rx="10.0844" ry="12.0177" transform="matrix(0.866025 0.5 -2.20305e-08 1 214.011 316.553)" fill="#AB3C3C"/>
<ellipse rx="10.0844" ry="12.0177" transform="matrix(0.866025 0.5 -2.20305e-08 1 214.011 395.214)" fill="#AB3C3C"/>
<ellipse rx="10.0844" ry="12.0177" transform="matrix(0.866025 0.5 -2.20305e-08 1 214.011 473.875)" fill="#AB3C3C"/>
<ellipse rx="10.0844" ry="12.0177" transform="matrix(0.866025 0.5 -2.20305e-08 1 214.011 552.536)" fill="#AB3C3C"/>
<ellipse rx="10.0844" ry="12.0177" transform="matrix(0.866025 0.5 -2.20305e-08 1 197.736 346.486)" fill="#AB3C3C"/>
<ellipse rx="10.0844" ry="12.0177" transform="matrix(0.866025 0.5 -2.20305e-08 1 197.736 425.148)" fill="#AB3C3C"/>
<ellipse rx="10.0844" ry="12.0177" transform="matrix(0.866025 0.5 -2.20305e-08 1 197.736 503.809)" fill="#AB3C3C"/>
<ellipse rx="10.0844" ry="12.0177" transform="matrix(0.866025 0.5 -2.20305e-08 1 197.736 582.47)" fill="#AB3C3C"/>
<ellipse rx="10.0844" ry="12.0177" transform="matrix(0.866025 0.5 -2.20305e-08 1 182.651 298.447)" fill="#AB3C3C"/>
<ellipse rx="10.0844" ry="12.0177" transform="matrix(0.866025 0.5 -2.20305e-08 1 182.651 377.108)" fill="#AB3C3C"/>
<ellipse rx="10.0844" ry="12.0177" transform="matrix(0.866025 0.5 -2.20305e-08 1 182.651 455.769)" fill="#AB3C3C"/>
<ellipse rx="10.0844" ry="12.0177" transform="matrix(0.866025 0.5 -2.20305e-08 1 182.651 534.431)" fill="#AB3C3C"/>
<ellipse rx="10.0844" ry="12.0177" transform="matrix(0.866025 0.5 -2.20305e-08 1 166.375 328.38)" fill="#AB3C3C"/>
<ellipse rx="10.0844" ry="12.0177" transform="matrix(0.866025 0.5 -2.20305e-08 1 166.375 407.042)" fill="#AB3C3C"/>
<ellipse rx="10.0844" ry="12.0177" transform="matrix(0.866025 0.5 -2.20305e-08 1 166.375 485.703)" fill="#AB3C3C"/>
<ellipse rx="10.0844" ry="12.0177" transform="matrix(0.866025 0.5 -2.20305e-08 1 166.375 564.364)" fill="#AB3C3C"/>
<ellipse rx="10.0844" ry="12.0177" transform="matrix(0.866025 0.5 -2.20305e-08 1 151.29 280.341)" fill="#AB3C3C"/>
<ellipse rx="10.0844" ry="12.0177" transform="matrix(0.866025 0.5 -2.20305e-08 1 151.29 359.002)" fill="#AB3C3C"/>
<ellipse rx="10.0844" ry="12.0177" transform="matrix(0.866025 0.5 -2.20305e-08 1 151.29 437.663)" fill="#AB3C3C"/>
<ellipse rx="10.0844" ry="12.0177" transform="matrix(0.866025 0.5 -2.20305e-08 1 151.29 516.324)" fill="#AB3C3C"/>
<ellipse rx="10.0844" ry="12.0177" transform="matrix(0.866025 0.5 -2.20305e-08 1 135.014 310.274)" fill="#AB3C3C"/>
<ellipse rx="10.0844" ry="12.0177" transform="matrix(0.866025 0.5 -2.20305e-08 1 135.014 388.936)" fill="#AB3C3C"/>
<ellipse rx="10.0844" ry="12.0177" transform="matrix(0.866025 0.5 -2.20305e-08 1 135.014 467.597)" fill="#AB3C3C"/>
<ellipse rx="10.0844" ry="12.0177" transform="matrix(0.866025 0.5 -2.20305e-08 1 135.014 546.258)" fill="#AB3C3C"/>
<ellipse rx="10.0844" ry="12.0177" transform="matrix(0.866025 0.5 -2.20305e-08 1 119.93 262.235)" fill="#AB3C3C"/>
<ellipse rx="10.0844" ry="12.0177" transform="matrix(0.866025 0.5 -2.20305e-08 1 119.93 340.896)" fill="#AB3C3C"/>
<ellipse rx="10.0844" ry="12.0177" transform="matrix(0.866025 0.5 -2.20305e-08 1 119.93 419.557)" fill="#AB3C3C"/>
<ellipse rx="10.0844" ry="12.0177" transform="matrix(0.866025 0.5 -2.20305e-08 1 119.93 498.218)" fill="#AB3C3C"/>
<ellipse rx="10.0844" ry="12.0177" transform="matrix(0.866025 0.5 -2.20305e-08 1 103.654 292.169)" fill="#AB3C3C"/>
<ellipse rx="10.0844" ry="12.0177" transform="matrix(0.866025 0.5 -2.20305e-08 1 103.654 370.83)" fill="#AB3C3C"/>
<ellipse rx="10.0844" ry="12.0177" transform="matrix(0.866025 0.5 -2.20305e-08 1 103.654 449.491)" fill="#AB3C3C"/>
<ellipse rx="10.0844" ry="12.0177" transform="matrix(0.866025 0.5 -2.20305e-08 1 103.654 528.153)" fill="#AB3C3C"/>
<ellipse rx="77.8439" ry="92.7665" transform="matrix(0.866007 0.493528 0.0039403 1.00226 40.4449 86.2294)" fill="white"/>
<ellipse rx="67.1641" ry="80.0394" transform="matrix(0.866007 0.493528 0.0039403 1.00226 -0.892572 160.247)" fill="white"/>
<ellipse rx="67.1641" ry="80.0394" transform="matrix(0.866007 0.493528 0.0039403 1.00226 57.2044 228.428)" fill="white"/>
<ellipse rx="53.1617" ry="63.3527" transform="matrix(0.866007 0.493528 0.0039403 1.00226 148.27 284.567)" fill="white"/>
<ellipse rx="53.1617" ry="63.3527" transform="matrix(0.866007 0.493528 0.0039403 1.00226 209.789 283.989)" fill="white"/>
<ellipse rx="77.8439" ry="92.7665" transform="matrix(0.866007 0.493528 0.0039403 1.00226 146.214 178.748)" fill="white"/>
<path d="M340.282 532.632C342.056 603.284 332.975 639.946 316.672 654.071L470.031 742.439C456.515 710.4 448.955 670.989 447.604 623.713C447.392 616.965 447.35 610.082 447.435 602.982L340.282 532.632Z" fill="#E7C59C"/>
<path d="M540.185 662.751L237.901 488.227L278.617 246.185C283.432 223.218 306.535 154.942 392.612 203.418C475.606 250.172 511.971 341.042 516.744 382.97C518.729 404.11 540.185 662.751 540.185 662.751Z" fill="#111111"/>
<path d="M447.73 625.588C447.73 625.007 447.688 624.401 447.688 623.762C447.519 617.038 447.434 610.132 447.519 603.032L340.366 532.681C342.14 603.333 333.059 639.995 316.756 654.121L329.427 661.436C342.858 656.811 361.822 650.382 383.616 643.436C413.772 633.88 436.58 628.159 447.73 625.588Z" fill="#D6B287"/>
<path d="M487.052 478.231C487.052 478.231 482.702 461.015 483.251 460.17C483.8 459.325 472.65 430.453 472.65 430.453L446.041 406.953L411.28 401.937L395.695 392.416L395.569 392.343L395.442 392.27L379.857 383.795L345.096 348.673L318.488 341.447C318.488 341.447 307.337 357.444 307.886 358.923C308.436 360.403 304.085 372.595 304.085 372.595L302.818 424.172C308.267 443.94 312.786 442.539 312.786 442.539C312.786 442.539 314.433 464.355 319.586 487.032C324.739 509.71 360.301 589.757 394.259 608.607C395.16 609.127 396.061 609.647 396.962 610.167C430.92 630.528 466.483 591.546 471.636 574.818C476.789 558.091 478.436 538.177 478.436 538.177C478.436 538.177 482.955 544.796 488.404 531.319C488.404 531.319 499.005 501.464 495.457 483.956C493.81 476.03 487.052 478.231 487.052 478.231Z" fill="#E7C59C"/>
<path d="M393.246 422.096C398.314 424.79 411.956 462.947 411.956 462.947C411.956 462.947 402.495 423.194 403.34 414.615C404.185 406.036 411.492 405.779 402.495 396.923C402.242 396.661 401.946 396.374 401.693 396.111L395.695 392.474L395.569 392.401L395.442 392.328L380.955 384.429C379.73 384.884 378.801 385.568 378.928 386.804C379.223 389.474 381.757 399.48 381.757 401.98C381.757 404.479 379.519 421.145 377.829 424.471C376.14 427.796 373.901 431.095 371.663 433.058C369.424 435.078 361.4 444.336 357.598 443.303C353.797 442.271 336.396 437.804 331.454 433.788C326.555 429.797 316.967 415.776 316.418 414.878C315.869 413.98 307.844 397.2 307.295 393.396C306.915 390.793 305.057 382.339 303.958 377.288L302.818 424.172C302.903 424.453 302.987 424.734 303.029 424.933C305.226 431.374 307.971 437.608 309.534 440.37C311.519 442.911 312.744 442.514 312.744 442.514C312.744 442.514 314.391 464.33 319.544 487.008C324.57 509.205 358.696 586.157 391.894 607.183C391.936 606.859 391.979 606.709 391.979 606.709C391.979 606.709 381.546 600.104 381.715 574.687C381.588 557.992 389.867 567.363 391.429 557.048C383.7 551.423 378.801 529.764 387.501 528.219L389.74 518.411C382.856 512.286 382.729 496.753 389.191 497.636C389.191 497.636 390.543 494.406 390.543 488.652C390.543 482.956 391.81 476.655 385.812 464.3C382.771 458.185 388.177 419.46 393.246 422.096Z" fill="#D6B287"/>
<path d="M365.243 502.408C365.243 502.408 377.28 492.503 384.207 494.468C391.134 496.433 391.64 503.467 395.231 505.598C398.736 507.68 400.552 503.265 404.945 506.789C413.265 513.511 425.894 537.425 425.894 537.425C425.894 537.425 422.515 575.576 395.062 559.494C367.65 543.377 365.243 502.408 365.243 502.408Z" fill="#EA5757"/>
<path fill-rule="evenodd" clip-rule="evenodd" d="M389.207 497.596C387.992 496.251 386.43 495.098 384.207 494.468C377.28 492.503 365.243 502.408 365.243 502.408C365.243 502.408 367.433 539.679 391.42 557.107C391.423 557.088 391.426 557.068 391.429 557.048C383.7 551.423 378.801 529.764 387.501 528.22L389.74 518.411C382.855 512.286 382.729 496.753 389.191 497.636C389.191 497.636 389.196 497.623 389.207 497.596Z" fill="#952B2B"/>
<path d="M379.223 516.465C386.15 520.522 386.783 516.123 394.851 520.606C403.593 525.537 404.185 531.632 412.885 536.249C401.651 532.494 404.945 540.73 395.315 535.113C384.629 528.885 387.544 523.826 379.223 516.465Z" fill="#0F0226"/>
<path d="M384.291 468.711C385.221 468.783 386.783 469.336 387.712 472.023C388.642 474.768 388.388 476.772 387.332 476.686C386.319 476.623 384.334 474.199 383.7 474.182C383.024 474.198 382.095 475.58 380.828 473.628C379.561 471.676 383.067 468.295 384.291 468.711Z" fill="#0F0226"/>
<path d="M258.47 395.545C258.47 395.545 257.921 377.676 259.61 370.456C261.3 363.237 261.849 359.485 263.369 351.122C264.848 342.676 262.314 332.205 268.269 332.33C274.266 332.422 278.025 335.057 285.417 335.082C293.864 335.135 297.75 347.201 305.394 351.614C313.039 356.028 317.854 349.741 317.854 349.741C317.854 349.741 304.17 330.507 295.384 320.03C286.599 309.553 265.777 303.459 263.919 302.619C262.06 301.778 234.522 319.937 232.664 326.304C230.805 332.728 233.593 354.389 235.114 360.439C236.634 366.49 235.494 387.743 236.972 392.955C238.45 398.168 244.279 405.95 245.208 407.242C246.137 408.534 258.47 395.545 258.47 395.545Z" fill="#D6B288"/>
<path d="M263.454 624.335C263.454 624.335 299.693 534.713 304.465 509.629C309.238 484.545 313.715 417.561 314.306 415.17C314.855 412.756 301.678 378.529 301.678 378.529C294.92 385.089 289.852 429.821 286.515 435.101C273.126 456.141 253.655 384.454 255.345 372.295C257.034 360.135 239.042 343.935 238.788 345.358C238.493 346.757 226.16 420.771 228.103 426.136C230.088 431.525 236.803 458.592 243.561 471.386C250.319 484.18 259.019 507.394 259.568 512.303C260.117 517.269 264.045 568.59 263.201 573.159C262.356 577.728 263.454 624.335 263.454 624.335Z" fill="#D6B288"/>
<path d="M495.288 446.08C494.148 438.273 488.023 438.05 482.913 432.542C471.72 420.443 456.346 405.813 445.407 399.497C434.257 393.059 420.066 389.341 410.858 394.138C410.351 394.427 409.675 394.269 409 393.763C403.636 389.678 398.356 386.106 393.246 383.098C393.119 383.025 393.034 382.976 392.908 382.903C392.781 382.83 392.697 382.781 392.57 382.708C387.417 379.791 382.18 377.29 376.816 375.181C376.14 374.907 375.464 374.285 374.957 373.411C365.75 357.924 351.559 345.313 340.408 338.876C329.469 332.56 314.095 329.438 302.903 328.613C297.834 328.244 291.668 321.371 290.527 327.862C289.429 334.26 300.791 344.598 300.622 359.611C300.368 387.886 312.406 426.917 338.972 442.43C369.044 460.025 384.334 432.701 384.334 404.281C384.334 401.782 384.123 399.277 383.742 396.849C383.489 395.249 382.306 392.533 383.362 390.352C384.418 388.172 388.642 389.158 392.865 391.48C396.962 393.962 400.764 397.842 402.242 401.02C404.143 405.023 402.242 405.96 402.031 407.117C401.608 409.198 401.397 411.517 401.397 414.132C401.397 442.553 416.687 487.531 446.759 504.661C473.325 519.824 485.363 494.692 485.109 466.125C485.025 450.965 496.386 453.747 495.288 446.08Z" fill="#FDFEE9"/>
<path d="M376.816 407.437C376.816 432.429 359.119 447.087 338.043 435.674C318.403 425.032 305.521 396.033 305.521 371.041C305.521 346.05 315.7 332.166 341.126 346.322C360.808 357.279 376.816 382.388 376.816 407.437Z" fill="#007EA6"/>
<path d="M408.493 425.726C408.493 450.718 426.19 485.81 447.266 498.734C466.905 510.771 479.787 496.645 479.787 471.654C479.787 446.662 469.609 421.025 444.182 405.822C424.5 394.052 408.493 400.677 408.493 425.726Z" fill="#007EA6"/>
<path d="M401.144 478.441C400.214 477.439 398.652 476.188 397.723 477.802C396.793 479.474 397.047 481.771 398.103 482.903C399.159 484.036 401.101 483.879 401.735 484.594C402.411 485.391 403.34 487.845 404.607 487.356C405.874 486.867 402.411 479.463 401.144 478.441Z" fill="#0F0226"/>
<path d="M333.397 390.449C332.383 389.399 325.414 363.929 325.414 363.929L318.108 360.175C318.108 360.175 312.786 380.874 312.448 379.284C312.237 378.29 309.998 363.397 308.309 352.193C306.408 357.198 305.479 363.636 305.479 371.017C305.479 384.036 308.942 398.067 315.024 410.064L317.727 411.101L322.373 382.689L333.313 421.436L346.913 426.556L351.221 362.322L334.284 349.347C334.411 349.42 334.411 391.499 333.397 390.449Z" fill="#EA5757"/>
<path d="M366.933 411.263C366.933 403.475 371.072 399.355 376.478 401.256C375.887 395.625 374.577 390.104 372.634 384.797C363.047 382.749 355.993 390.649 355.993 404.947C355.993 415.234 359.668 426.422 365.285 435.245C367.946 433.236 370.269 430.567 372.085 427.373C368.96 422.72 366.933 416.726 366.933 411.263Z" fill="#EA5757"/>
<path d="M451.869 458.848C452.883 458.968 459.852 441.546 459.852 441.546L467.159 446.229C467.159 446.229 472.481 473.073 472.818 471.873C473.03 471.123 475.268 458.816 476.958 449.562C478.858 456.762 479.787 464.273 479.787 471.654C479.787 484.673 476.324 494.704 470.242 499.678L467.539 497.594L462.893 463.818L451.869 489.884L438.269 479.301L433.961 410.092L450.898 416.673C450.898 416.673 450.898 458.752 451.869 458.848Z" fill="#EA5757"/>
<path d="M418.376 440.964C418.376 433.176 414.237 424.277 408.831 419.935C409.422 414.987 410.731 410.977 412.674 407.915C422.262 416.937 429.315 432.982 429.315 447.28C429.315 457.567 425.641 464.512 420.023 466.848C417.362 461.767 415.039 456.415 413.223 451.124C416.306 450.056 418.376 446.427 418.376 440.964Z" fill="#EA5757"/>
<path d="M240.097 493.68C240.097 493.68 248.714 442.627 249.896 433.08C251.079 423.534 252.81 359.265 253.359 356.037C253.528 355.204 253.275 326.696 258.301 314.428C270.592 306.762 267.762 302.222 271.732 297.54C295.722 299.302 299.059 281.293 296.82 268.667C284.361 271.121 271.268 268.56 266.115 270.874C260.962 273.188 255.218 274.463 249.516 278.146C243.814 281.828 245.377 281.626 240.435 290.978C235.494 300.33 231.017 314.368 229.876 320.742C228.736 327.116 218.135 341.57 218.05 355.993C217.966 370.474 217.67 383.38 217.417 390.325C217.163 397.269 218.43 418.459 219.444 423.81C220.5 429.243 227.764 464.183 229.031 468.227C230.299 472.272 237.099 498.864 237.099 498.864L240.097 501.758L240.097 493.68Z" fill="#D6B288"/>
<path d="M231.355 424.759C231.355 423.945 221.049 353.075 220.373 336.179C219.697 319.283 223.541 267.334 225.23 258.487C227.173 248.45 234.987 233.723 241.153 219.848C250.234 236.25 250.319 260.127 242.758 276.453C241.829 278.416 240.689 287.987 241.28 291.001C247.235 321.698 241.871 342.372 240.309 354.372C238.45 368.411 238.45 395.262 239.971 412.123C241.491 428.926 241.153 438.495 241.322 445.625C241.491 452.697 239.295 453.695 239.295 453.695L231.355 424.759Z" fill="#D6B288"/>
<path d="M263.454 624.334C263.454 624.334 279.757 582.718 279.461 558.195C279.166 533.672 272.45 499.63 258.386 458.672C244.321 417.714 231.861 407.499 222.569 326.869C220.88 312.061 221.176 290.611 216.15 265.101C211.123 239.59 197.904 225.158 197.904 225.158L203.648 287.524C203.648 287.524 207.871 337.504 207.449 339.004C207.027 340.504 209.983 401.9 213.784 420.949C217.586 439.999 234.86 493.446 233.593 521.658C232.326 549.928 213.784 595.657 213.784 595.657L263.454 624.334Z" fill="#E7C59C"/>
</g>
</svg>
