<svg viewBox="0 0 41 41" fill="none" xmlns="http://www.w3.org/2000/svg">
<path d="M36.5441 3.56396H25.8481C25.3561 3.56396 24.9568 3.96331 24.9568 4.45533C24.9568 4.94734 25.3561 5.34669 25.8481 5.34669H36.5441C37.0362 5.34669 37.4355 4.94734 37.4355 4.45533C37.4355 3.96331 37.0362 3.56396 36.5441 3.56396Z" fill="white"/>
<path d="M37.1754 3.82607L33.61 0.260715C33.2624 -0.0869049 32.6972 -0.0869049 32.3496 0.260715C32.002 0.608335 32.002 1.17347 32.3496 1.52109L35.2839 4.45538L32.3479 7.39143C32.0003 7.73905 32.0003 8.30419 32.3479 8.65181C32.5226 8.8247 32.7507 8.9121 32.9789 8.9121C33.2071 8.9121 33.4353 8.82478 33.61 8.65181L37.1754 5.08645C37.523 4.73874 37.523 4.17369 37.1754 3.82607Z" fill="white"/>
<path d="M13.3696 3.56396H2.67359C2.18157 3.56396 1.78223 3.96331 1.78223 4.45533C1.78223 4.94734 2.18157 5.34669 2.67359 5.34669H13.3696C13.8616 5.34669 14.2609 4.94734 14.2609 4.45533C14.2609 3.96331 13.8616 3.56396 13.3696 3.56396Z" fill="white"/>
<path d="M3.93381 4.45538L6.8681 1.52109C7.21572 1.17347 7.21572 0.608335 6.8681 0.260715C6.52048 -0.086905 5.95535 -0.086905 5.60773 0.260715L2.04245 3.82616C1.69483 4.17378 1.69483 4.73891 2.04245 5.08653L5.60781 8.65189C5.78254 8.82478 6.01067 8.91219 6.23888 8.91219C6.46708 8.91219 6.69521 8.82486 6.86818 8.65014C7.2158 8.30252 7.2158 7.73738 6.86818 7.38976L3.93381 4.45538Z" fill="white"/>
<path d="M35.6528 17.8253C34.9201 17.8253 34.2373 18.0482 33.6704 18.4279C33.182 17.041 31.8574 16.0427 30.3048 16.0427C29.5721 16.0427 28.8893 16.2655 28.3224 16.6452C27.834 15.2584 26.5094 14.26 24.9568 14.26C24.3079 14.26 23.6982 14.4348 23.1741 14.7396V8.91204C23.1741 6.94573 21.5751 5.34668 19.6088 5.34668C17.6425 5.34668 16.0434 6.94573 16.0434 8.91204V24.0647L12.9452 21.7419C11.109 20.3639 8.49563 20.5475 6.86808 22.1733C5.82522 23.2162 5.82522 24.9115 6.86808 25.9543L19.5625 38.6505C21.0777 40.1657 23.0939 41 25.2367 41H29.4135C34.8186 41 39.2181 36.6022 39.2181 31.1954V21.3907C39.2181 19.4244 37.6191 17.8253 35.6528 17.8253ZM37.4355 31.1953C37.4355 35.6181 33.8363 39.2173 29.4135 39.2173H25.2367C23.5681 39.2173 22.0012 38.5684 20.8228 37.39L8.12845 24.694C7.78084 24.3464 7.78084 23.7812 8.12845 23.4336C8.68105 22.8828 9.41908 22.5993 10.1607 22.5993C10.7633 22.5993 11.3693 22.7865 11.8774 23.168L16.4001 26.5603C16.671 26.7636 17.0347 26.7939 17.3342 26.6442C17.6354 26.4927 17.8262 26.1842 17.8262 25.8473V8.91204C17.8262 7.92976 18.6248 7.1294 19.6089 7.1294C20.5929 7.1294 21.3915 7.92985 21.3915 8.91204V22.282C21.3915 22.774 21.7908 23.1734 22.2828 23.1734C22.7749 23.1734 23.1742 22.774 23.1742 22.282V17.8254C23.1742 16.8431 23.9728 16.0428 24.9568 16.0428C25.9409 16.0428 26.7395 16.8432 26.7395 17.8254V22.282C26.7395 22.774 27.1388 23.1734 27.6308 23.1734C28.1229 23.1734 28.5222 22.774 28.5222 22.282V19.608C28.5222 18.6258 29.3208 17.8254 30.3048 17.8254C31.2889 17.8254 32.0875 18.6258 32.0875 19.608V22.282C32.0875 22.774 32.4868 23.1734 32.9788 23.1734C33.4709 23.1734 33.8702 22.774 33.8702 22.282V21.3907C33.8702 20.4084 34.6688 19.608 35.6528 19.608C36.6369 19.608 37.4355 20.4085 37.4355 21.3907V31.1953Z" fill="white"/>
</svg>
