<svg width="80" height="46" viewBox="0 0 80 46" fill="none" xmlns="http://www.w3.org/2000/svg">
<path d="M9.45499 12.463C9.05341 12.5398 8.64544 12.5768 8.23682 12.5737C7.60362 12.5845 6.97807 12.4321 6.41865 12.1308C5.88833 11.8234 5.44885 11.3773 5.14593 10.8391C4.83794 10.2741 4.67535 9.63938 4.67321 8.99368C4.67434 8.34547 4.84366 7.70899 5.16411 7.14829C5.47667 6.60963 5.92967 6.169 6.47319 5.87496C7.03627 5.58361 7.65934 5.43184 8.29136 5.43207C9.1691 5.348 10.0545 5.41665 10.9095 5.63506C11.7609 5.91535 12.5831 6.28004 13.364 6.72384L13.1822 2.11036C11.6765 1.3549 10.0252 0.945357 8.34591 0.910854C6.8992 0.904295 5.47395 1.26594 4.20049 1.96273C2.95755 2.65112 1.90669 3.64788 1.14597 4.86C0.386158 6.06591 -0.0118092 7.47004 0.000522272 8.90141C-0.0115131 10.3276 0.372887 11.7283 1.1096 12.9428C1.84207 14.1571 2.86858 15.1609 4.0914 15.8585C5.31923 16.573 6.71248 16.9425 8.12773 16.9289C9.06678 16.9279 10.0018 16.8038 10.9095 16.5598C11.9031 16.2639 12.856 15.8423 13.7459 15.3049V8.91986H9.45499V12.463Z" fill="#EA5757"/>
<path d="M9.45492 33.8327C9.05334 33.9095 8.64538 33.9466 8.23675 33.9435C7.60139 33.9536 6.97452 33.7945 6.41859 33.4821C5.8856 33.1865 5.44474 32.7455 5.14587 32.2088C4.82587 31.6153 4.66299 30.9476 4.67315 30.2711C4.67428 29.6229 4.84359 28.9864 5.16405 28.4257C5.47661 27.8871 5.92961 27.4465 6.47313 27.1524C7.03489 26.8553 7.65789 26.6972 8.2913 26.6911C9.12917 26.6866 9.96288 26.811 10.764 27.0602C11.6124 27.3484 12.4338 27.7128 13.2185 28.1489L13.0913 23.5539C11.5884 22.7903 9.93537 22.3803 8.25493 22.3544C6.80823 22.3478 5.38298 22.7095 4.10952 23.4063C2.90476 24.0813 1.88586 25.0521 1.1459 26.2297C0.386096 27.4356 -0.0118716 28.8398 0.000459949 30.2711C-0.0141082 31.6919 0.370616 33.0874 1.10954 34.2941C1.83683 35.5126 2.86456 36.5176 4.09133 37.2098C5.31772 37.9299 6.71086 38.3057 8.12766 38.2986C9.06806 38.2997 10.0041 38.1693 10.9095 37.9111C11.9122 37.6248 12.8723 37.2027 13.764 36.6562V30.2896H9.45492V33.8327Z" fill="#EA5757"/>
<path d="M19.8551 22.6866H15.037V37.8926H24.5824V33.556H19.8551V22.6866Z" fill="#EA5757"/>
<path d="M36.9635 23.3325C35.6907 22.6427 34.27 22.2818 32.8271 22.2818C31.3843 22.2818 29.9636 22.6427 28.6908 23.3325C27.4763 24.012 26.4602 25.0051 25.7454 26.2113C25.0297 27.4399 24.6587 28.8439 24.6727 30.2712C24.655 31.6922 25.0199 33.0912 25.728 34.3172C26.4361 35.5432 27.4605 36.5497 28.6908 37.2283C29.9596 37.9309 31.3818 38.2991 32.8271 38.2991C34.2725 38.2991 35.6947 37.9309 36.9635 37.2283C38.189 36.5457 39.2087 35.5378 39.9133 34.3123C40.6179 33.0868 40.9809 31.6899 40.9634 30.2712C40.9859 28.8428 40.6144 27.4365 39.8907 26.2113C39.1878 25.0019 38.1766 24.0074 36.9635 23.3325ZM35.7271 32.0981C35.4459 32.6234 35.0316 33.0629 34.5271 33.3714C34.0135 33.674 33.4301 33.8332 32.8362 33.8328C32.2369 33.8313 31.6481 33.6723 31.1272 33.3714C30.6226 33.0629 30.2084 32.6234 29.9272 32.0981C29.6311 31.53 29.481 30.8953 29.4908 30.2527C29.4753 29.6095 29.6257 28.9733 29.9272 28.4073C30.1983 27.8746 30.6149 27.4325 31.1272 27.134C31.6432 26.8192 32.2341 26.6533 32.8362 26.6542C33.4329 26.651 34.0186 26.8172 34.5271 27.134C35.0394 27.4325 35.456 27.8746 35.7271 28.4073C36.0286 28.9733 36.179 29.6095 36.1635 30.2527C36.1733 30.8953 36.0232 31.53 35.7271 32.0981Z" fill="#EA5757"/>
<path d="M53.4729 30.8063C52.9625 30.1576 52.2515 29.7025 51.4548 29.5146C51.9776 29.3009 52.4311 28.9429 52.7639 28.4811C53.0955 28.0146 53.2679 27.4508 53.2548 26.8756C53.2667 26.0896 53.031 25.3202 52.582 24.6796C52.0871 24.0154 51.4198 23.5042 50.6548 23.2033C49.7157 22.8372 48.715 22.6617 47.7093 22.6866H42.0003V37.8188H48.6184C49.6307 37.8394 50.6353 37.6379 51.5639 37.2283C52.3625 36.8785 53.0445 36.3017 53.5275 35.5674C53.9976 34.8325 54.2384 33.9707 54.2184 33.0946C54.2292 32.2687 53.9667 31.4629 53.4729 30.8063ZM46.7094 26.6173H47.3821C47.7317 26.5847 48.0809 26.6831 48.3639 26.8941C48.462 26.9816 48.5404 27.0895 48.5938 27.2105C48.6471 27.3315 48.6741 27.4628 48.673 27.5953C48.6769 27.7277 48.6548 27.8595 48.608 27.9831C48.5612 28.1066 48.4905 28.2195 48.4003 28.315C48.3028 28.4191 48.1836 28.4996 48.0515 28.5507C47.9193 28.6018 47.7776 28.6222 47.6366 28.6103H46.7094V26.6173ZM49.0912 33.5744C48.8215 33.8006 48.4765 33.9129 48.1275 33.8881H46.7639V31.6921H48.2912C48.444 31.686 48.5966 31.7106 48.7401 31.7644C48.8836 31.8183 49.0153 31.9003 49.1275 32.0058C49.228 32.1032 49.3074 32.2208 49.3606 32.3511C49.4138 32.4814 49.4397 32.6215 49.4366 32.7624C49.4371 32.9146 49.4067 33.0653 49.3472 33.205C49.2878 33.3447 49.2006 33.4704 49.0912 33.5744Z" fill="#EA5757"/>
<path d="M58.9641 22.6866L53.8732 37.8188H58.9096L59.5459 35.4567H63.7641L64.4004 37.8188H69.6549L64.564 22.6128L58.9641 22.6866ZM60.6186 31.526L61.6004 27.8352H61.8186L62.8004 31.526H60.6186Z" fill="#EA5757"/>
<path d="M75.2726 33.556V22.6866H70.4727V37.8926H79.9998V33.556H75.2726Z" fill="#EA5757"/>
<path d="M34.0185 41.1221H31.564C31.1623 41.1221 30.8367 41.4526 30.8367 41.8602V44.3515C30.8367 44.7592 31.1623 45.0897 31.564 45.0897H34.0185C34.4202 45.0897 34.7458 44.7592 34.7458 44.3515V41.8602C34.7458 41.4526 34.4202 41.1221 34.0185 41.1221Z" fill="#EA5757"/>
<path d="M18.5644 15.8771C19.8347 16.5822 21.2621 16.9444 22.7098 16.929C24.1521 16.9471 25.5743 16.5846 26.837 15.8771C28.0523 15.1903 29.0681 14.1911 29.7825 12.9798C30.5179 11.7503 30.9078 10.3399 30.9097 8.90151C30.9237 7.47424 30.5527 6.07029 29.837 4.84164C29.1071 3.62826 28.0715 2.63448 26.837 1.96283C25.5743 1.25532 24.1521 0.89286 22.7098 0.910955C21.2621 0.895528 19.8347 1.25772 18.5644 1.96283C17.3513 2.63776 16.34 3.63229 15.6371 4.84164C14.9071 6.06499 14.5292 7.47138 14.5462 8.90151C14.5287 10.3375 14.9066 11.75 15.6371 12.9798C16.3396 14.1943 17.3506 15.1949 18.5644 15.8771ZM19.8007 7.11148C20.0944 6.5895 20.5135 6.15146 21.0189 5.83816C21.5324 5.53508 22.1158 5.37542 22.7098 5.37542C23.3038 5.37542 23.8872 5.53508 24.4007 5.83816C24.9052 6.14664 25.3195 6.58621 25.6007 7.11148C25.9021 7.67749 26.0526 8.31365 26.037 8.95687C26.0526 9.60009 25.9021 10.2363 25.6007 10.8023C25.5126 10.9716 25.4091 11.1322 25.2916 11.2821C25.4426 11.6141 25.6874 11.8931 25.995 12.0837C26.3025 12.2743 26.6589 12.3678 27.0189 12.3524C27.0514 12.359 27.0816 12.3744 27.1061 12.3972C27.1306 12.4199 27.1485 12.449 27.1579 12.4813C27.1672 12.5137 27.1677 12.548 27.1592 12.5805C27.1507 12.6131 27.1336 12.6427 27.1098 12.6661C26.6003 13.0721 25.9574 13.2657 25.3122 13.2074C24.667 13.1491 24.0679 12.8434 23.6371 12.3524C23.3398 12.428 23.0344 12.4652 22.728 12.4631C22.125 12.4708 21.5323 12.3044 21.0189 11.9833C20.5135 11.67 20.0944 11.232 19.8007 10.71C19.4993 10.144 19.3489 9.50782 19.3644 8.8646C19.3644 8.25254 19.5143 7.65009 19.8007 7.11148Z" fill="#EA5757"/>
</svg>
