<svg width="81" height="45" viewBox="0 0 81 45" fill="none" xmlns="http://www.w3.org/2000/svg">
<path d="M10.0133 11.5527C9.6121 11.6295 9.20456 11.6666 8.79636 11.6635C8.16382 11.6742 7.53892 11.5218 6.98009 11.2206C6.45032 10.9131 6.0113 10.4671 5.70869 9.92879C5.40102 9.36381 5.2386 8.7291 5.23646 8.0834C5.23759 7.43519 5.40673 6.79871 5.72686 6.23801C6.03909 5.69935 6.49162 5.25872 7.03457 4.96469C7.59706 4.67334 8.21949 4.52156 8.85085 4.52179C9.72768 4.43772 10.6122 4.50637 11.4663 4.72478C12.3168 5.00507 13.1381 5.36976 13.9183 5.81357L13.7366 1.20008C12.2324 0.444617 10.5829 0.0350786 8.90534 0.000575932C7.46013 -0.00598303 6.03637 0.355664 4.76423 1.05245C3.52259 1.74084 2.47282 2.7376 1.71289 3.94972C0.953872 5.15564 0.556319 6.55976 0.568637 7.99113C0.556614 9.41731 0.940615 10.818 1.67656 12.0325C2.40827 13.2468 3.43371 14.2506 4.65525 14.9483C5.88181 15.6627 7.27361 16.0322 8.68738 16.0186C9.62546 16.0176 10.5595 15.8935 11.4663 15.6495C12.4588 15.3536 13.4107 14.932 14.2997 14.3946V8.00959H10.0133V11.5527Z" fill="white"/>
<path d="M10.0131 32.9223C9.61198 32.999 9.20444 33.0361 8.79624 33.033C8.16154 33.0431 7.53531 32.884 6.97996 32.5717C6.44753 32.2761 6.00712 31.835 5.70857 31.2983C5.3889 30.7048 5.22619 30.0372 5.23634 29.3607C5.23747 28.7125 5.40661 28.076 5.72673 27.5153C6.03896 26.9766 6.49149 26.536 7.03445 26.242C7.59562 25.9449 8.21797 25.7868 8.85073 25.7806C9.68773 25.7761 10.5206 25.9006 11.3209 26.1497C12.1684 26.438 12.9889 26.8023 13.7728 27.2385L13.6457 22.6434C12.1444 21.8798 10.4931 21.4698 8.8144 21.4439C7.3692 21.4374 5.94543 21.799 4.67329 22.4958C3.46979 23.1709 2.45196 24.1416 1.71277 25.3193C0.953748 26.5252 0.556195 27.9293 0.568514 29.3607C0.553961 30.7814 0.938285 32.1769 1.67644 33.3836C2.40297 34.6021 3.42963 35.6071 4.65513 36.2994C5.88024 37.0195 7.27193 37.3953 8.68726 37.3881C9.62668 37.3893 10.5618 37.2589 11.4662 37.0006C12.4678 36.7143 13.427 36.2922 14.3177 35.7457V29.3791H10.0131V32.9223Z" fill="white"/>
<path d="M20.4025 21.7764H15.5894V36.9824H25.1248V32.6457H20.4025V21.7764Z" fill="white"/>
<path d="M37.493 22.4222C36.2215 21.7324 34.8023 21.3716 33.361 21.3716C31.9196 21.3716 30.5004 21.7324 29.2289 22.4222C28.0157 23.1018 27.0007 24.0949 26.2866 25.301C25.5716 26.5297 25.201 27.9336 25.215 29.3609C25.1973 30.7819 25.5619 32.1809 26.2692 33.4069C26.9766 34.6329 27.9999 35.6395 29.2289 36.318C30.4964 37.0206 31.9171 37.3888 33.361 37.3888C34.8048 37.3888 36.2255 37.0206 37.493 36.318C38.7173 35.6355 39.7359 34.6275 40.4397 33.402C41.1436 32.1766 41.5062 30.7797 41.4888 29.3609C41.5112 27.9326 41.1401 26.5263 40.4172 25.301C39.715 24.0917 38.7048 23.0972 37.493 22.4222ZM36.2579 31.1878C35.977 31.7131 35.5632 32.1527 35.0592 32.4612C34.5461 32.7638 33.9633 32.9229 33.37 32.9225C32.7713 32.921 32.1831 32.7621 31.6627 32.4612C31.1587 32.1527 30.7449 31.7131 30.464 31.1878C30.1682 30.6198 30.0183 29.985 30.0281 29.3425C30.0126 28.6992 30.1629 28.0631 30.464 27.4971C30.7348 26.9644 31.151 26.5223 31.6627 26.2237C32.1783 25.909 32.7686 25.7431 33.37 25.7439C33.9661 25.7407 34.5512 25.9069 35.0592 26.2237C35.5709 26.5223 35.9871 26.9644 36.2579 27.4971C36.559 28.0631 36.7093 28.6992 36.6938 29.3425C36.7036 29.985 36.5537 30.6198 36.2579 31.1878Z" fill="white"/>
<path d="M53.9854 29.896C53.4755 29.2473 52.7652 28.7922 51.9693 28.6042C52.4916 28.3906 52.9446 28.0326 53.277 27.5708C53.6084 27.1042 53.7806 26.5405 53.7674 25.9653C53.7793 25.1793 53.5439 24.4099 53.0954 23.7693C52.601 23.1051 51.9343 22.5939 51.1701 22.293C50.232 21.9269 49.2324 21.7513 48.2278 21.7763H42.5247V36.9085H49.1359C50.1471 36.929 51.1507 36.7276 52.0783 36.318C52.8761 35.9682 53.5573 35.3914 54.0398 34.6571C54.5095 33.9222 54.7501 33.0603 54.73 32.1843C54.7408 31.3583 54.4786 30.5526 53.9854 29.896ZM47.2288 25.7069H47.9008C48.2501 25.6743 48.599 25.7728 48.8816 25.9838C48.9796 26.0712 49.058 26.1792 49.1112 26.3002C49.1645 26.4212 49.1915 26.5524 49.1904 26.685C49.1943 26.8173 49.1722 26.9491 49.1255 27.0727C49.0787 27.1963 49.0081 27.3091 48.9179 27.4047C48.8206 27.5088 48.7016 27.5893 48.5695 27.6404C48.4375 27.6915 48.2959 27.7119 48.1551 27.7H47.2288V25.7069ZM49.6081 32.6641C49.3387 32.8902 48.9941 33.0026 48.6455 32.9778H47.2833V30.7818H48.809C48.9617 30.7757 49.1141 30.8003 49.2575 30.8541C49.4008 30.9079 49.5323 30.99 49.6445 31.0955C49.7448 31.1929 49.8241 31.3105 49.8773 31.4408C49.9305 31.571 49.9563 31.7111 49.9532 31.8521C49.9537 32.0043 49.9233 32.1549 49.8639 32.2946C49.8046 32.4343 49.7175 32.5601 49.6081 32.6641Z" fill="white"/>
<path d="M59.4708 21.776L54.3853 36.9082H59.4163L60.052 34.5461H64.2658L64.9015 36.9082H70.1505L65.0649 21.7021L59.4708 21.776ZM61.1236 30.6154L62.1044 26.9246H62.3224L63.3032 30.6154H61.1236Z" fill="white"/>
<path d="M75.7623 32.6457V21.7764H70.9673V36.9824H80.4846V32.6457H75.7623Z" fill="white"/>
<path d="M34.551 40.2119H32.0991C31.6978 40.2119 31.3726 40.5424 31.3726 40.9501V43.4414C31.3726 43.849 31.6978 44.1795 32.0991 44.1795H34.551C34.9523 44.1795 35.2775 43.849 35.2775 43.4414V40.9501C35.2775 40.5424 34.9523 40.2119 34.551 40.2119Z" fill="white"/>
<path d="M19.1132 14.9668C20.3821 15.6719 21.808 16.0341 23.2543 16.0187C24.6951 16.0368 26.1158 15.6743 27.3772 14.9668C28.5912 14.28 29.606 13.2808 30.3196 12.0695C31.0543 10.84 31.4437 9.42959 31.4457 7.9912C31.4596 6.56394 31.0891 5.15999 30.3741 3.93133C29.645 2.71795 28.6104 1.72417 27.3772 1.05252C26.1158 0.345011 24.6951 -0.0174489 23.2543 0.00064575C21.808 -0.0147807 20.3821 0.347412 19.1132 1.05252C17.9014 1.72745 16.8911 2.72198 16.189 3.93133C15.4597 5.15468 15.0822 6.56107 15.0992 7.9912C15.0817 9.42721 15.4592 10.8397 16.189 12.0695C16.8907 13.284 17.9006 14.2846 19.1132 14.9668ZM20.3482 6.20117C20.6416 5.67919 21.0603 5.24115 21.5652 4.92785C22.0781 4.62477 22.6609 4.46511 23.2543 4.46511C23.8477 4.46511 24.4305 4.62477 24.9434 4.92785C25.4474 5.23633 25.8612 5.6759 26.1422 6.20117C26.4433 6.76718 26.5936 7.40334 26.5781 8.04656C26.5936 8.68978 26.4433 9.32595 26.1422 9.89196C26.0541 10.0613 25.9508 10.2219 25.8334 10.3718C25.9843 10.7038 26.2288 10.9828 26.536 11.1734C26.8432 11.3639 27.1992 11.4575 27.5589 11.4421C27.5914 11.4487 27.6215 11.4641 27.646 11.4869C27.6705 11.5096 27.6884 11.5387 27.6977 11.571C27.7071 11.6033 27.7075 11.6376 27.6991 11.6702C27.6906 11.7028 27.6735 11.7324 27.6497 11.7558C27.1407 12.1618 26.4985 12.3554 25.854 12.2971C25.2094 12.2388 24.611 11.9331 24.1806 11.4421C23.8837 11.5177 23.5785 11.5549 23.2724 11.5528C22.6701 11.5605 22.078 11.3941 21.5652 11.073C21.0603 10.7597 20.6416 10.3217 20.3482 9.79969C20.0471 9.23368 19.8968 8.59751 19.9123 7.95429C19.9123 7.34223 20.0621 6.73978 20.3482 6.20117Z" fill="white"/>
</svg>
