<svg viewBox="0 0 465 463" fill="none" xmlns="http://www.w3.org/2000/svg">
<path d="M0.799261 116.491L200.374 0.807617L462.986 152.672L263.824 268.715L0.799261 116.491Z" fill="#EA5757"/>
<rect width="303.686" height="193.64" transform="matrix(0.866025 0.5 -2.20305e-08 1 0.820312 116.525)" fill="#952B2B"/>
<mask id="mask0" mask-type="alpha" maskUnits="userSpaceOnUse" x="0" y="116" width="264" height="347">
<rect width="303.686" height="193.64" transform="matrix(0.866025 0.5 -2.20305e-08 1 0.820312 116.525)" fill="#952B2B"/>
</mask>
<g mask="url(#mask0)">
<ellipse rx="5.53694" ry="4.94047" transform="matrix(0.866025 0.5 -2.20305e-08 1 264.359 364.009)" fill="#AB3C3C"/>
<ellipse rx="5.53694" ry="4.94047" transform="matrix(0.866025 0.5 -2.20305e-08 1 264.359 396.347)" fill="#AB3C3C"/>
<ellipse rx="5.53694" ry="4.94047" transform="matrix(0.866025 0.5 -2.20305e-08 1 264.359 428.685)" fill="#AB3C3C"/>
<ellipse rx="5.53694" ry="4.94047" transform="matrix(0.866025 0.5 -2.20305e-08 1 264.359 461.022)" fill="#AB3C3C"/>
<ellipse rx="5.53694" ry="4.94047" transform="matrix(0.866025 0.5 -2.20305e-08 1 256.077 343.059)" fill="#AB3C3C"/>
<ellipse rx="5.53694" ry="4.94047" transform="matrix(0.866025 0.5 -2.20305e-08 1 256.077 375.396)" fill="#AB3C3C"/>
<ellipse rx="5.53694" ry="4.94047" transform="matrix(0.866025 0.5 -2.20305e-08 1 256.077 407.734)" fill="#AB3C3C"/>
<ellipse rx="5.53694" ry="4.94047" transform="matrix(0.866025 0.5 -2.20305e-08 1 256.077 440.072)" fill="#AB3C3C"/>
<ellipse rx="5.53694" ry="4.94047" transform="matrix(0.866025 0.5 -2.20305e-08 1 247.14 354.069)" fill="#AB3C3C"/>
<ellipse rx="5.53694" ry="4.94047" transform="matrix(0.866025 0.5 -2.20305e-08 1 247.14 386.406)" fill="#AB3C3C"/>
<ellipse rx="5.53694" ry="4.94047" transform="matrix(0.866025 0.5 -2.20305e-08 1 247.14 418.744)" fill="#AB3C3C"/>
<ellipse rx="5.53694" ry="4.94047" transform="matrix(0.866025 0.5 -2.20305e-08 1 247.14 451.082)" fill="#AB3C3C"/>
<ellipse rx="5.53694" ry="4.94047" transform="matrix(0.866025 0.5 -2.20305e-08 1 238.858 333.118)" fill="#AB3C3C"/>
<ellipse rx="5.53694" ry="4.94047" transform="matrix(0.866025 0.5 -2.20305e-08 1 238.858 365.456)" fill="#AB3C3C"/>
<ellipse rx="5.53694" ry="4.94047" transform="matrix(0.866025 0.5 -2.20305e-08 1 238.858 397.793)" fill="#AB3C3C"/>
<ellipse rx="5.53694" ry="4.94047" transform="matrix(0.866025 0.5 -2.20305e-08 1 238.858 430.131)" fill="#AB3C3C"/>
<ellipse rx="5.53694" ry="4.94047" transform="matrix(0.866025 0.5 -2.20305e-08 1 229.922 344.127)" fill="#AB3C3C"/>
<ellipse rx="5.53694" ry="4.94047" transform="matrix(0.866025 0.5 -2.20305e-08 1 229.922 376.465)" fill="#AB3C3C"/>
<ellipse rx="5.53694" ry="4.94047" transform="matrix(0.866025 0.5 -2.20305e-08 1 229.922 408.802)" fill="#AB3C3C"/>
<ellipse rx="5.53694" ry="4.94047" transform="matrix(0.866025 0.5 -2.20305e-08 1 229.922 441.14)" fill="#AB3C3C"/>
<ellipse rx="5.53694" ry="4.94047" transform="matrix(0.866025 0.5 -2.20305e-08 1 221.639 323.176)" fill="#AB3C3C"/>
<ellipse rx="5.53694" ry="4.94047" transform="matrix(0.866025 0.5 -2.20305e-08 1 221.639 355.514)" fill="#AB3C3C"/>
<ellipse rx="5.53694" ry="4.94047" transform="matrix(0.866025 0.5 -2.20305e-08 1 221.639 387.852)" fill="#AB3C3C"/>
<ellipse rx="5.53694" ry="4.94047" transform="matrix(0.866025 0.5 -2.20305e-08 1 221.639 420.189)" fill="#AB3C3C"/>
<ellipse rx="5.53694" ry="4.94047" transform="matrix(0.866025 0.5 -2.20305e-08 1 212.703 334.186)" fill="#AB3C3C"/>
<ellipse rx="5.53694" ry="4.94047" transform="matrix(0.866025 0.5 -2.20305e-08 1 212.703 366.524)" fill="#AB3C3C"/>
<ellipse rx="5.53694" ry="4.94047" transform="matrix(0.866025 0.5 -2.20305e-08 1 212.703 398.861)" fill="#AB3C3C"/>
<ellipse rx="5.53694" ry="4.94047" transform="matrix(0.866025 0.5 -2.20305e-08 1 212.703 431.199)" fill="#AB3C3C"/>
<ellipse rx="5.53694" ry="4.94047" transform="matrix(0.866025 0.5 -2.20305e-08 1 204.42 313.235)" fill="#AB3C3C"/>
<ellipse rx="5.53694" ry="4.94047" transform="matrix(0.866025 0.5 -2.20305e-08 1 204.42 345.573)" fill="#AB3C3C"/>
<ellipse rx="5.53694" ry="4.94047" transform="matrix(0.866025 0.5 -2.20305e-08 1 204.42 377.91)" fill="#AB3C3C"/>
<ellipse rx="5.53694" ry="4.94047" transform="matrix(0.866025 0.5 -2.20305e-08 1 204.42 410.248)" fill="#AB3C3C"/>
<ellipse rx="5.53694" ry="4.94047" transform="matrix(0.866025 0.5 -2.20305e-08 1 195.484 324.244)" fill="#AB3C3C"/>
<ellipse rx="5.53694" ry="4.94047" transform="matrix(0.866025 0.5 -2.20305e-08 1 195.484 356.582)" fill="#AB3C3C"/>
<ellipse rx="5.53694" ry="4.94047" transform="matrix(0.866025 0.5 -2.20305e-08 1 195.484 388.92)" fill="#AB3C3C"/>
<ellipse rx="5.53694" ry="4.94047" transform="matrix(0.866025 0.5 -2.20305e-08 1 195.484 421.257)" fill="#AB3C3C"/>
<ellipse rx="5.53694" ry="4.94047" transform="matrix(0.866025 0.5 -2.20305e-08 1 187.201 303.294)" fill="#AB3C3C"/>
<ellipse rx="5.53694" ry="4.94047" transform="matrix(0.866025 0.5 -2.20305e-08 1 187.201 335.632)" fill="#AB3C3C"/>
<ellipse rx="5.53694" ry="4.94047" transform="matrix(0.866025 0.5 -2.20305e-08 1 187.201 367.969)" fill="#AB3C3C"/>
<ellipse rx="5.53694" ry="4.94047" transform="matrix(0.866025 0.5 -2.20305e-08 1 187.201 400.307)" fill="#AB3C3C"/>
<ellipse rx="5.53694" ry="4.94047" transform="matrix(0.866025 0.5 -2.20305e-08 1 178.265 314.303)" fill="#AB3C3C"/>
<ellipse rx="5.53694" ry="4.94047" transform="matrix(0.866025 0.5 -2.20305e-08 1 178.265 346.641)" fill="#AB3C3C"/>
<ellipse rx="5.53694" ry="4.94047" transform="matrix(0.866025 0.5 -2.20305e-08 1 178.265 378.978)" fill="#AB3C3C"/>
<ellipse rx="5.53694" ry="4.94047" transform="matrix(0.866025 0.5 -2.20305e-08 1 178.265 411.315)" fill="#AB3C3C"/>
<ellipse rx="5.53694" ry="4.94047" transform="matrix(0.866025 0.5 -2.20305e-08 1 169.982 293.352)" fill="#AB3C3C"/>
<ellipse rx="5.53694" ry="4.94047" transform="matrix(0.866025 0.5 -2.20305e-08 1 169.982 325.69)" fill="#AB3C3C"/>
<ellipse rx="5.53694" ry="4.94047" transform="matrix(0.866025 0.5 -2.20305e-08 1 169.983 358.028)" fill="#AB3C3C"/>
<ellipse rx="5.53694" ry="4.94047" transform="matrix(0.866025 0.5 -2.20305e-08 1 169.983 390.365)" fill="#AB3C3C"/>
<ellipse rx="5.53694" ry="4.94047" transform="matrix(0.866025 0.5 -2.20305e-08 1 161.046 304.362)" fill="#AB3C3C"/>
<ellipse rx="5.53694" ry="4.94047" transform="matrix(0.866025 0.5 -2.20305e-08 1 161.046 336.699)" fill="#AB3C3C"/>
<ellipse rx="5.53694" ry="4.94047" transform="matrix(0.866025 0.5 -2.20305e-08 1 161.046 369.037)" fill="#AB3C3C"/>
<ellipse rx="5.53694" ry="4.94047" transform="matrix(0.866025 0.5 -2.20305e-08 1 161.046 401.374)" fill="#AB3C3C"/>
<ellipse rx="5.53694" ry="4.94047" transform="matrix(0.866025 0.5 -2.20305e-08 1 152.764 283.411)" fill="#AB3C3C"/>
<ellipse rx="5.53694" ry="4.94047" transform="matrix(0.866025 0.5 -2.20305e-08 1 152.764 315.749)" fill="#AB3C3C"/>
<ellipse rx="5.53694" ry="4.94047" transform="matrix(0.866025 0.5 -2.20305e-08 1 152.764 348.086)" fill="#AB3C3C"/>
<ellipse rx="5.53694" ry="4.94047" transform="matrix(0.866025 0.5 -2.20305e-08 1 152.764 380.424)" fill="#AB3C3C"/>
<ellipse rx="5.53694" ry="4.94047" transform="matrix(0.866025 0.5 -2.20305e-08 1 143.827 294.42)" fill="#AB3C3C"/>
<ellipse rx="5.53694" ry="4.94047" transform="matrix(0.866025 0.5 -2.20305e-08 1 143.827 326.758)" fill="#AB3C3C"/>
<ellipse rx="5.53694" ry="4.94047" transform="matrix(0.866025 0.5 -2.20305e-08 1 143.827 359.096)" fill="#AB3C3C"/>
<ellipse rx="5.53694" ry="4.94047" transform="matrix(0.866025 0.5 -2.20305e-08 1 143.827 391.433)" fill="#AB3C3C"/>
<ellipse rx="5.53694" ry="4.94047" transform="matrix(0.866025 0.5 -2.20305e-08 1 135.545 273.47)" fill="#AB3C3C"/>
<ellipse rx="5.53694" ry="4.94047" transform="matrix(0.866025 0.5 -2.20305e-08 1 135.545 305.808)" fill="#AB3C3C"/>
<ellipse rx="5.53694" ry="4.94047" transform="matrix(0.866025 0.5 -2.20305e-08 1 135.545 338.145)" fill="#AB3C3C"/>
<ellipse rx="5.53694" ry="4.94047" transform="matrix(0.866025 0.5 -2.20305e-08 1 135.545 370.483)" fill="#AB3C3C"/>
<ellipse rx="5.53694" ry="4.94047" transform="matrix(0.866025 0.5 -2.20305e-08 1 126.608 284.478)" fill="#AB3C3C"/>
<ellipse rx="5.53694" ry="4.94047" transform="matrix(0.866025 0.5 -2.20305e-08 1 126.608 316.817)" fill="#AB3C3C"/>
<ellipse rx="5.53694" ry="4.94047" transform="matrix(0.866025 0.5 -2.20305e-08 1 126.608 349.154)" fill="#AB3C3C"/>
<ellipse rx="5.53694" ry="4.94047" transform="matrix(0.866025 0.5 -2.20305e-08 1 126.608 381.491)" fill="#AB3C3C"/>
<ellipse rx="5.53694" ry="4.94047" transform="matrix(0.866025 0.5 -2.20305e-08 1 118.326 263.528)" fill="#AB3C3C"/>
<ellipse rx="5.53694" ry="4.94047" transform="matrix(0.866025 0.5 -2.20305e-08 1 118.326 295.866)" fill="#AB3C3C"/>
<ellipse rx="5.53694" ry="4.94047" transform="matrix(0.866025 0.5 -2.20305e-08 1 118.326 328.204)" fill="#AB3C3C"/>
<ellipse rx="5.53694" ry="4.94047" transform="matrix(0.866025 0.5 -2.20305e-08 1 118.326 360.541)" fill="#AB3C3C"/>
<ellipse rx="5.53694" ry="4.94047" transform="matrix(0.866025 0.5 -2.20305e-08 1 109.389 274.538)" fill="#AB3C3C"/>
<ellipse rx="5.53694" ry="4.94047" transform="matrix(0.866025 0.5 -2.20305e-08 1 109.389 306.875)" fill="#AB3C3C"/>
<ellipse rx="5.53694" ry="4.94047" transform="matrix(0.866025 0.5 -2.20305e-08 1 109.389 339.213)" fill="#AB3C3C"/>
<ellipse rx="5.53694" ry="4.94047" transform="matrix(0.866025 0.5 -2.20305e-08 1 109.389 371.551)" fill="#AB3C3C"/>
<ellipse rx="5.53694" ry="4.94047" transform="matrix(0.866025 0.5 -2.20305e-08 1 101.107 253.587)" fill="#AB3C3C"/>
<ellipse rx="5.53694" ry="4.94047" transform="matrix(0.866025 0.5 -2.20305e-08 1 101.107 285.925)" fill="#AB3C3C"/>
<ellipse rx="5.53694" ry="4.94047" transform="matrix(0.866025 0.5 -2.20305e-08 1 101.107 318.262)" fill="#AB3C3C"/>
<ellipse rx="5.53694" ry="4.94047" transform="matrix(0.866025 0.5 -2.20305e-08 1 101.107 350.6)" fill="#AB3C3C"/>
<ellipse rx="5.53694" ry="4.94047" transform="matrix(0.866025 0.5 -2.20305e-08 1 92.1704 264.596)" fill="#AB3C3C"/>
<ellipse rx="5.53694" ry="4.94047" transform="matrix(0.866025 0.5 -2.20305e-08 1 92.1704 296.934)" fill="#AB3C3C"/>
<ellipse rx="5.53694" ry="4.94047" transform="matrix(0.866025 0.5 -2.20305e-08 1 92.1704 329.272)" fill="#AB3C3C"/>
<ellipse rx="5.53694" ry="4.94047" transform="matrix(0.866025 0.5 -2.20305e-08 1 92.1704 361.609)" fill="#AB3C3C"/>
<ellipse rx="5.53694" ry="4.94047" transform="matrix(0.866025 0.5 -2.20305e-08 1 83.8879 243.646)" fill="#AB3C3C"/>
<ellipse rx="5.53694" ry="4.94047" transform="matrix(0.866025 0.5 -2.20305e-08 1 83.8879 275.983)" fill="#AB3C3C"/>
<ellipse rx="5.53694" ry="4.94047" transform="matrix(0.866025 0.5 -2.20305e-08 1 83.8879 308.321)" fill="#AB3C3C"/>
<ellipse rx="5.53694" ry="4.94047" transform="matrix(0.866025 0.5 -2.20305e-08 1 83.8879 340.659)" fill="#AB3C3C"/>
<ellipse rx="5.53694" ry="4.94047" transform="matrix(0.866025 0.5 -2.20305e-08 1 74.9514 254.655)" fill="#AB3C3C"/>
<ellipse rx="5.53694" ry="4.94047" transform="matrix(0.866025 0.5 -2.20305e-08 1 74.9516 286.993)" fill="#AB3C3C"/>
<ellipse rx="5.53694" ry="4.94047" transform="matrix(0.866025 0.5 -2.20305e-08 1 74.9514 319.331)" fill="#AB3C3C"/>
<ellipse rx="5.53694" ry="4.94047" transform="matrix(0.866025 0.5 -2.20305e-08 1 74.9514 351.668)" fill="#AB3C3C"/>
<ellipse rx="5.53694" ry="4.94047" transform="matrix(0.866025 0.5 -2.20305e-08 1 66.6692 233.704)" fill="#AB3C3C"/>
<ellipse rx="5.53694" ry="4.94047" transform="matrix(0.866025 0.5 -2.20305e-08 1 66.6692 266.042)" fill="#AB3C3C"/>
<ellipse rx="5.53694" ry="4.94047" transform="matrix(0.866025 0.5 -2.20305e-08 1 66.6692 298.38)" fill="#AB3C3C"/>
<ellipse rx="5.53694" ry="4.94047" transform="matrix(0.866025 0.5 -2.20305e-08 1 66.6692 330.717)" fill="#AB3C3C"/>
<ellipse rx="5.53694" ry="4.94047" transform="matrix(0.866025 0.5 -2.20305e-08 1 57.7329 244.714)" fill="#AB3C3C"/>
<ellipse rx="5.53694" ry="4.94047" transform="matrix(0.866025 0.5 -2.20305e-08 1 57.7329 277.053)" fill="#AB3C3C"/>
<ellipse rx="5.53694" ry="4.94047" transform="matrix(0.866025 0.5 -2.20305e-08 1 57.7329 309.39)" fill="#AB3C3C"/>
<ellipse rx="5.53694" ry="4.94047" transform="matrix(0.866025 0.5 -2.20305e-08 1 57.7331 341.728)" fill="#AB3C3C"/>
<ellipse rx="42.7407" ry="38.1367" transform="matrix(0.866015 0.495156 0.00526258 1.00302 23.0268 155.017)" fill="white"/>
<ellipse rx="36.8769" ry="32.9045" transform="matrix(0.866015 0.495156 0.00526258 1.00302 0.330028 182.154)" fill="white"/>
<ellipse rx="36.8769" ry="32.9045" transform="matrix(0.866015 0.495156 0.00526258 1.00302 32.229 214.811)" fill="white"/>
<ellipse rx="29.1887" ry="26.0445" transform="matrix(0.866015 0.495156 0.00526258 1.00302 82.2297 245.143)" fill="white"/>
<ellipse rx="29.1887" ry="26.0445" transform="matrix(0.866015 0.495156 0.00526258 1.00302 116.007 249.805)" fill="white"/>
<ellipse rx="42.7407" ry="38.1367" transform="matrix(0.866015 0.495156 0.00526258 1.00302 81.101 201.477)" fill="white"/>
<path d="M195.094 366.852C196.07 396.095 191.074 410.471 182.105 414.989L266.472 463.626C259.037 449.35 254.878 432.514 254.134 412.933C254.018 410.137 253.995 407.298 254.041 404.381L195.094 366.852Z" fill="#E7C59C"/>
<path d="M305.066 436.401L138.772 340.391L161.17 243.944C163.819 234.868 176.529 208.589 223.882 235.425C269.539 261.307 289.545 301.638 292.17 319.289C293.262 328.155 305.066 436.401 305.066 436.401Z" fill="#111111"/>
<path d="M254.204 413.715C254.204 413.476 254.181 413.223 254.181 412.96C254.088 410.177 254.041 407.325 254.088 404.408L195.14 366.879C196.116 396.122 191.12 410.498 182.152 415.015L189.122 419.04C196.511 418.207 206.944 417.072 218.933 415.95C235.523 414.421 248.07 413.884 254.204 413.715Z" fill="#D6B287"/>
<path d="M275.836 356.158C275.836 356.158 273.443 348.719 273.745 348.415C274.047 348.111 267.913 335.328 267.913 335.328L253.275 323.526L234.152 318.686L225.578 313.52L225.509 313.48L225.439 313.439L216.865 308.705L197.743 291.464L183.104 286.364C183.104 286.364 176.97 292.063 177.272 292.717C177.574 293.37 175.181 298.045 175.181 298.045L174.484 319.188C177.481 327.765 179.968 327.549 179.968 327.549C179.968 327.549 180.874 336.666 183.708 346.418C186.543 356.17 206.107 391.979 224.788 402.454C225.284 402.74 225.78 403.026 226.275 403.312C244.956 414.409 264.52 401.19 267.355 394.711C270.19 388.233 271.096 380.162 271.096 380.162C271.096 380.162 273.582 383.249 276.58 378.133C276.58 378.133 282.412 366.681 280.46 359.186C279.554 355.791 275.836 356.158 275.836 356.158Z" fill="#E7C59C"/>
<path d="M224.231 325.55C227.019 327.064 234.524 343.869 234.524 343.869C234.524 343.869 229.319 326.74 229.784 323.274C230.249 319.807 234.268 320.285 229.319 315.919C229.18 315.791 229.017 315.649 228.878 315.521L225.578 313.544L225.509 313.504L225.439 313.463L217.469 309.054C216.795 309.143 216.284 309.351 216.354 309.87C216.517 310.993 217.911 315.317 217.911 316.347C217.911 317.376 216.679 324.062 215.75 325.297C214.82 326.532 213.589 327.712 212.357 328.342C211.126 328.996 206.711 332.168 204.62 331.44C202.529 330.711 192.956 327.483 190.238 325.434C187.542 323.399 182.268 316.859 181.966 316.445C181.664 316.031 177.249 308.479 176.947 306.869C176.738 305.766 175.716 302.136 175.111 299.968L174.484 319.188C174.531 319.31 174.577 319.433 174.6 319.518C175.809 322.346 177.319 325.133 178.179 326.396C179.271 327.601 179.944 327.535 179.944 327.535C179.944 327.535 180.851 336.653 183.685 346.405C186.45 355.949 205.224 390.368 223.487 401.679C223.51 401.548 223.534 401.49 223.534 401.49C223.534 401.49 217.795 397.937 217.887 387.481C217.818 380.594 222.372 385.115 223.232 380.991C218.98 378.057 216.284 368.745 221.071 368.803L222.302 364.942C218.515 361.869 218.445 355.461 222 356.341C222 356.341 222.744 355.118 222.744 352.748C222.744 350.402 223.441 347.908 220.141 342.34C218.468 339.579 221.442 324.059 224.231 325.55Z" fill="#D6B287"/>
<path d="M208.826 356.395C208.826 356.395 215.448 353.275 219.258 354.638C223.069 356 223.348 358.938 225.323 360.102C227.251 361.239 228.25 359.566 230.667 361.368C235.244 364.801 242.191 375.658 242.191 375.658C242.191 375.658 240.333 391.103 225.23 382.288C210.15 373.462 208.826 356.395 208.826 356.395Z" fill="#EA5757"/>
<path fill-rule="evenodd" clip-rule="evenodd" d="M222.009 356.325C221.341 355.674 220.481 355.075 219.258 354.638C215.448 353.275 208.826 356.395 208.826 356.395C208.826 356.395 210.031 371.921 223.227 381.014C223.228 381.007 223.23 380.999 223.232 380.991C218.98 378.057 216.284 368.745 221.071 368.803L222.302 364.942C218.515 361.869 218.445 355.461 222 356.341C222 356.341 222.003 356.335 222.009 356.325Z" fill="#952B2B"/>
<path d="M216.517 363.301C220.328 365.525 220.676 363.763 225.114 366.254C229.924 368.983 230.249 371.54 235.036 374.136C228.855 371.693 230.667 375.349 225.37 372.266C219.491 368.848 221.094 366.997 216.517 363.301Z" fill="#0F0226"/>
<path d="M219.304 344.036C219.816 344.139 220.675 344.492 221.186 345.673C221.698 346.878 221.558 347.683 220.977 347.563C220.42 347.456 219.328 346.299 218.979 346.242C218.607 346.195 218.096 346.689 217.399 345.784C216.702 344.879 218.631 343.766 219.304 344.036Z" fill="#0F0226"/>
<path d="M150.087 303.857C150.087 303.857 149.785 296.453 150.715 293.614C151.644 290.775 151.946 289.274 152.783 285.951C153.596 282.59 152.202 278.074 155.478 278.601C158.777 279.118 160.845 280.503 164.912 281.103C169.559 281.799 171.696 287.079 175.902 289.507C180.107 291.935 182.756 289.73 182.756 289.73C182.756 289.73 175.228 280.715 170.395 275.699C165.562 270.682 154.107 266.51 153.085 266.016C152.062 265.521 136.913 270.803 135.891 273.277C134.868 275.775 136.402 284.92 137.238 287.533C138.075 290.147 137.448 298.81 138.261 301.075C139.074 303.34 142.28 307.01 142.792 307.617C143.303 308.223 150.087 303.857 150.087 303.857Z" fill="#D6B288"/>
<path d="M152.829 398.493C152.829 398.493 172.765 364.47 175.391 354.519C178.016 344.568 180.479 317.334 180.804 316.397C181.107 315.446 173.857 300.296 173.857 300.296C170.14 302.459 167.351 320.48 165.516 322.388C158.15 329.986 147.439 298.905 148.368 294.031C149.298 289.157 139.399 281.049 139.26 281.614C139.097 282.167 132.313 311.669 133.381 314.034C134.474 316.412 138.168 328.097 141.886 333.906C145.603 339.715 150.39 349.971 150.692 352.037C150.994 354.127 153.155 375.579 152.69 377.393C152.225 379.208 152.829 398.493 152.829 398.493Z" fill="#D6B288"/>
<path d="M280.367 343.572C279.74 340.265 276.37 339.684 273.559 337.008C267.402 331.131 258.944 323.878 252.926 320.403C246.792 316.862 238.985 314.198 233.92 315.439C233.641 315.517 233.269 315.398 232.897 315.136C229.947 313.025 227.042 311.133 224.231 309.486C224.161 309.446 224.115 309.419 224.045 309.379C223.975 309.338 223.929 309.311 223.859 309.271C221.024 307.659 218.143 306.211 215.192 304.914C214.82 304.747 214.449 304.437 214.17 304.036C209.105 296.922 201.298 290.596 195.164 287.054C189.146 283.58 180.688 281.067 174.531 279.834C171.742 279.277 168.35 275.954 167.723 278.537C167.119 281.085 173.369 286.249 173.276 292.42C173.137 304.046 179.759 321.084 194.374 329.593C210.917 339.24 219.328 329.206 219.328 317.5C219.328 316.47 219.212 315.422 219.003 314.391C218.863 313.712 218.213 312.499 218.794 311.685C219.375 310.872 221.698 311.615 224.022 312.908C226.275 314.257 228.367 316.159 229.18 317.586C230.225 319.387 229.18 319.621 229.064 320.08C228.831 320.904 228.715 321.842 228.715 322.919C228.715 334.626 237.126 354.372 253.67 363.828C268.285 372.194 274.907 362.803 274.767 351.016C274.721 344.765 280.971 346.817 280.367 343.572Z" fill="#FDFEE9"/>
<path d="M215.192 318.2C215.192 328.494 205.457 333.119 193.863 326.737C183.058 320.786 175.971 307.813 175.971 297.519C175.971 287.225 181.571 282.319 195.559 290.179C206.386 296.263 215.192 307.882 215.192 318.2Z" fill="#007EA6"/>
<path d="M232.618 328.261C232.618 338.555 242.354 354.422 253.948 361.428C264.752 367.953 271.839 363.163 271.839 352.869C271.839 342.575 266.239 331.202 252.252 322.911C241.424 316.492 232.618 317.944 232.618 328.261Z" fill="#007EA6"/>
<path d="M228.576 349.388C228.065 348.902 227.205 348.262 226.694 348.852C226.183 349.467 226.322 350.433 226.903 350.984C227.484 351.535 228.553 351.625 228.901 351.97C229.273 352.352 229.784 353.437 230.481 353.337C231.178 353.237 229.273 349.91 228.576 349.388Z" fill="#0F0226"/>
<path d="M191.306 307.738C190.749 307.224 186.915 296.177 186.915 296.177L182.895 294.048C182.895 294.048 179.967 302.149 179.782 301.467C179.665 301.041 178.434 294.728 177.505 289.978C176.459 291.888 175.948 294.466 175.948 297.506C175.948 302.868 177.853 308.924 181.199 314.351L182.686 314.994L185.242 303.662L191.26 320.494L198.741 323.689L201.111 297.575L191.794 290.879C191.864 290.919 191.864 308.251 191.306 307.738Z" fill="#EA5757"/>
<path d="M209.755 318.987C209.755 315.779 212.032 314.413 215.006 315.627C214.681 313.261 213.961 310.882 212.892 308.541C207.618 306.933 203.737 309.624 203.737 315.513C203.737 319.75 205.759 324.652 208.849 328.734C210.313 328.119 211.591 327.205 212.59 326.034C210.871 323.868 209.755 321.238 209.755 318.987Z" fill="#EA5757"/>
<path d="M256.481 345.366C257.039 345.497 260.873 338.876 260.873 338.876L264.892 341.389C264.892 341.389 267.82 352.87 268.006 352.403C268.122 352.111 269.353 347.22 270.283 343.543C271.328 346.661 271.84 349.828 271.84 352.869C271.84 358.231 269.934 362.087 266.588 363.65L265.101 362.576L262.545 348.293L256.481 358.15L248.999 352.705L246.629 323.854L255.947 327.917C255.947 327.917 255.947 345.249 256.481 345.366Z" fill="#EA5757"/>
<path d="M238.056 335.327C238.056 332.119 235.779 328.123 232.805 325.903C233.13 323.912 233.85 322.365 234.919 321.259C240.193 325.74 244.074 332.912 244.074 338.801C244.074 343.038 242.052 345.606 238.962 346.12C237.498 343.814 236.22 341.425 235.221 339.1C236.917 338.907 238.056 337.577 238.056 335.327Z" fill="#EA5757"/>
<path d="M139.98 342.812C139.98 342.812 144.72 322.471 145.371 318.634C146.021 314.796 146.974 288.462 147.276 287.176C147.369 286.847 147.229 275.084 149.994 270.432C156.756 268.255 155.199 266.159 157.383 264.547C170.581 267.188 172.416 260.036 171.185 254.657C164.33 254.674 157.128 252.574 154.293 253.116C151.458 253.658 148.298 253.724 145.161 254.786C142.025 255.848 142.884 255.889 140.166 259.347C137.447 262.805 134.984 268.23 134.357 270.764C133.73 273.298 127.898 278.406 127.851 284.34C127.805 290.298 127.642 295.59 127.503 298.431C127.363 301.271 128.06 310.1 128.618 312.385C129.199 314.707 133.195 329.678 133.892 331.445C134.589 333.212 138.33 344.709 138.33 344.709L139.98 346.14L139.98 342.812Z" fill="#D6B288"/>
<path d="M135.17 313.726C135.17 313.391 129.501 283.377 129.129 276.364C128.758 269.351 130.872 248.26 131.801 244.751C132.87 240.771 137.169 235.329 140.561 230.106C145.557 237.586 145.603 247.428 141.444 253.55C140.933 254.284 140.305 258.135 140.631 259.424C143.907 272.543 140.956 280.631 140.096 285.449C139.074 291.083 139.074 302.143 139.91 309.209C140.747 316.251 140.561 320.166 140.654 323.116C140.747 326.043 139.539 326.279 139.539 326.279L135.17 313.726Z" fill="#D6B288"/>
<path d="M152.829 398.494C152.829 398.494 161.798 382.653 161.635 372.529C161.473 362.404 157.778 347.847 150.041 329.854C142.304 311.861 135.449 306.658 130.337 272.706C129.408 266.471 129.571 257.66 126.806 246.751C124.041 235.842 116.768 228.843 116.768 228.843L119.928 254.989C119.928 254.989 122.252 275.913 122.019 276.497C121.787 277.081 123.413 302.606 125.504 310.756C127.596 318.906 137.099 342.299 136.402 353.819C135.705 365.362 125.504 382.718 125.504 382.718L152.829 398.494Z" fill="#E7C59C"/>
</g>
<path d="M263.82 268.354L462.971 152.676L462.97 346.239L263.82 461.959V268.354Z" fill="#952B2B"/>
</svg>
