<svg viewBox="0 0 211 202" fill="none" xmlns="http://www.w3.org/2000/svg">
<path fill-rule="evenodd" clip-rule="evenodd" d="M12.6768 15.5578C12.6768 12.5413 14.7945 11.3186 17.4069 12.8269L34.5186 22.7063C37.1309 24.2146 39.2487 27.8826 39.2487 30.8991L39.2487 64.469C39.2487 64.7433 39.4412 65.0767 39.6787 65.2138L43.0091 67.1366C43.3018 63.6834 47.1125 64.0787 49.5291 68.0017L62.4149 88.9196C64.4876 92.2843 64.4876 96.0443 62.4149 97.0156L49.3174 103.153C47.0151 104.232 43.4051 100.492 43.024 96.8754L37.1149 93.4637C37.1095 93.4606 37.104 93.4575 37.0986 93.4544L17.4069 82.0854C14.7945 80.5771 12.6768 76.9091 12.6768 73.8926L12.6768 15.5578ZM39.2487 92.213C39.2487 92.889 39.0147 93.3668 38.6352 93.5954C39.0176 93.3629 39.2487 92.878 39.2487 92.213ZM17.4069 17.7922C17.1694 17.6551 16.9769 17.7663 16.9769 18.0405L16.9769 76.3752C16.9769 76.6495 17.1694 76.9829 17.4069 77.12L37.0826 88.4798C37.0879 88.4828 37.0933 88.4859 37.0987 88.489L43.5062 92.1884C45.2388 93.1887 46.6995 95.3762 47.1488 97.4701L59.528 91.6688C59.7165 91.5805 59.7165 91.2387 59.528 90.9328L47.2091 70.9353C46.8394 72.7726 45.2653 73.4046 43.3795 72.3158L39.6787 70.1792C37.0663 68.6709 34.9486 65.0029 34.9486 61.9864L34.9486 28.4164C34.9486 28.1422 34.7561 27.8088 34.5186 27.6716L17.4069 17.7922Z" fill="#F23F63"/>
<path fill-rule="evenodd" clip-rule="evenodd" d="M14.3969 16.5509C14.3969 14.6313 15.7445 13.8533 17.4069 14.8131L34.5186 24.6925C36.181 25.6523 37.5287 27.9865 37.5287 29.9061L37.5287 63.476C37.5287 64.8471 38.4913 66.5144 39.6787 67.2L43.3796 69.3367C44.115 69.7613 44.7113 69.4171 44.7113 68.5678C44.7113 66.3729 46.9656 66.5201 48.3744 68.8071L61.2602 89.7249C62.5792 91.8661 62.5792 94.2588 61.2602 94.8769L48.1627 101.015C46.8353 101.637 44.7113 99.3229 44.7113 97.2548C44.7113 96.4864 44.1717 95.5519 43.5062 95.1677L37.1059 91.4724C37.1035 91.4711 37.1011 91.4697 37.0986 91.4683L17.4069 80.0993C15.7445 79.1395 14.3968 76.8053 14.3968 74.8857L14.3969 16.5509ZM37.5287 91.22C37.5287 91.3529 37.4834 91.4475 37.4098 91.4941C37.484 91.4468 37.5287 91.3508 37.5287 91.22ZM17.4069 15.8061C16.2195 15.1206 15.2569 15.6763 15.2569 17.0475L15.2569 75.3822C15.2569 76.7534 16.2195 78.4207 17.4069 79.1062L37.0915 90.4711C37.0939 90.4724 37.0963 90.4738 37.0987 90.4752L43.5062 94.1746C44.6467 94.8331 45.5713 96.4344 45.5713 97.7514C45.5713 98.9582 46.8107 100.308 47.5853 99.9454L60.6828 93.8076C61.6249 93.3661 61.6249 91.657 60.6828 90.1276L47.797 69.2097C46.941 67.8202 45.5713 67.7307 45.5713 69.0644C45.5713 70.4621 44.59 71.0286 43.3796 70.3297L39.6787 68.1931C38.0163 67.2333 36.6687 64.8991 36.6687 62.9795L36.6687 29.4096C36.6687 28.0384 35.706 26.3711 34.5186 25.6856L17.4069 15.8061ZM36.7971 90.4437C36.8616 90.4073 36.9466 90.4057 37.0431 90.4472C36.9478 90.4064 36.8623 90.4072 36.7971 90.4437Z" fill="#FD6F8B"/>
	<path d="M85.1724 99.202C84.0681 98.5644 83.067 97.7124 82.1692 96.6458C81.2816 95.5733 80.5799 94.3995 80.0638 93.1244C79.5581 91.8433 79.3053 90.5831 79.3053 89.3438C79.3053 88.1045 79.5581 87.1422 80.0638 86.457C80.5799 85.7658 81.2816 85.4023 82.1692 85.3666C83.067 85.3249 84.0733 85.6258 85.1878 86.2693C86.127 86.8115 86.9732 87.4907 87.7266 88.307C88.4903 89.1293 89.1302 90.0469 89.6462 91.0598L88.0362 91.8463C87.3035 90.4461 86.3953 89.4332 85.3117 88.8075C84.6409 88.4202 84.0423 88.2475 83.516 88.2892C82.9896 88.319 82.5768 88.5513 82.2775 88.9863C81.9886 89.4272 81.8441 90.035 81.8441 90.8096C81.8441 91.5842 81.9886 92.3588 82.2775 93.1333C82.5768 93.9139 82.9896 94.6289 83.516 95.2784C84.0423 95.9159 84.6409 96.4283 85.3117 96.8156C86.3953 97.4413 87.3035 97.4711 88.0362 96.905L89.6462 99.5505C89.1302 99.9795 88.4903 100.164 87.7266 100.105C86.9629 100.045 86.1115 99.7442 85.1724 99.202Z" fill="#F23F63"/>
	<path d="M99.3769 97.5716L99.3769 107.188L96.962 105.794L96.962 98.4654L93.4944 96.4634L93.4944 103.792L91.0949 102.407L91.0949 92.79L99.3769 97.5716Z" fill="#F23F63"/>
	<path d="M109.789 108.427C109.789 108.463 109.773 108.704 109.742 109.151L103.442 105.513C103.555 106.175 103.823 106.8 104.247 107.39C104.67 107.98 105.196 108.457 105.826 108.82C106.259 109.07 106.641 109.219 106.971 109.267C107.312 109.309 107.626 109.252 107.915 109.097L109.2 111.448C108.416 112.032 107.27 111.889 105.764 111.019C104.825 110.477 103.994 109.788 103.271 108.954C102.549 108.108 101.992 107.197 101.599 106.219C101.207 105.242 101.011 104.277 101.011 103.324C101.011 102.382 101.202 101.646 101.584 101.116C101.976 100.58 102.508 100.297 103.178 100.267C103.86 100.231 104.618 100.455 105.454 100.937C106.269 101.408 107.007 102.037 107.668 102.823C108.328 103.61 108.844 104.491 109.216 105.469C109.598 106.44 109.789 107.426 109.789 108.427ZM105.47 103.055C104.923 102.74 104.463 102.653 104.092 102.796C103.72 102.939 103.493 103.297 103.411 103.869L107.513 106.237C107.43 105.582 107.203 104.968 106.832 104.396C106.46 103.812 106.006 103.365 105.47 103.055Z" fill="#F23F63"/>
	<path d="M121.021 117.397L121.021 121.794L118.776 120.498L118.776 118.389L111.64 114.268L111.64 104.652L114.039 106.037L114.039 113.366L117.398 115.305L117.398 107.976L119.813 109.371L119.813 116.699L121.021 117.397Z" fill="#F23F63"/>
	<path d="M122.539 110.945L124.939 112.33L124.939 118.05L128.995 114.671L131.208 115.95L131.208 125.566L128.809 124.181L128.809 118.461L124.769 121.848L122.539 120.561L122.539 110.945Z" fill="#F23F63"/>
	<path d="M136.765 119.015C138.055 119.76 139.046 120.689 139.738 121.803C140.429 122.906 140.775 124.172 140.775 125.602L140.775 131.09L138.515 129.785L138.515 128.587C138.061 129.219 137.214 129.177 135.976 128.462C135.336 128.092 134.779 127.646 134.304 127.121C133.84 126.603 133.483 126.052 133.236 125.468C132.988 124.884 132.864 124.312 132.864 123.752C132.864 122.858 133.153 122.322 133.731 122.143C134.319 121.97 135.222 122.235 136.44 122.938L138.36 124.047C138.36 123.439 138.2 122.882 137.88 122.375C137.56 121.857 137.08 121.413 136.44 121.044C135.996 120.787 135.558 120.618 135.124 120.534C134.701 120.445 134.34 120.451 134.041 120.552L133.174 118.103C133.628 117.996 134.17 118.023 134.799 118.184C135.439 118.35 136.094 118.628 136.765 119.015ZM136.58 126.934C136.992 127.172 137.359 127.276 137.679 127.246C137.999 127.205 138.226 127.008 138.36 126.656L138.36 125.673L136.703 124.717C135.713 124.145 135.217 124.234 135.217 124.985C135.217 125.343 135.336 125.697 135.573 126.049C135.821 126.394 136.156 126.689 136.58 126.934Z" fill="#F23F63"/>
	<path d="M150.86 127.296L150.86 136.912L148.445 135.518L148.445 128.189L145.814 126.67L145.736 128.323C145.695 129.563 145.592 130.552 145.427 131.291C145.262 132.03 144.993 132.53 144.622 132.792C144.25 133.054 143.734 132.995 143.074 132.614C142.723 132.411 142.305 132.098 141.82 131.675L141.944 129.459C142.109 129.578 142.228 129.658 142.3 129.7C142.661 129.908 142.929 129.914 143.105 129.718C143.291 129.515 143.414 129.199 143.476 128.77C143.538 128.329 143.585 127.731 143.616 126.974L143.739 123.184L150.86 127.296Z" fill="#F23F63"/>
	<path d="M157.688 134.312C158.771 134.949 159.602 135.715 160.18 136.609C160.758 137.491 161.047 138.438 161.047 139.451C161.047 140.512 160.722 141.152 160.071 141.372C159.432 141.587 158.529 141.358 157.362 140.684L153.183 138.253L153.183 128.636L155.582 130.022L155.582 133.096L157.688 134.312ZM157.146 138.575C157.61 138.855 157.966 138.947 158.214 138.852C158.462 138.757 158.585 138.471 158.585 137.994C158.585 137.529 158.462 137.118 158.214 136.761C157.976 136.409 157.62 136.09 157.146 135.804L155.582 134.884L155.582 137.672L157.146 138.575Z" fill="#F23F63"/>
	<path d="M162.556 134.048L164.955 135.433L164.955 139.187L168.577 141.278L168.577 137.525L170.992 138.919L170.992 148.536L168.577 147.141L168.577 143.549L164.955 141.457L164.955 145.05L162.556 143.665L162.556 134.048Z" fill="#F23F63"/>
	<path d="M177.685 145.857C178.769 146.495 179.589 147.249 180.147 148.119C180.704 148.989 180.982 149.936 180.982 150.961C180.982 152.033 180.668 152.68 180.038 152.9C179.409 153.121 178.516 152.897 177.36 152.23L173.304 149.87L173.304 140.254L175.704 141.639L175.704 144.713L177.685 145.857ZM181.88 145.205L184.28 146.59L184.28 156.207L181.88 154.822L181.88 145.205ZM177.143 150.121C177.608 150.401 177.964 150.493 178.211 150.398C178.459 150.302 178.583 150.016 178.583 149.54C178.583 149.075 178.459 148.664 178.211 148.306C177.974 147.955 177.618 147.636 177.143 147.35L175.704 146.501L175.704 149.289L177.143 150.121Z" fill="#F23F63"/>
	<path d="M194.704 157.453C194.704 157.489 194.688 157.73 194.657 158.177L188.357 154.539C188.47 155.201 188.739 155.826 189.162 156.416C189.585 157.006 190.111 157.483 190.741 157.846C191.174 158.096 191.556 158.245 191.886 158.293C192.227 158.335 192.542 158.278 192.831 158.123L194.116 160.474C193.331 161.058 192.186 160.915 190.679 160.045C189.74 159.503 188.909 158.814 188.187 157.98C187.464 157.134 186.907 156.222 186.515 155.245C186.123 154.268 185.927 153.303 185.927 152.349C185.927 151.408 186.117 150.672 186.499 150.142C186.891 149.606 187.423 149.323 188.094 149.293C188.775 149.257 189.533 149.481 190.369 149.963C191.185 150.434 191.923 151.062 192.583 151.849C193.244 152.635 193.76 153.517 194.131 154.494C194.513 155.466 194.704 156.452 194.704 157.453ZM190.385 152.081C189.838 151.766 189.379 151.679 189.007 151.822C188.636 151.965 188.409 152.323 188.326 152.895L192.428 155.263C192.346 154.608 192.119 153.994 191.747 153.422C191.376 152.838 190.922 152.391 190.385 152.081Z" fill="#F23F63"/>
	<path d="M88.1446 112.934L88.1446 122.551L85.7297 121.157L85.7297 113.828L82.2621 111.826L82.2621 119.155L79.8626 117.769L79.8626 108.152L88.1446 112.934Z" fill="#F23F63"/>
	<path d="M95.3673 116.961C96.1413 117.408 96.8431 118.022 97.4726 118.802C98.1125 119.577 98.613 120.444 98.9742 121.403C99.3354 122.35 99.516 123.319 99.516 124.308C99.516 125.297 99.3354 126.063 98.9742 126.605C98.613 127.135 98.1125 127.424 97.4726 127.472C96.8431 127.513 96.1413 127.311 95.3673 126.864C94.3043 126.25 93.4684 125.38 92.8595 124.254L92.8595 128.741L90.4445 127.347L90.4445 114.262L92.7511 115.594L92.7511 116.702C93.3497 116.213 94.2217 116.3 95.3673 116.961ZM94.9493 124.335C95.5685 124.692 96.0742 124.746 96.4664 124.496C96.8689 124.239 97.0701 123.706 97.0701 122.896C97.0701 122.085 96.8689 121.326 96.4664 120.617C96.0742 119.902 95.5685 119.365 94.9493 119.008C94.3301 118.65 93.8192 118.6 93.4168 118.856C93.0246 119.106 92.8285 119.636 92.8285 120.447C92.8285 121.257 93.0246 122.02 93.4168 122.735C93.8192 123.444 94.3301 123.977 94.9493 124.335Z" fill="#F23F63"/>
<path d="M109.305 129.995C109.305 130.031 109.289 130.272 109.258 130.719L102.958 127.081C103.071 127.743 103.34 128.368 103.763 128.958C104.186 129.548 104.712 130.025 105.342 130.388C105.775 130.639 106.157 130.788 106.487 130.835C106.828 130.877 107.143 130.82 107.432 130.665L108.717 133.016C107.932 133.6 106.787 133.457 105.28 132.587C104.341 132.045 103.51 131.357 102.788 130.522C102.065 129.676 101.508 128.765 101.116 127.788C100.724 126.81 100.527 125.845 100.527 124.892C100.527 123.95 100.718 123.214 101.1 122.684C101.492 122.148 102.024 121.865 102.695 121.835C103.376 121.799 104.134 122.023 104.97 122.505C105.786 122.976 106.524 123.605 107.184 124.391C107.845 125.178 108.361 126.06 108.732 127.037C109.114 128.008 109.305 128.994 109.305 129.995ZM104.986 124.624C104.439 124.308 103.98 124.221 103.608 124.364C103.237 124.507 103.009 124.865 102.927 125.437L107.029 127.805C106.947 127.15 106.72 126.536 106.348 125.964C105.977 125.38 105.522 124.933 104.986 124.624Z" fill="#F23F63"/>
<path d="M120.415 138.894L120.415 143.256L118.17 141.96L118.17 139.886L112.319 136.508L112.319 138.581L110.074 137.285L110.074 132.924L110.415 133.121C110.931 133.407 111.287 133.261 111.483 132.683C111.679 132.105 111.803 131.193 111.854 129.948L111.963 126.685L119.223 130.877L119.223 138.206L120.415 138.894ZM114.037 131.405C114.006 132.364 113.939 133.124 113.836 133.684C113.743 134.25 113.562 134.616 113.294 134.783L116.808 136.812L116.808 131.771L114.084 130.198L114.037 131.405Z" fill="#F23F63"/>
<path d="M129.923 137.055L129.923 146.672L127.508 145.277L127.508 137.948L124.876 136.429L124.799 138.082C124.757 139.322 124.654 140.311 124.489 141.05C124.324 141.789 124.056 142.289 123.684 142.551C123.312 142.813 122.796 142.754 122.136 142.373C121.785 142.17 121.367 141.857 120.882 141.434L121.006 139.218C121.171 139.337 121.29 139.417 121.362 139.459C121.723 139.667 121.992 139.673 122.167 139.477C122.353 139.274 122.477 138.958 122.538 138.529C122.6 138.088 122.647 137.49 122.678 136.733L122.802 132.943L129.923 137.055Z" fill="#F23F63"/>
<path d="M136.146 150.408C135.269 149.901 134.479 149.237 133.777 148.414C133.086 147.586 132.544 146.684 132.152 145.706C131.76 144.729 131.564 143.764 131.564 142.811C131.564 141.857 131.76 141.118 132.152 140.594C132.544 140.07 133.086 139.799 133.777 139.781C134.479 139.757 135.269 139.998 136.146 140.505C137.023 141.011 137.808 141.679 138.499 142.507C139.19 143.323 139.732 144.22 140.124 145.197C140.517 146.174 140.713 147.139 140.713 148.093C140.713 149.046 140.517 149.785 140.124 150.309C139.732 150.834 139.19 151.111 138.499 151.14C137.808 151.158 137.023 150.914 136.146 150.408ZM136.146 148.12C136.765 148.477 137.271 148.531 137.663 148.28C138.066 148.024 138.267 147.491 138.267 146.681C138.267 145.87 138.066 145.111 137.663 144.401C137.271 143.686 136.765 143.15 136.146 142.793C135.527 142.435 135.016 142.385 134.613 142.641C134.211 142.885 134.01 143.412 134.01 144.223C134.01 145.033 134.211 145.799 134.613 146.52C135.016 147.229 135.527 147.762 136.146 148.12Z" fill="#F23F63"/>
<path d="M150.368 154.829L149.207 154.159L149.207 157.805L146.823 156.429L146.823 152.782L145.662 152.112L143.897 154.74L141.049 153.095L143.665 149.636L141.234 143.585L143.789 145.06L145.631 149.86L146.823 150.548L146.823 146.812L149.207 148.188L149.207 151.924L150.383 152.603L152.241 149.94L154.795 151.415L152.365 154.659L154.996 161.148L152.132 159.494L150.368 154.829Z" fill="#F23F63"/>
<path d="M164.091 161.626C164.091 161.662 164.075 161.903 164.044 162.35L157.744 158.712C157.857 159.374 158.126 159.999 158.549 160.589C158.972 161.179 159.498 161.656 160.128 162.019C160.561 162.269 160.943 162.418 161.273 162.466C161.614 162.508 161.929 162.451 162.218 162.296L163.503 164.647C162.718 165.231 161.573 165.088 160.066 164.218C159.127 163.676 158.296 162.987 157.574 162.153C156.851 161.307 156.294 160.395 155.902 159.418C155.51 158.441 155.313 157.476 155.313 156.522C155.313 155.581 155.504 154.845 155.886 154.315C156.278 153.779 156.81 153.496 157.481 153.466C158.162 153.43 158.92 153.654 159.756 154.136C160.572 154.607 161.31 155.235 161.97 156.022C162.631 156.808 163.147 157.69 163.518 158.668C163.9 159.639 164.091 160.625 164.091 161.626ZM159.772 156.254C159.225 155.939 158.766 155.852 158.394 155.995C158.023 156.138 157.795 156.496 157.713 157.068L161.815 159.436C161.733 158.781 161.506 158.167 161.134 157.595C160.763 157.011 160.308 156.564 159.772 156.254Z" fill="#F23F63"/>
<path d="M165.942 157.85L168.341 159.236L168.341 162.99L171.964 165.081L171.964 161.327L174.379 162.721L174.379 172.338L171.964 170.944L171.964 167.351L168.341 165.26L168.341 168.853L165.942 167.467L165.942 157.85Z" fill="#F23F63"/>
<path d="M176.691 164.056L179.09 165.441L179.09 171.161L183.146 167.783L185.36 169.061L185.36 178.678L182.96 177.293L182.96 171.573L178.92 174.96L176.691 173.673L176.691 164.056Z" fill="#F23F63"/>
<path d="M195.081 174.674L195.081 184.29L192.929 183.048L192.929 180.295L191.149 179.268L189.57 181.109L187 179.625L188.904 177.578C188.326 176.983 187.882 176.351 187.573 175.684C187.273 175.01 187.124 174.322 187.124 173.619C187.124 172.487 187.475 171.82 188.176 171.617C188.888 171.408 189.864 171.662 191.102 172.377L195.081 174.674ZM191.149 174.674C190.633 174.376 190.24 174.257 189.972 174.316C189.714 174.382 189.585 174.653 189.585 175.129C189.585 175.606 189.709 176.029 189.957 176.399C190.215 176.762 190.602 177.093 191.118 177.391L192.929 178.436L192.929 175.701L191.149 174.674Z" fill="#F23F63"/>
<path d="M197.046 172.912L199.925 174.575L199.445 182.467L197.525 181.358L197.046 172.912ZM198.485 186.399C198.062 186.155 197.706 185.794 197.417 185.318C197.138 184.835 196.999 184.367 196.999 183.914C196.999 183.462 197.138 183.167 197.417 183.03C197.696 182.881 198.052 182.931 198.485 183.182C198.919 183.432 199.275 183.792 199.553 184.263C199.832 184.722 199.971 185.178 199.971 185.63C199.971 186.083 199.827 186.387 199.538 186.542C199.259 186.691 198.908 186.643 198.485 186.399Z" fill="#F23F63"/>

</svg>
