<svg viewBox="0 0 302 425" fill="none" xmlns="http://www.w3.org/2000/svg">
<circle r="86.6799" transform="matrix(0.866025 0.5 -0.866025 0.5 151 337.333)" fill="white" stroke="#333333"/>
<path d="M44.8731 330.614L128.018 106.236H169.591L254.598 322.031" stroke="#333333"/>
<path d="M162.506 175.37C162.506 174.473 162.655 173.689 162.952 173.017C163.272 172.322 163.649 171.739 164.083 171.269C164.54 170.798 165.134 170.238 165.865 169.588C166.779 168.804 167.453 168.132 167.887 167.571C168.321 166.989 168.538 166.294 168.538 165.487C168.538 164.389 168.104 163.515 167.236 162.866C166.368 162.193 165.168 161.857 163.637 161.857C160.964 161.857 158.919 162.742 157.502 164.513L155 162.765C155.96 161.555 157.182 160.625 158.667 159.975C160.175 159.325 161.912 159 163.877 159C166.368 159 168.344 159.538 169.806 160.613C171.269 161.667 172 163.123 172 164.983C172 165.902 171.84 166.72 171.52 167.437C171.223 168.132 170.858 168.714 170.423 169.185C169.989 169.655 169.407 170.216 168.675 170.866C167.739 171.695 167.042 172.423 166.585 173.05C166.151 173.678 165.933 174.451 165.933 175.37H162.506ZM164.254 183C163.614 183 163.077 182.798 162.643 182.395C162.232 181.969 162.026 181.454 162.026 180.849C162.026 180.244 162.232 179.739 162.643 179.336C163.077 178.91 163.614 178.697 164.254 178.697C164.894 178.697 165.419 178.91 165.831 179.336C166.242 179.739 166.448 180.244 166.448 180.849C166.448 181.454 166.231 181.969 165.796 182.395C165.385 182.798 164.871 183 164.254 183Z" fill="#333333"/>
<path d="M225.207 148.472C184.218 172.137 118.283 172.424 77.9373 149.13C37.5826 125.832 36.9573 87.7028 77.9373 64.0429C118.926 40.378 184.861 40.0903 225.207 63.3841C265.562 86.6829 266.187 124.812 225.207 148.472Z" fill="white" stroke="#333333"/>
<path d="M224.356 138.521C184.006 161.817 118.271 161.643 77.5333 138.123C36.7951 114.602 36.4941 76.6505 76.8438 53.3546C117.193 30.0587 182.928 30.2325 223.666 53.7527C264.404 77.2729 264.705 115.225 224.356 138.521Z" fill="white" stroke="#333333"/>
<circle r="86.6799" transform="matrix(0.866025 0.5 -0.866025 0.5 151 87.1799)" fill="white" stroke="#333333"/>
<circle r="5.80175" transform="matrix(0.866025 0.5 -0.866025 0.5 209.094 48.2698)" fill="#333333"/>
<circle r="5.80175" transform="matrix(0.866025 0.5 -0.866025 0.5 92.1622 115.781)" fill="#333333"/>
<ellipse rx="5.80175" ry="5.80175" transform="matrix(-0.866025 0.5 -0.866025 -0.5 209.092 115.781)" fill="#333333"/>
<ellipse rx="5.80175" ry="5.80175" transform="matrix(-0.866025 0.5 -0.866025 -0.5 92.1601 48.2698)" fill="#333333"/>
<ellipse cx="150.629" cy="129.763" rx="7.10567" ry="4.10246" transform="rotate(-180 150.629 129.763)" fill="#333333"/>
<ellipse cx="150.629" cy="34.2877" rx="7.10567" ry="4.10246" transform="rotate(-180 150.629 34.2877)" fill="#333333"/>
<ellipse cx="67.9417" cy="82.0257" rx="7.10567" ry="4.10246" transform="rotate(-90 67.9417 82.0257)" fill="#333333"/>
<ellipse cx="233.311" cy="82.0255" rx="7.10567" ry="4.10246" transform="rotate(-90 233.311 82.0255)" fill="#333333"/>
<mask id="path-15-inside-1" fill="white">
<path fill-rule="evenodd" clip-rule="evenodd" d="M94.0772 45.3086C84.9455 57.3656 89.5914 71.8388 107.919 81.7495C132.174 94.866 171.208 95.0237 195.104 82.1018C212.368 72.7664 217.007 59.1583 209.106 47.3777C208.661 46.5319 208.17 45.6949 207.634 44.8682C204.553 40.1183 200.038 35.8025 194.345 32.1671C188.652 28.5317 181.894 25.648 174.456 23.6805C167.018 21.7131 159.047 20.7004 150.996 20.7004C142.945 20.7004 134.974 21.7131 127.536 23.6805C120.098 25.648 113.34 28.5317 107.647 32.1671C101.954 35.8025 97.4388 40.1183 94.358 44.8682C94.263 45.0147 94.1694 45.1615 94.0772 45.3086Z"/>
</mask>
<path fill-rule="evenodd" clip-rule="evenodd" d="M94.0772 45.3086C84.9455 57.3656 89.5914 71.8388 107.919 81.7495C132.174 94.866 171.208 95.0237 195.104 82.1018C212.368 72.7664 217.007 59.1583 209.106 47.3777C208.661 46.5319 208.17 45.6949 207.634 44.8682C204.553 40.1183 200.038 35.8025 194.345 32.1671C188.652 28.5317 181.894 25.648 174.456 23.6805C167.018 21.7131 159.047 20.7004 150.996 20.7004C142.945 20.7004 134.974 21.7131 127.536 23.6805C120.098 25.648 113.34 28.5317 107.647 32.1671C101.954 35.8025 97.4388 40.1183 94.358 44.8682C94.263 45.0147 94.1694 45.1615 94.0772 45.3086Z" fill="white"/>
<path d="M107.919 81.7495L107.443 82.6291L107.919 81.7495ZM94.0772 45.3086L94.8744 45.9123L94.9012 45.877L94.9247 45.8394L94.0772 45.3086ZM195.104 82.1018L195.58 82.9814L195.104 82.1018ZM209.106 47.3777L208.221 47.8434L208.246 47.8905L208.276 47.9347L209.106 47.3777ZM207.634 44.8682L208.473 44.324V44.324L207.634 44.8682ZM194.345 32.1671L193.807 33.0099L194.345 32.1671ZM127.536 23.6805L127.28 22.7138L127.536 23.6805ZM107.647 32.1671L108.185 33.0099L107.647 32.1671ZM94.358 44.8682L93.519 44.324L94.358 44.8682ZM108.394 80.8699C99.3622 75.9857 93.8404 70.0505 91.6408 63.9926C89.4576 57.9801 90.4912 51.6996 94.8744 45.9123L93.2801 44.7048C88.5315 50.9746 87.3222 57.9592 89.7608 64.6752C92.183 71.3459 98.1477 77.6026 107.443 82.6291L108.394 80.8699ZM194.628 81.2221C182.865 87.5831 167.309 90.7533 151.65 90.69C135.993 90.6268 120.342 87.3308 108.394 80.8699L107.443 82.6291C119.751 89.2846 135.745 92.6258 151.642 92.69C167.539 92.7542 183.447 89.5423 195.58 82.9814L194.628 81.2221ZM208.276 47.9347C212.062 53.5797 212.811 59.5868 210.609 65.2968C208.391 71.0456 203.128 76.6257 194.628 81.2221L195.58 82.9814C204.343 78.2425 210.032 72.3508 212.475 66.0165C214.933 59.6436 214.052 52.9563 209.937 46.8207L208.276 47.9347ZM209.991 46.912C209.532 46.0386 209.025 45.1755 208.473 44.324L206.795 45.4124C207.315 46.2143 207.791 47.0252 208.221 47.8434L209.991 46.912ZM208.473 44.324C205.301 39.4334 200.673 35.022 194.883 31.3243L193.807 33.0099C199.402 36.583 203.806 40.8033 206.795 45.4124L208.473 44.324ZM194.883 31.3243C189.092 27.6261 182.236 24.7041 174.712 22.7138L174.201 24.6473C181.552 26.5919 188.212 29.4373 193.807 33.0099L194.883 31.3243ZM174.712 22.7138C167.187 20.7233 159.129 19.7004 150.996 19.7004V21.7004C158.964 21.7004 166.85 22.7029 174.201 24.6473L174.712 22.7138ZM150.996 19.7004C142.863 19.7004 134.805 20.7233 127.28 22.7138L127.791 24.6473C135.142 22.7029 143.028 21.7004 150.996 21.7004V19.7004ZM127.28 22.7138C119.756 24.7041 112.9 27.6261 107.109 31.3243L108.185 33.0099C113.78 29.4374 120.44 26.5919 127.791 24.6473L127.28 22.7138ZM107.109 31.3243C101.319 35.022 96.6911 39.4334 93.519 44.324L95.1969 45.4124C98.1865 40.8033 102.59 36.583 108.185 33.0099L107.109 31.3243ZM93.519 44.324C93.4211 44.4749 93.3247 44.6261 93.2298 44.7777L94.9247 45.8394C95.014 45.6968 95.1048 45.5545 95.1969 45.4124L93.519 44.324Z" fill="#333333" mask="url(#path-15-inside-1)"/>
<path d="M149.164 243.042C149.569 242.908 149.704 242.504 149.704 242.1C149.569 239.138 149.164 226.887 155.642 220.828C161.04 215.847 164.683 214.501 166.303 214.097C166.843 213.962 167.247 214.231 167.517 214.635L168.327 216.251C168.597 216.655 168.462 217.193 168.057 217.597C165.763 219.347 158.88 224.867 158.071 229.579C157.261 234.695 159.285 240.888 159.555 241.831C159.555 241.965 159.69 241.965 159.69 242.1L167.787 253.678C168.057 254.217 172.78 262.16 177.504 262.968C181.552 263.641 187.895 263.641 190.054 263.641C190.459 263.641 190.864 263.91 190.999 264.314L192.214 266.872C192.483 267.411 192.214 268.218 191.539 268.353C188.165 269.295 178.179 271.719 172.646 270.373C165.898 268.757 162.119 266.199 160.5 266.872C158.745 267.545 151.998 270.507 146.06 275.354C141.202 279.393 139.312 286.394 138.908 288.548C138.773 288.952 139.042 289.355 139.312 289.625L151.323 297.433C151.863 297.703 151.998 298.51 151.593 298.914L144.98 307.531C144.441 308.204 143.496 308.069 143.226 307.396C142.686 306.319 142.146 304.703 142.281 303.088L142.416 300.665C142.416 300.261 142.281 299.857 141.876 299.722L129.191 292.317C128.921 292.183 128.786 291.913 128.651 291.644C128.246 289.894 126.762 283.297 130.001 278.181C130.271 277.777 130.136 277.239 129.866 276.969C128.921 275.892 128.246 275.219 127.707 274.681C127.167 274.142 126.357 274.142 125.952 274.815C124.468 277.104 121.634 281.816 121.229 284.105C120.824 286.798 122.578 302.145 123.118 305.915C123.118 306.454 122.848 306.858 122.443 306.992L109.758 311.839C109.083 312.108 108.273 311.57 108.273 310.762C108.273 308.742 109.083 305.242 113.672 302.549C114.076 302.28 114.211 301.876 114.211 301.472C113.402 296.626 112.187 284.778 112.187 283.297C112.322 280.739 114.481 267.141 126.897 257.179C131.755 252.467 146.06 244.658 149.164 243.042Z" fill="white" stroke="#333333" stroke-miterlimit="10"/>
<path d="M170.44 254.288C175.543 253.646 179.27 249.897 178.767 245.914C178.263 241.93 173.719 239.221 168.617 239.863C163.515 240.505 159.787 244.254 160.291 248.238C160.794 252.221 165.338 254.93 170.44 254.288Z" fill="white" stroke="#333333" stroke-miterlimit="10"/>
<path d="M197.949 327.079C197.949 326.279 198.079 325.579 198.339 324.979C198.619 324.359 198.949 323.839 199.329 323.419C199.729 322.999 200.249 322.499 200.889 321.919C201.689 321.219 202.279 320.619 202.659 320.119C203.039 319.599 203.229 318.979 203.229 318.259C203.229 317.279 202.849 316.499 202.089 315.919C201.329 315.319 200.279 315.019 198.939 315.019C196.599 315.019 194.809 315.809 193.569 317.389L191.379 315.829C192.219 314.749 193.289 313.919 194.589 313.339C195.909 312.759 197.429 312.469 199.149 312.469C201.329 312.469 203.059 312.949 204.339 313.909C205.619 314.849 206.259 316.149 206.259 317.809C206.259 318.629 206.119 319.359 205.839 319.999C205.579 320.619 205.259 321.139 204.879 321.559C204.499 321.979 203.989 322.479 203.349 323.059C202.529 323.799 201.919 324.449 201.519 325.009C201.139 325.569 200.949 326.259 200.949 327.079H197.949ZM199.479 333.889C198.919 333.889 198.449 333.709 198.069 333.349C197.709 332.969 197.529 332.509 197.529 331.969C197.529 331.429 197.709 330.979 198.069 330.619C198.449 330.239 198.919 330.049 199.479 330.049C200.039 330.049 200.499 330.239 200.859 330.619C201.219 330.979 201.399 331.429 201.399 331.969C201.399 332.509 201.209 332.969 200.829 333.349C200.469 333.709 200.019 333.889 199.479 333.889Z" fill="#333333"/>
<path d="M109.019 215.809C109.019 215.063 109.14 214.409 109.383 213.849C109.644 213.271 109.952 212.785 110.307 212.393C110.68 212.001 111.165 211.535 111.763 210.993C112.509 210.34 113.06 209.78 113.415 209.313C113.769 208.828 113.947 208.249 113.947 207.577C113.947 206.663 113.592 205.935 112.883 205.393C112.173 204.833 111.193 204.553 109.943 204.553C107.759 204.553 106.088 205.291 104.931 206.765L102.887 205.309C103.671 204.301 104.669 203.527 105.883 202.985C107.115 202.444 108.533 202.173 110.139 202.173C112.173 202.173 113.788 202.621 114.983 203.517C116.177 204.395 116.775 205.608 116.775 207.157C116.775 207.923 116.644 208.604 116.383 209.201C116.14 209.78 115.841 210.265 115.487 210.657C115.132 211.049 114.656 211.516 114.059 212.057C113.293 212.748 112.724 213.355 112.351 213.877C111.996 214.4 111.819 215.044 111.819 215.809H109.019ZM110.447 222.165C109.924 222.165 109.485 221.997 109.131 221.661C108.795 221.307 108.627 220.877 108.627 220.373C108.627 219.869 108.795 219.449 109.131 219.113C109.485 218.759 109.924 218.581 110.447 218.581C110.969 218.581 111.399 218.759 111.735 219.113C112.071 219.449 112.239 219.869 112.239 220.373C112.239 220.877 112.061 221.307 111.707 221.661C111.371 221.997 110.951 222.165 110.447 222.165Z" fill="#333333"/>
<path d="M93.1552 346.508C93.1552 345.276 93.3562 344.197 93.7581 343.273C94.1909 342.318 94.7009 341.517 95.2883 340.87C95.9066 340.223 96.7104 339.452 97.6996 338.559C98.9362 337.48 99.8481 336.556 100.435 335.786C101.023 334.985 101.317 334.029 101.317 332.92C101.317 331.41 100.729 330.209 99.5544 329.315C98.3797 328.391 96.7567 327.929 94.6855 327.929C91.0685 327.929 88.3017 329.146 86.3851 331.58L83 329.176C84.2984 327.513 85.9523 326.234 87.9617 325.34C90.002 324.447 92.3515 324 95.0101 324C98.3797 324 101.054 324.739 103.032 326.218C105.011 327.667 106 329.669 106 332.227C106 333.49 105.784 334.615 105.351 335.601C104.949 336.556 104.454 337.357 103.867 338.004C103.28 338.651 102.491 339.422 101.502 340.315C100.235 341.455 99.2917 342.457 98.6734 343.319C98.086 344.182 97.7923 345.245 97.7923 346.508H93.1552ZM95.5202 357C94.6546 357 93.9281 356.723 93.3407 356.168C92.7843 355.583 92.506 354.874 92.506 354.042C92.506 353.21 92.7843 352.517 93.3407 351.962C93.9281 351.377 94.6546 351.084 95.5202 351.084C96.3858 351.084 97.0968 351.377 97.6532 351.962C98.2097 352.517 98.4879 353.21 98.4879 354.042C98.4879 354.874 98.1942 355.583 97.6069 356.168C97.0504 356.723 96.3548 357 95.5202 357Z" fill="#333333"/>
<path d="M133.303 242.724V252.162" stroke="#333333" stroke-miterlimit="10"/>
<path d="M117.965 245.083L117.965 267.497" stroke="#333333" stroke-miterlimit="10"/>
<path d="M178.248 230.927L178.248 243.904" stroke="#333333" stroke-miterlimit="10"/>
<path d="M154.537 210.873L154.537 222.669" stroke="#333333" stroke-miterlimit="10"/>
<path d="M148.643 284.013L148.643 295.81" stroke="#333333" stroke-miterlimit="10"/>
<path d="M171.053 335.919L171.053 358.333" stroke="#333333" stroke-miterlimit="10"/>
<path d="M130.943 324.122L130.943 335.919" stroke="#333333" stroke-miterlimit="10"/>
<path d="M44.0922 328.482C44.0489 328.599 44.0206 328.722 44.0078 328.847C41.5762 352.522 54.7009 370.138 75.1209 381.727C95.5011 393.294 123.33 399 151 399C186.965 399 214.745 390.537 233.041 377.538C251.353 364.527 260.217 346.907 257.989 328.816C257.974 328.694 257.944 328.575 257.899 328.46L193.635 161.866C197.166 161.473 202.288 160.214 208.044 158.154C215.147 155.613 223.37 151.796 231.021 146.685C246.174 136.561 259.451 121.077 256.538 100.159C259.817 90.9572 259.651 76.9 250.753 63.3635C241.746 49.6596 223.904 36.6457 192.021 29.5789C166.194 15.992 132.892 16.9585 110.488 29.5663C94.3073 32.3985 74.7943 40.6055 60.9999 52.9445C47.1717 65.3138 38.8963 82.0616 45.976 101.699C44.5585 118.192 52.8028 131.651 64.7943 141.723C76.3904 151.463 91.615 158.159 105.508 161.569L44.0922 328.482Z" stroke="#333333" stroke-width="3" stroke-linecap="round" stroke-linejoin="round"/>
<path d="M173.374 216L173.221 216L173.094 216.086C173.05 216.116 172.987 216.162 172.931 216.227C172.875 216.292 172.786 216.423 172.791 216.609C172.796 216.797 172.893 216.924 172.953 216.985C173.011 217.045 173.074 217.084 173.108 217.105C173.151 217.131 173.219 217.165 173.271 217.192C173.291 217.202 173.309 217.211 173.322 217.219C173.391 217.255 173.463 217.296 173.537 217.348C173.775 217.515 174.128 217.856 174.311 218.682C173.537 218.904 171.956 218.962 170.178 217.603L170.013 217.477L169.808 217.504C169.278 217.575 168.951 217.57 168.734 217.52C168.545 217.477 168.43 217.398 168.321 217.257C168.193 217.091 168.075 216.841 167.914 216.436C167.87 216.325 167.823 216.204 167.773 216.073C167.648 215.748 167.499 215.363 167.315 214.934L167.295 214.888L167.266 214.847C166.923 214.353 166.804 213.993 166.799 213.734C166.795 213.499 166.884 213.283 167.122 213.053C167.375 212.809 167.779 212.568 168.36 212.324C168.936 212.083 169.65 211.853 170.494 211.615C172.144 211.151 173.94 210.987 175.334 211.192C176.033 211.295 176.595 211.485 176.988 211.746C177.368 212 177.577 212.309 177.627 212.687C177.655 212.896 177.606 213.207 177.433 213.58C177.263 213.946 176.989 214.34 176.616 214.702C175.871 215.425 174.761 216 173.374 216Z" stroke="#333333"/>
<path d="M173.374 216L173.221 216L173.094 216.086C173.05 216.116 172.987 216.162 172.931 216.227C172.875 216.292 172.786 216.423 172.791 216.609C172.796 216.797 172.893 216.924 172.953 216.985C173.011 217.045 173.074 217.084 173.108 217.105C173.151 217.131 173.219 217.165 173.271 217.192C173.291 217.202 173.309 217.211 173.322 217.219C173.391 217.255 173.463 217.296 173.537 217.348C173.775 217.515 174.128 217.856 174.311 218.682C173.537 218.904 171.956 218.962 170.178 217.603L170.013 217.477L169.808 217.504C169.278 217.575 168.951 217.57 168.734 217.52C168.545 217.477 168.43 217.398 168.321 217.257C168.193 217.091 168.075 216.841 167.914 216.436C167.87 216.325 167.823 216.204 167.773 216.073C167.648 215.748 167.499 215.363 167.315 214.934L167.295 214.888L167.266 214.847C166.923 214.353 166.804 213.993 166.799 213.734C166.795 213.499 166.884 213.283 167.122 213.053C167.375 212.809 167.779 212.568 168.36 212.324C168.936 212.083 169.65 211.853 170.494 211.615C172.144 211.151 173.94 210.987 175.334 211.192C176.033 211.295 176.595 211.485 176.988 211.746C177.368 212 177.577 212.309 177.627 212.687C177.655 212.896 177.606 213.207 177.433 213.58C177.263 213.946 176.989 214.34 176.616 214.702C175.871 215.425 174.761 216 173.374 216Z" stroke="#333333"/>
<path d="M173.374 216L173.221 216L173.094 216.086C173.05 216.116 172.987 216.162 172.931 216.227C172.875 216.292 172.786 216.423 172.791 216.609C172.796 216.797 172.893 216.924 172.953 216.985C173.011 217.045 173.074 217.084 173.108 217.105C173.151 217.131 173.219 217.165 173.271 217.192C173.291 217.202 173.309 217.211 173.322 217.219C173.391 217.255 173.463 217.296 173.537 217.348C173.775 217.515 174.128 217.856 174.311 218.682C173.537 218.904 171.956 218.962 170.178 217.603L170.013 217.477L169.808 217.504C169.278 217.575 168.951 217.57 168.734 217.52C168.545 217.477 168.43 217.398 168.321 217.257C168.193 217.091 168.075 216.841 167.914 216.436C167.87 216.325 167.823 216.204 167.773 216.073C167.648 215.748 167.499 215.363 167.315 214.934L167.295 214.888L167.266 214.847C166.923 214.353 166.804 213.993 166.799 213.734C166.795 213.499 166.884 213.283 167.122 213.053C167.375 212.809 167.779 212.568 168.36 212.324C168.936 212.083 169.65 211.853 170.494 211.615C172.144 211.151 173.94 210.987 175.334 211.192C176.033 211.295 176.595 211.485 176.988 211.746C177.368 212 177.577 212.309 177.627 212.687C177.655 212.896 177.606 213.207 177.433 213.58C177.263 213.946 176.989 214.34 176.616 214.702C175.871 215.425 174.761 216 173.374 216Z" stroke="#333333"/>
<path d="M194.548 260.94L194.451 261.059L194.304 261.103C194.253 261.118 194.177 261.137 194.092 261.139C194.006 261.141 193.848 261.127 193.708 261.006C193.565 260.883 193.528 260.727 193.519 260.642C193.51 260.559 193.519 260.486 193.525 260.446C193.532 260.396 193.548 260.323 193.56 260.265C193.565 260.243 193.569 260.223 193.572 260.208C193.588 260.132 193.602 260.051 193.608 259.96C193.63 259.67 193.589 259.181 193.066 258.516C192.405 258.974 191.358 260.161 191.283 262.398L191.276 262.605L191.125 262.746C190.734 263.112 190.531 263.368 190.432 263.567C190.346 263.741 190.334 263.879 190.374 264.053C190.421 264.258 190.54 264.507 190.751 264.889C190.809 264.993 190.873 265.105 190.943 265.227C191.115 265.531 191.319 265.889 191.534 266.303L191.557 266.348L191.571 266.397C191.735 266.975 191.938 267.295 192.136 267.463C192.315 267.615 192.538 267.683 192.867 267.645C193.216 267.604 193.658 267.444 194.215 267.148C194.767 266.856 195.397 266.449 196.115 265.947C197.521 264.964 198.786 263.679 199.51 262.47C199.873 261.865 200.082 261.309 200.129 260.84C200.174 260.384 200.066 260.027 199.806 259.749C199.662 259.595 199.39 259.436 198.992 259.333C198.601 259.233 198.122 259.196 197.606 259.255C196.575 259.372 195.427 259.867 194.548 260.94Z" stroke="#333333"/>
<path d="M194.548 260.94L194.451 261.059L194.304 261.103C194.253 261.118 194.177 261.137 194.092 261.139C194.006 261.141 193.848 261.127 193.708 261.006C193.565 260.883 193.528 260.727 193.519 260.642C193.51 260.559 193.519 260.486 193.525 260.446C193.532 260.396 193.548 260.323 193.56 260.265C193.565 260.243 193.569 260.223 193.572 260.208C193.588 260.132 193.602 260.051 193.608 259.96C193.63 259.67 193.589 259.181 193.066 258.516C192.405 258.974 191.358 260.161 191.283 262.398L191.276 262.605L191.125 262.746C190.734 263.112 190.531 263.368 190.432 263.567C190.346 263.741 190.334 263.879 190.374 264.053C190.421 264.258 190.54 264.507 190.751 264.889C190.809 264.993 190.873 265.105 190.943 265.227C191.115 265.531 191.319 265.889 191.534 266.303L191.557 266.348L191.571 266.397C191.735 266.975 191.938 267.295 192.136 267.463C192.315 267.615 192.538 267.683 192.867 267.645C193.216 267.604 193.658 267.444 194.215 267.148C194.767 266.856 195.397 266.449 196.115 265.947C197.521 264.964 198.786 263.679 199.51 262.47C199.873 261.865 200.082 261.309 200.129 260.84C200.174 260.384 200.066 260.027 199.806 259.749C199.662 259.595 199.39 259.436 198.992 259.333C198.601 259.233 198.122 259.196 197.606 259.255C196.575 259.372 195.427 259.867 194.548 260.94Z" stroke="#333333"/>
<path d="M194.548 260.94L194.451 261.059L194.304 261.103C194.253 261.118 194.177 261.137 194.092 261.139C194.006 261.141 193.848 261.127 193.708 261.006C193.565 260.883 193.528 260.727 193.519 260.642C193.51 260.559 193.519 260.486 193.525 260.446C193.532 260.396 193.548 260.323 193.56 260.265C193.565 260.243 193.569 260.223 193.572 260.208C193.588 260.132 193.602 260.051 193.608 259.96C193.63 259.67 193.589 259.181 193.066 258.516C192.405 258.974 191.358 260.161 191.283 262.398L191.276 262.605L191.125 262.746C190.734 263.112 190.531 263.368 190.432 263.567C190.346 263.741 190.334 263.879 190.374 264.053C190.421 264.258 190.54 264.507 190.751 264.889C190.809 264.993 190.873 265.105 190.943 265.227C191.115 265.531 191.319 265.889 191.534 266.303L191.557 266.348L191.571 266.397C191.735 266.975 191.938 267.295 192.136 267.463C192.315 267.615 192.538 267.683 192.867 267.645C193.216 267.604 193.658 267.444 194.215 267.148C194.767 266.856 195.397 266.449 196.115 265.947C197.521 264.964 198.786 263.679 199.51 262.47C199.873 261.865 200.082 261.309 200.129 260.84C200.174 260.384 200.066 260.027 199.806 259.749C199.662 259.595 199.39 259.436 198.992 259.333C198.601 259.233 198.122 259.196 197.606 259.255C196.575 259.372 195.427 259.867 194.548 260.94Z" stroke="#333333"/>
</svg>
