<svg width="27" height="27" viewBox="0 0 27 27" fill="none" xmlns="http://www.w3.org/2000/svg">
<g clip-path="url(#clip0)">
<path d="M12.2944 15.5268L16.5482 13.0769L12.2944 10.627V15.5268Z" fill="white"/>
<path d="M13.9231 0C6.70203 0 0.846191 5.85584 0.846191 13.0769C0.846191 20.298 6.70203 26.1538 13.9231 26.1538C21.1442 26.1538 27 20.298 27 13.0769C27 5.85584 21.1442 0 13.9231 0ZM22.0942 13.0903C22.0942 13.0903 22.0942 15.7424 21.7578 17.0212C21.5692 17.7212 21.0173 18.2731 20.3173 18.4615C19.0385 18.7981 13.9231 18.7981 13.9231 18.7981C13.9231 18.7981 8.82113 18.7981 7.52892 18.4481C6.82894 18.2597 6.27702 17.7076 6.08845 17.0076C5.75183 15.7424 5.75183 13.0769 5.75183 13.0769C5.75183 13.0769 5.75183 10.4251 6.08845 9.14622C6.27682 8.44624 6.84231 7.88075 7.52892 7.69239C8.80776 7.35577 13.9231 7.35577 13.9231 7.35577C13.9231 7.35577 19.0385 7.35577 20.3173 7.70576C21.0173 7.89412 21.5692 8.44624 21.7578 9.14622C22.1078 10.4251 22.0942 13.0903 22.0942 13.0903V13.0903Z" fill="white"/>
</g>
<defs>
<clipPath id="clip0">
<rect x="0.846191" width="26.1538" height="26.1538" fill="white"/>
</clipPath>
</defs>
</svg>
