<svg width="28" height="27" viewBox="0 0 28 27" fill="none" xmlns="http://www.w3.org/2000/svg">
<path d="M14.0257 26.1538C21.2496 26.1538 27.1026 20.3008 27.1026 13.0769C27.1026 5.85301 21.2496 0 14.0257 0C6.80174 0 0.94873 5.85301 0.94873 13.0769C0.94873 20.3008 6.80174 26.1538 14.0257 26.1538ZM6.93251 12.7936L19.5408 7.93224C20.126 7.72083 20.6371 8.075 20.4475 8.95987L20.4486 8.95878L18.3018 19.0727C18.1427 19.7897 17.7166 19.9641 17.1205 19.6263L13.8513 17.2169L12.2744 18.736C12.1001 18.9103 11.953 19.0574 11.6151 19.0574L11.8473 15.7304L17.9062 10.2567C18.1699 10.0246 17.8474 9.89378 17.4998 10.1248L10.0121 14.839L6.78431 13.8321C6.0836 13.6098 6.06835 13.1314 6.93251 12.7936V12.7936Z" fill="white"/>
</svg>
