<svg width="28" height="27" viewBox="0 0 28 27" fill="none" xmlns="http://www.w3.org/2000/svg">
<g clip-path="url(#clip0)">
<path d="M13.9744 0C6.75244 0 0.897461 5.85472 0.897461 13.0769C0.897461 20.2991 6.75244 26.1538 13.9744 26.1538C21.1963 26.1538 27.0513 20.2991 27.0513 13.0769C27.0513 5.85472 21.1963 0 13.9744 0ZM20.6077 14.4912C21.2172 15.0866 21.862 15.6468 22.4092 16.3037C22.6516 16.5942 22.8801 16.8947 23.054 17.2326C23.3023 17.7145 23.0781 18.2429 22.6468 18.2716L19.9677 18.271C19.2758 18.3283 18.7252 18.0492 18.2609 17.5762C17.8904 17.1992 17.5466 16.7965 17.1896 16.4067C17.0438 16.2467 16.8902 16.0961 16.7072 15.9775C16.342 15.7399 16.0247 15.8127 15.8155 16.1942C15.6022 16.5825 15.5535 17.0127 15.5332 17.4448C15.504 18.0765 15.3135 18.2416 14.6797 18.2713C13.3253 18.3347 12.0402 18.1292 10.8458 17.4464C9.79218 16.8441 8.97666 15.9941 8.26602 15.0317C6.88221 13.1556 5.82241 11.0965 4.87017 8.97819C4.65586 8.50114 4.81265 8.24589 5.33893 8.23599C6.21331 8.21913 7.0877 8.22127 7.96208 8.23518C8.31793 8.2408 8.55338 8.44442 8.6901 8.7802C9.16261 9.94274 9.74188 11.0488 10.4678 12.0747C10.6612 12.3478 10.8587 12.6202 11.1399 12.8131C11.4502 13.0261 11.6868 12.9557 11.8331 12.6092C11.9268 12.389 11.9672 12.1536 11.9875 11.9176C12.0571 11.1093 12.0654 10.3013 11.945 9.49619C11.87 8.99238 11.5867 8.66702 11.0845 8.57177C10.8287 8.52334 10.8662 8.42863 10.9906 8.28254C11.2065 8.02997 11.4088 7.87371 11.813 7.87371L14.8399 7.87318C15.317 7.96682 15.424 8.18087 15.4888 8.66141L15.4914 12.0252C15.4858 12.2111 15.5848 12.7623 15.9187 12.884C16.1863 12.9723 16.3629 12.7577 16.5229 12.5884C17.2488 11.8181 17.766 10.9089 18.2291 9.96789C18.4335 9.55291 18.6098 9.12348 18.7811 8.69324C18.9084 8.37512 19.1064 8.2186 19.4655 8.22395L22.3803 8.22743C22.4662 8.22743 22.5534 8.22823 22.6385 8.24294C23.1297 8.32696 23.2643 8.53833 23.1123 9.01753C22.8731 9.77044 22.4084 10.3976 21.9541 11.0264C21.4671 11.6995 20.9478 12.3492 20.4656 13.0253C20.0225 13.6433 20.0576 13.9545 20.6077 14.4912Z" fill="white"/>
</g>
<defs>
<clipPath id="clip0">
<rect x="0.897461" width="26.1538" height="26.1538" fill="white"/>
</clipPath>
</defs>
</svg>
